<svg width="512" height="512" viewBox="0 0 512 512" fill="#6959CC" xmlns="http://www.w3.org/2000/svg">
<g clip-path="url(#clip0)">
<path d="M475.188 84.5472C476.857 76.3393 468.797 69.4944 460.958 72.4823L449.047 77.0313C413.04 31.8476 341.377 43.8086 321.806 97.9151C320.397 101.81 322.412 106.109 326.307 107.519C330.199 108.928 334.501 106.914 335.911 103.017C350.72 62.0794 403.879 50.5985 434.125 82.7303L426.049 85.8142C418.222 88.8022 416.761 99.2801 423.48 104.293L451.45 125.161C451.45 125.162 451.451 125.162 451.451 125.162C457.716 129.834 466.696 126.389 468.25 118.747L475.188 84.5472ZM454.913 109.031L438.793 97.0031L458.914 89.3192L454.913 109.031Z"/>
<path d="M456.242 138.537C452.347 137.132 448.049 139.145 446.641 143.043C431.583 184.728 377.13 195.508 347.449 162.34L355.406 159.301C363.23 156.313 364.696 145.835 357.975 140.823C357.974 140.823 330.003 119.952 330.002 119.952C323.743 115.282 314.757 118.725 313.205 126.369L306.265 160.566C304.596 168.778 312.666 175.623 320.494 172.632L332.665 167.984C368.155 214.307 440.983 202.854 460.747 148.137C462.155 144.244 460.138 139.945 456.242 138.537ZM322.539 155.797L326.54 136.084L342.661 148.112L322.539 155.797Z"/>
<path d="M331.151 18.3758C210.26 -16.2959 0 7.30991 0 69.7634V442.374C0 486.185 102.728 509.824 199.386 509.824C296.045 509.824 398.773 486.184 398.773 442.374C398.773 426.339 398.773 347.909 398.773 333.52C398.773 329.377 395.416 326.02 391.273 326.02C387.13 326.02 383.773 329.377 383.773 333.52V349.221C383.773 373.195 309.469 401.672 199.386 401.672C89.3073 401.672 14.9999 373.195 14.9999 349.221V283.06C79.8994 336.756 318.898 336.735 383.772 283.06V298.521C383.772 302.664 387.129 306.021 391.272 306.021C395.415 306.021 398.772 302.664 398.772 298.521C398.772 287.615 398.772 255.035 398.772 243.531C417.19 242.386 435.156 237.043 451.139 227.898C454.734 225.841 455.981 221.259 453.924 217.664C451.867 214.069 447.285 212.821 443.691 214.879C373.571 254.996 286.556 204.047 285.562 124.387C284.824 65.4225 332.577 17.3128 391.272 17.3128C449.57 17.3128 497 64.7425 497 123.041C497 149.562 487.135 174.927 469.223 194.463C466.424 197.516 466.629 202.261 469.683 205.06C472.735 207.859 477.479 207.653 480.28 204.6C500.735 182.289 512.001 153.325 512.001 123.041C512 30.4737 411.363 -27.8788 331.151 18.3758V18.3758ZM383.772 376.224V442.374C383.772 466.347 309.468 494.824 199.385 494.824C89.3073 494.825 14.9999 466.347 14.9999 442.374V376.224C79.9024 429.901 318.884 429.889 383.772 376.224ZM316.77 218.053C335.994 233.186 359.221 242.044 383.772 243.54V256.068C383.772 280.047 309.449 308.52 199.385 308.52C89.3233 308.521 14.9999 280.047 14.9999 256.069V189.92C62.3905 229.114 213.342 242.531 316.77 218.053V218.053ZM303.259 205.664C173.778 232.229 14.9999 200.37 14.9999 162.917V96.7662C59.8675 133.888 185.046 143.615 270.954 132.963C273.154 160.211 284.445 185.653 303.259 205.664V205.664ZM270.653 117.864C142.271 134.217 14.9999 102.578 14.9999 69.7634C14.9999 30.3427 187.623 -1.17202 314.815 29.5757C288.769 50.7886 272.16 82.2903 270.653 117.864V117.864Z"/>
</g>
<defs>
<clipPath id="clip0">
<rect width="512" height="512" fill="white"/>
</clipPath>
</defs>
</svg>
