<svg width="512" height="512" viewBox="0 0 512 512" fill="#6959CC" xmlns="http://www.w3.org/2000/svg">
<g clip-path="url(#clip0)">
<path d="M467 60H420.148C418.711 47.3047 415.457 35.5195 410.629 25.8633C402.289 9.1875 389.992 0 376 0C362.008 0 349.711 9.1875 341.371 25.8633C336.543 35.5195 333.289 47.3047 331.852 60H300.148C298.711 47.3047 295.457 35.5195 290.629 25.8633C282.289 9.1875 269.992 0 256 0C242.008 0 229.711 9.1875 221.371 25.8633C216.543 35.5195 213.289 47.3047 211.852 60H180.148C178.711 47.3047 175.457 35.5195 170.629 25.8633C162.289 9.1875 149.992 0 136 0C122.008 0 109.711 9.1875 101.371 25.8633C96.543 35.5195 93.2891 47.3047 91.8516 60H45C20.1875 60 0 80.1875 0 105V467C0 491.812 20.1875 512 45 512H467C491.812 512 512 491.812 512 467V105C512 80.1875 491.812 60 467 60V60ZM368.203 39.2812C372.039 31.6133 375.48 30 376 30C376.52 30 379.961 31.6133 383.797 39.2812C386.641 44.9648 388.727 52.1367 389.902 60H362.098C363.273 52.1367 365.363 44.9648 368.203 39.2812V39.2812ZM248.203 39.2812C252.039 31.6133 255.48 30 256 30C256.52 30 259.961 31.6133 263.797 39.2812C266.637 44.9648 268.727 52.1367 269.902 60H242.098C243.273 52.1367 245.363 44.9648 248.203 39.2812V39.2812ZM128.203 39.2812C132.039 31.6133 135.48 30 136 30C136.52 30 139.961 31.6133 143.797 39.2812C146.637 44.9648 148.727 52.1367 149.902 60H122.098C123.273 52.1367 125.363 44.9648 128.203 39.2812ZM45 90H149.902C148.727 97.8633 146.637 105.035 143.797 110.719C139.961 118.387 136.52 120 136 120C127.715 120 121 126.715 121 135C121 143.285 127.715 150 136 150C149.992 150 162.289 140.812 170.629 124.137C175.457 114.48 178.711 102.695 180.148 90H269.902C268.727 97.8633 266.637 105.035 263.797 110.719C259.961 118.387 256.52 120 256 120C247.715 120 241 126.715 241 135C241 143.285 247.715 150 256 150C269.992 150 282.289 140.812 290.629 124.137C295.457 114.48 298.711 102.695 300.148 90H389.902C388.727 97.8633 386.637 105.035 383.797 110.719C379.961 118.387 376.52 120 376 120C367.715 120 361 126.715 361 135C361 143.285 367.715 150 376 150C389.992 150 402.289 140.812 410.629 124.137C415.457 114.48 418.711 102.695 420.148 90H467C475.27 90 482 96.7305 482 105V181H30V105C30 96.7305 36.7305 90 45 90V90ZM467 482H45C36.7305 482 30 475.27 30 467V211H482V467C482 475.27 475.27 482 467 482Z"/>
<path d="M436 241H76C67.7148 241 61 247.715 61 256V437C61 445.285 67.7148 452 76 452H436C444.285 452 451 445.285 451 437V256C451 247.715 444.285 241 436 241ZM421 331H361V271H421V331ZM241 361V422H181V361H241ZM181 331V271H241V331H181ZM271 361H331V422H271V361ZM271 331V271H331V331H271ZM151 271V331H91V271H151ZM91 361H151V422H91V361ZM361 422V361H421V422H361Z"/>
</g>
<defs>
<clipPath id="clip0">
<rect width="512" height="512" fill="white"/>
</clipPath>
</defs>
</svg>
