<svg width="439" height="439" viewBox="0 0 439 439" fill="#6959CC" xmlns="http://www.w3.org/2000/svg">
<g clip-path="url(#clip0)">
<path d="M347.968 57.5029H308.262V39.74C308.262 33.993 301.993 31.381 296.246 31.381H265.422C258.108 10.483 239.822 0.0339498 218.924 0.0339498C198.256 -0.74305 179.457 11.93 172.426 31.381H142.124C136.377 31.381 130.63 33.993 130.63 39.74V57.5029H90.923C67.393 57.7539 48.143 76.3159 47.037 99.8209V399.184C47.037 422.172 67.935 438.89 90.923 438.89H347.968C370.956 438.89 391.854 422.172 391.854 399.184V99.8219C390.748 76.3159 371.498 57.7539 347.968 57.5029ZM151.527 52.2789H180.262C185.278 51.6669 189.307 47.851 190.189 42.875C193.283 29.401 205.104 19.729 218.924 19.365C232.616 19.78 244.259 29.482 247.136 42.875C248.073 48.023 252.368 51.8879 257.585 52.2789H287.365V94.0749H151.527V52.2789ZM370.956 399.185C370.956 410.679 359.462 417.993 347.968 417.993H90.923C79.429 417.993 67.935 410.679 67.935 399.185V99.8219C69.001 87.8579 78.913 78.6209 90.923 78.4019H130.629V105.047C131.181 110.901 136.251 115.28 142.123 114.974H296.245C302.225 115.301 307.454 110.982 308.261 105.047V78.4009H347.967C359.976 78.6209 369.889 87.8569 370.955 99.8209V399.185H370.956Z"/>
<path d="M179.217 233.569C175.298 229.438 168.792 229.205 164.588 233.047L131.151 264.916L117.045 250.287C113.126 246.156 106.62 245.924 102.416 249.765C98.369 254.005 98.369 260.676 102.416 264.916L123.836 286.859C125.69 288.935 128.368 290.083 131.15 289.994C133.906 289.955 136.535 288.828 138.464 286.859L179.215 248.198C183.255 244.492 183.525 238.212 179.818 234.173C179.628 233.962 179.427 233.761 179.217 233.569Z"/>
<path d="M329.16 256.034H208.997C203.226 256.034 198.548 260.712 198.548 266.483C198.548 272.254 203.226 276.932 208.997 276.932H329.16C334.931 276.932 339.609 272.254 339.609 266.483C339.609 260.712 334.931 256.034 329.16 256.034Z"/>
<path d="M179.217 149.977C175.298 145.846 168.792 145.613 164.588 149.455L131.151 181.324L117.045 166.695C113.126 162.564 106.62 162.331 102.416 166.173C98.369 170.413 98.369 177.084 102.416 181.324L123.836 203.267C125.69 205.343 128.368 206.491 131.15 206.402C133.906 206.363 136.535 205.236 138.464 203.267L179.215 164.606C183.255 160.9 183.525 154.62 179.818 150.581C179.628 150.37 179.427 150.169 179.217 149.977Z"/>
<path d="M329.16 172.442H208.997C203.226 172.442 198.548 177.12 198.548 182.891C198.548 188.662 203.226 193.34 208.997 193.34H329.16C334.931 193.34 339.609 188.662 339.609 182.891C339.609 177.12 334.931 172.442 329.16 172.442Z"/>
<path d="M179.217 317.16C175.298 313.029 168.792 312.797 164.588 316.638L131.151 348.507L117.045 333.878C113.126 329.747 106.62 329.515 102.416 333.356C98.369 337.596 98.369 344.267 102.416 348.507L123.836 370.45C125.69 372.526 128.368 373.674 131.15 373.585C133.906 373.546 136.535 372.419 138.464 370.45L179.215 331.789C183.255 328.083 183.525 321.803 179.818 317.764C179.628 317.554 179.427 317.353 179.217 317.16Z"/>
<path d="M329.16 339.626H208.997C203.226 339.626 198.548 344.304 198.548 350.075C198.548 355.846 203.226 360.524 208.997 360.524H329.16C334.931 360.524 339.609 355.846 339.609 350.075C339.609 344.304 334.931 339.626 329.16 339.626Z"/>
</g>
<defs>
<clipPath id="clip0">
<rect width="438.891" height="438.891" fill="white"/>
</clipPath>
</defs>
</svg>
