<svg width="512" height="512" viewBox="0 0 512 512" fill="#6959CC" xmlns="http://www.w3.org/2000/svg">
<path d="M471.369 115.987H322.276C308.613 115.987 296.513 122.772 289.144 133.142C281.774 122.772 269.674 115.987 256.012 115.987H173.449L87.942 30.48C87.941 30.479 87.94 30.478 87.939 30.477C87.938 30.476 87.937 30.475 87.935 30.474L64.511 7.05C59.966 2.504 53.922 0 47.494 0C41.066 0 35.022 2.504 30.477 7.049L7.05 30.477C2.504 35.022 0 41.065 0 47.493C0 53.922 2.504 59.966 7.049 64.511L30.472 87.935C30.473 87.936 30.474 87.938 30.476 87.939C30.477 87.94 30.479 87.941 30.48 87.943L74.581 132.044C69.254 139.059 66.289 147.677 66.289 156.619V290.714C66.289 294.857 69.647 298.214 73.789 298.214C77.931 298.214 81.289 294.857 81.289 290.714V156.618C81.289 151.676 82.726 146.89 85.341 142.802L159.035 216.497C159.213 216.675 159.399 216.842 159.592 217C160.735 217.931 162.142 218.509 163.606 218.657C163.849 218.681 164.094 218.693 164.338 218.693H208.086L217.604 228.211C219.068 229.675 220.988 230.407 222.907 230.407C223.085 230.407 239.447 230.382 239.447 230.382C243.589 230.382 246.947 227.025 246.947 222.882C246.947 218.739 243.589 215.382 239.447 215.382H225.989L218.694 208.087V164.341C218.694 164.095 218.682 163.85 218.658 163.605C218.51 162.141 217.933 160.732 217 159.591C216.842 159.398 216.675 159.213 216.497 159.035L188.45 130.988H256.013C270.146 130.988 281.644 142.486 281.645 156.618V439.872C274.648 434.167 265.724 430.738 256.013 430.738H81.289V320.713C81.289 316.57 77.931 313.213 73.789 313.213C69.647 313.213 66.289 316.57 66.289 320.713V471.368C66.289 493.772 84.517 512 106.921 512H399.245C403.388 512 406.745 508.643 406.745 504.5C406.745 500.357 403.388 497 399.245 497H296.645L296.646 478.868H438.238C442.381 478.868 445.738 475.511 445.738 471.368C445.738 467.225 442.381 463.868 438.238 463.868H297.768C300.983 453.383 310.753 445.737 322.277 445.737H497V471.368C497 485.502 485.502 497 471.369 497H429.245C425.102 497 421.745 500.357 421.745 504.5C421.745 508.643 425.102 512 429.245 512H471.369C493.773 512 512 493.773 512 471.368V156.618C512 134.214 493.773 115.987 471.369 115.987V115.987ZM17.655 53.903C15.943 52.191 15 49.915 15 47.493C15 45.072 15.943 42.796 17.656 41.084L41.084 17.655C42.795 15.943 45.072 15 47.494 15C49.915 15 52.192 15.943 53.905 17.656L72.028 35.78L53.909 53.899C53.907 53.901 53.906 53.902 53.904 53.904C53.902 53.906 53.901 53.907 53.899 53.909L35.78 72.028L17.655 53.903ZM164.338 200.587L46.387 82.635L59.208 69.814L177.159 187.766L164.338 200.587ZM203.693 203.693H182.445L203.693 182.445V203.693ZM200.587 164.338L187.766 177.159L69.815 59.207L82.636 46.387L165.029 128.779L165.05 128.8L200.587 164.338ZM281.645 497H106.921C92.788 497 81.289 485.502 81.289 471.368V445.737H256.013C267.537 445.737 277.307 453.383 280.522 463.868H140.052C135.91 463.868 132.552 467.225 132.552 471.368C132.552 475.511 135.91 478.868 140.052 478.868H281.644V497H281.645ZM497 430.737H322.276C312.565 430.737 303.642 434.166 296.644 439.871L296.645 156.617C296.645 142.484 308.143 130.987 322.276 130.987H471.369C485.502 130.987 497 142.485 497 156.618V430.737Z"/>
<path d="M371.974 180.685H421.671C425.814 180.685 429.171 177.328 429.171 173.185C429.171 169.042 425.814 165.685 421.671 165.685H371.974C367.831 165.685 364.474 169.042 364.474 173.185C364.474 177.327 367.831 180.685 371.974 180.685Z"/>
<path d="M454.803 215.382H338.842C334.699 215.382 331.342 218.739 331.342 222.882C331.342 227.025 334.699 230.382 338.842 230.382H454.803C458.946 230.382 462.303 227.025 462.303 222.882C462.303 218.739 458.945 215.382 454.803 215.382Z"/>
<path d="M454.803 248.513H338.842C334.699 248.513 331.342 251.87 331.342 256.013C331.342 260.156 334.699 263.513 338.842 263.513H454.803C458.946 263.513 462.303 260.156 462.303 256.013C462.303 251.87 458.945 248.513 454.803 248.513V248.513Z"/>
<path d="M454.803 281.645H338.842C334.699 281.645 331.342 285.003 331.342 289.145C331.342 293.288 334.699 296.645 338.842 296.645H454.803C458.946 296.645 462.303 293.288 462.303 289.145C462.303 285.002 458.945 281.645 454.803 281.645Z"/>
<path d="M454.803 314.776H338.842C334.699 314.776 331.342 318.133 331.342 322.276C331.342 326.419 334.699 329.776 338.842 329.776H454.803C458.946 329.776 462.303 326.419 462.303 322.276C462.303 318.134 458.945 314.776 454.803 314.776Z"/>
<path d="M454.803 347.908H355.408C351.265 347.908 347.908 351.265 347.908 355.408C347.908 359.551 351.265 362.908 355.408 362.908H454.803C458.946 362.908 462.303 359.551 462.303 355.408C462.303 351.265 458.945 347.908 454.803 347.908Z"/>
</svg>
