<svg width="511" height="511" viewBox="0 0 511 511" fill="cyan" xmlns="http://www.w3.org/2000/svg">
<g clip-path="url(#clip0)">
<path d="M201.383 229.652C198.826 229.652 196.272 228.674 194.323 226.728C190.428 222.83 190.428 216.51 194.323 212.611L250.783 156.152C254.681 152.257 261.001 152.257 264.9 156.152C268.794 160.05 268.794 166.37 264.9 170.268L208.44 226.728C206.491 228.678 203.937 229.652 201.383 229.652V229.652Z"/>
<path d="M173.173 257.878C167.66 257.878 163.189 253.41 163.189 247.898C163.189 242.389 167.652 237.917 173.165 237.917H173.173C178.686 237.917 183.153 242.389 183.153 247.898C183.153 253.41 178.686 257.878 173.173 257.878Z"/>
<path d="M508.883 160.916L464.381 103.906L486.178 35.2123C487.328 31.5905 486.33 27.6373 483.593 25.0018C480.86 22.3663 476.868 21.5203 473.293 22.7952L405.196 47.22L346.233 5.13052C343.137 2.9239 339.067 2.66659 335.714 4.46385C332.369 6.25722 330.334 9.80107 330.463 13.5944L332.907 85.6527L274.693 128.37C271.629 130.615 270.112 134.417 270.771 138.159C271.438 141.902 274.175 144.947 277.828 146.003L311.032 155.617L2.90446 465.012C-0.966872 468.903 -0.966872 475.203 2.90446 479.094L31.0408 507.347C32.9161 509.226 35.4619 510.283 38.1168 510.283C40.7718 510.283 43.3137 509.226 45.1928 507.347L356.892 194.362L370.385 234.642C371.582 238.233 374.728 240.841 378.478 241.36C378.938 241.418 379.398 241.449 379.847 241.449C383.122 241.449 386.225 239.843 388.1 237.087L428.65 177.434L501.078 177.036C504.883 177.013 508.345 174.83 510.002 171.407C511.659 167.984 511.23 163.91 508.883 160.916V160.916ZM38.1168 486.158L24.0623 472.049L332.899 161.945L347.441 166.155L349.796 173.181L38.1168 486.158ZM423.293 157.504C420.006 157.524 416.946 159.161 415.098 161.875L382.923 209.2L370.697 172.724L364.708 154.849C363.667 151.742 361.164 149.348 358.018 148.44L332.771 141.134L302.849 132.471L348.966 98.6273C351.621 96.6819 353.149 93.5396 353.028 90.2452L351.094 33.1265L397.851 66.5026C400.517 68.4052 403.94 68.8769 407.024 67.7775L461.059 48.3974L443.761 102.888C442.763 106.023 443.383 109.458 445.41 112.05L480.649 157.192L423.293 157.504Z"/>
<path d="M153.192 140.725C148.998 140.725 145.247 138.101 143.816 134.155L129.426 94.6272L89.8944 80.2374C85.9529 78.8027 83.3291 75.0562 83.3291 70.8612C83.3291 66.6624 85.9529 62.9158 89.8944 61.4812L129.423 47.0913L143.812 7.5632C145.247 3.6217 148.994 0.997925 153.192 0.997925C157.387 0.997925 161.134 3.6217 162.569 7.5632L176.958 47.0913L216.487 61.4812C220.428 62.9158 223.052 66.6624 223.052 70.8612C223.052 75.0562 220.428 78.8027 216.487 80.2374L176.958 94.6272L162.569 134.155C161.134 138.101 157.387 140.725 153.192 140.725ZM122.487 70.8612L140.627 77.4616C143.399 78.4713 145.582 80.6546 146.592 83.4265L153.192 101.567L159.797 83.4265C160.806 80.6546 162.99 78.4713 165.762 77.4616L183.902 70.8612L165.762 64.257C162.99 63.2472 160.806 61.064 159.797 58.2921L153.192 40.1518L146.592 58.2921C145.582 61.064 143.399 63.2472 140.627 64.257L122.487 70.8612Z"/>
<path d="M440.704 422.77C436.509 422.77 432.759 420.147 431.328 416.205L416.934 376.673L377.406 362.283C373.465 360.849 370.841 357.102 370.841 352.907C370.841 348.712 373.465 344.966 377.406 343.531L416.934 329.141L431.328 289.613C432.763 285.667 436.509 283.044 440.704 283.044C444.899 283.044 448.646 285.667 450.08 289.613L464.47 329.141L503.998 343.531C507.944 344.966 510.567 348.712 510.567 352.907C510.567 357.102 507.944 360.852 503.998 362.283L464.47 376.673L450.08 416.205C448.646 420.147 444.899 422.77 440.704 422.77V422.77ZM409.999 352.907L428.135 359.507C430.907 360.517 433.09 362.7 434.1 365.472L440.704 383.613L447.308 365.472C448.318 362.7 450.501 360.517 453.273 359.507L471.414 352.907L453.273 346.303C450.501 345.293 448.318 343.11 447.308 340.338L440.704 322.198L434.1 340.338C433.09 343.11 430.911 345.293 428.135 346.303L409.999 352.907Z"/>
</g>
<defs>
<clipPath id="clip0">
<rect width="511" height="511" fill="white"/>
</clipPath>
</defs>
</svg>
