<svg height="511pt" viewBox="0 0 511.99977 511" width="511pt" xmlns="http://www.w3.org/2000/svg"><path d="m201.777344 229.601562c-2.5625 0-5.121094-.980468-7.074219-2.929687-3.902344-3.90625-3.902344-10.238281 0-14.144531l56.570313-56.570313c3.90625-3.902343 10.238281-3.902343 14.144531 0 3.902343 3.90625 3.902343 10.238281 0 14.144531l-56.570313 56.570313c-1.953125 1.953125-4.511718 2.929687-7.070312 2.929687zm0 0"/><path d="m173.511719 257.882812c-5.523438 0-10.003907-4.476562-10.003907-10 0-5.519531 4.472657-10 9.996094-10h.007813c5.523437 0 10 4.480469 10 10 0 5.523438-4.476563 10-10 10zm0 0"/><path d="m509.878906 160.730469-44.589844-57.121094 21.839844-68.828125c1.152344-3.628906.152344-7.589844-2.589844-10.230469-2.738281-2.640625-6.738281-3.488281-10.320312-2.210937l-68.230469 24.472656-59.078125-42.171875c-3.101562-2.210937-7.179687-2.46875-10.539062-.667969-3.351563 1.796875-5.390625 5.347656-5.261719 9.148438l2.449219 72.199218-58.328125 42.800782c-3.070313 2.25-4.589844 6.058594-3.929688 9.808594.667969 3.75 3.410157 6.800781 7.070313 7.859374l33.269531 9.632813-308.730469 310c-3.878906 3.898437-3.878906 10.210937 0 14.109375l28.191406 28.308594c1.878907 1.882812 4.429688 2.941406 7.089844 2.941406s5.207032-1.058594 7.089844-2.941406l312.308594-313.597656 13.519531 40.359374c1.199219 3.597657 4.351563 6.210938 8.109375 6.730469.460938.058594.921875.089844 1.371094.089844 3.28125 0 6.390625-1.609375 8.269531-4.371094l40.628906-59.769531 72.570313-.398438c3.8125-.023437 7.28125-2.210937 8.941406-5.640624 1.660156-3.429688 1.230469-7.511719-1.121094-10.511719zm-471.6875 325.878906-14.082031-14.136719 309.441406-310.710937 14.570313 4.21875 2.359375 7.039062zm385.929688-329.296875c-3.292969.019531-6.359375 1.660156-8.210938 4.378906l-32.238281 47.417969-12.25-36.546875-6-17.910156c-1.042969-3.113282-3.550781-5.511719-6.703125-6.421875l-25.296875-7.320313-29.980469-8.679687 46.207032-33.910157c2.660156-1.949218 4.191406-5.097656 4.070312-8.398437l-1.9375-57.230469 46.847656 33.441406c2.671875 1.90625 6.101563 2.378907 9.191406 1.277344l54.140626-19.417968-17.332032 54.597656c-1 3.140625-.378906 6.582031 1.652344 9.179687l35.308594 45.230469zm0 0"/><path d="m153.492188 140.5c-4.203126 0-7.960938-2.628906-9.394532-6.582031l-14.417968-39.605469-39.609376-14.417969c-3.949218-1.4375-6.578124-5.191406-6.578124-9.394531 0-4.207031 2.628906-7.960938 6.578124-9.398438l39.605469-14.417968 14.417969-39.605469c1.4375-3.949219 5.191406-6.578125 9.398438-6.578125 4.203124 0 7.957031 2.628906 9.394531 6.578125l14.417969 39.605469 39.605468 14.417968c3.949219 1.4375 6.578125 5.191407 6.578125 9.398438 0 4.203125-2.628906 7.957031-6.578125 9.394531l-39.605468 14.417969-14.417969 39.605469c-1.4375 3.953125-5.191407 6.582031-9.394531 6.582031zm-30.765626-70 18.175782 6.613281c2.777344 1.011719 4.964844 3.199219 5.976562 5.976563l6.613282 18.175781 6.617187-18.175781c1.011719-2.777344 3.199219-4.964844 5.976563-5.976563l18.175781-6.613281-18.175781-6.617188c-2.777344-1.011718-4.964844-3.199218-5.976563-5.976562l-6.617187-18.175781-6.613282 18.175781c-1.011718 2.777344-3.199218 4.964844-5.976562 5.976562zm0 0"/><path d="m441.566406 423.097656c-4.203125 0-7.960937-2.628906-9.394531-6.578125l-14.421875-39.609375-39.605469-14.417968c-3.949219-1.4375-6.578125-5.191407-6.578125-9.394532s2.628906-7.957031 6.578125-9.394531l39.605469-14.417969 14.421875-39.605468c1.4375-3.953126 5.191406-6.582032 9.394531-6.582032s7.957032 2.628906 9.394532 6.582032l14.417968 39.605468 39.605469 14.417969c3.953125 1.4375 6.582031 5.191406 6.582031 9.394531s-2.628906 7.960938-6.582031 9.394532l-39.605469 14.417968-14.417968 39.609375c-1.4375 3.949219-5.191407 6.578125-9.394532 6.578125zm-30.765625-70 18.171875 6.613282c2.777344 1.011718 4.964844 3.199218 5.976563 5.976562l6.617187 18.175781 6.617188-18.175781c1.011718-2.777344 3.199218-4.964844 5.976562-5.976562l18.175782-6.613282-18.175782-6.617187c-2.777344-1.011719-4.964844-3.199219-5.976562-5.976563l-6.617188-18.175781-6.617187 18.175781c-1.011719 2.777344-3.195313 4.964844-5.976563 5.976563zm0 0"/></svg>