<svg width="512" height="512" viewBox="0 0 512 512" fill="#6959CC" xmlns="http://www.w3.org/2000/svg">
<g clip-path="url(#clip0)">
<path d="M109.681 215.957L60.5643 346.969V346.979C72.5836 394.996 99.002 437.443 136.4 469.462L198.026 446.353C132.569 387.726 100.261 301.491 109.681 215.957V215.957Z"/>
<path d="M43.9353 391.316L6.28763 491.7C1.7879 503.689 13.5172 515.549 25.5965 511.009L105.022 481.231C78.3813 455.374 57.7155 424.56 43.9353 391.316Z"/>
<path d="M214.975 203.738L158.988 147.751C113.595 250.147 144.628 367.185 230.274 434.264L290.03 411.855C237.55 357.658 209.164 282.01 214.975 203.738V203.738Z"/>
<path d="M244.263 233.026C246.563 296.672 274.281 356.818 321.179 400.166H321.189L364.986 383.747C375.215 379.907 378.015 366.778 370.326 359.088L244.263 233.026Z"/>
<path d="M353.815 280.148C359.672 286.006 369.169 286.006 375.026 280.148C431.455 223.719 486.401 241.165 486.95 241.347C494.808 243.966 503.303 239.719 505.922 231.861C508.543 224.004 504.295 215.508 496.436 212.888C493.478 211.903 423.208 189.543 353.816 258.936C347.957 264.793 347.956 274.291 353.815 280.148V280.148Z"/>
<path d="M258.362 163.48C327.758 94.0943 305.39 23.8186 304.41 20.8587C301.79 12.9992 293.29 8.75948 285.431 11.3793C277.581 13.9992 273.331 22.4886 275.951 30.3482C276.131 30.8981 293.58 85.8448 237.144 142.271C231.323 148.092 231.264 157.582 237.144 163.48C243.032 169.368 252.521 169.322 258.362 163.48V163.48Z"/>
<path d="M290.178 195.301C284.321 201.159 284.321 210.655 290.178 216.513C295.982 222.318 305.413 222.394 311.301 216.602C319.05 212.741 343.1 227.222 356.466 213.861C369.689 200.638 355.64 177.076 359.149 168.819C367.418 165.301 390.97 179.356 404.193 166.135C417.418 152.912 403.369 129.35 406.877 121.092C415.158 117.573 438.697 131.63 451.92 118.408C465.145 105.185 451.096 81.6231 454.604 73.3646C462.836 69.8638 486.435 83.8889 499.649 70.6797C513.009 57.3175 498.555 33.224 502.388 25.5155C508.157 19.6518 508.126 10.2214 502.299 4.39275C496.442 -1.4649 486.945 -1.4649 481.087 4.39275C469.265 16.215 471.577 32.905 473.804 44.8373C461.872 42.6104 445.183 40.2976 433.361 52.1189C421.538 63.9411 423.851 80.6311 426.078 92.5634C414.146 90.3375 397.455 88.0227 385.634 99.846C373.811 111.668 376.125 128.358 378.352 140.291C366.418 138.064 349.729 135.75 337.908 147.572C326.085 159.394 328.398 176.084 330.625 188.017C318.692 185.792 302 183.479 290.178 195.301Z"/>
<path d="M375.026 68.0289C380.884 62.1713 380.884 52.6748 375.026 46.8172C369.169 40.9595 359.672 40.9595 353.815 46.8172C347.957 52.6748 347.957 62.1713 353.815 68.0289C359.672 73.8865 369.169 73.8865 375.026 68.0289Z"/>
<path d="M470.48 178.482C478.763 178.482 485.479 171.767 485.479 163.483C485.479 155.199 478.763 148.484 470.48 148.484C462.196 148.484 455.48 155.199 455.48 163.483C455.48 171.767 462.196 178.482 470.48 178.482Z"/>
<path d="M438.661 301.361C432.804 307.218 432.804 316.715 438.661 322.572C444.519 328.43 454.016 328.43 459.873 322.572C465.731 316.715 465.731 307.218 459.873 301.361C454.017 295.503 444.519 295.503 438.661 301.361Z"/>
<path d="M226.542 89.2406C232.4 83.383 232.4 73.8865 226.542 68.0289C220.685 62.1712 211.188 62.1712 205.331 68.0289C199.473 73.8855 199.473 83.383 205.331 89.2406C211.188 95.0982 220.686 95.0982 226.542 89.2406V89.2406Z"/>
</g>
<defs>
<clipPath id="clip0">
<rect width="512" height="512" fill="white"/>
</clipPath>
</defs>
</svg>
