<svg width="512" height="512" viewBox="0 0 512 512" fill="#6959CC" xmlns="http://www.w3.org/2000/svg">
<path d="M498.848 45.857C486.453 29.425 467.539 20 446.955 20H438.241V15C438.241 6.716 431.525 0 423.241 0C414.957 0 408.241 6.716 408.241 15V55C408.241 63.284 414.957 70 423.241 70C431.525 70 438.241 63.284 438.241 55V50H446.955C458.038 50 468.223 55.075 474.897 63.923C481.571 72.771 483.653 83.958 480.608 94.615L440.796 233.957C429.687 272.842 393.683 300 353.242 300C312.801 300 276.797 272.842 265.687 233.958L225.875 94.615C222.83 83.958 224.912 72.771 231.586 63.923C238.26 55.075 248.445 50 259.528 50H268.241V55C268.241 63.284 274.957 70 283.241 70C291.525 70 298.241 63.284 298.241 55V15C298.241 6.716 291.525 0 283.241 0C274.957 0 268.241 6.716 268.241 15V20H259.528C238.945 20 220.03 29.425 207.635 45.857C195.239 62.29 191.374 83.065 197.029 102.856L236.841 242.198C244.127 267.698 259.169 289.617 280.34 305.588C284.884 309.015 289.623 312.073 294.511 314.798L338.255 418.046V428.872C338.255 458.167 314.422 482 285.127 482C255.832 482 232 458.167 232 428.872V326C232 278.58 193.42 240 146 240C98.58 240 60 278.58 60 326V361.509C25.808 368.478 0 398.781 0 435C0 476.355 33.645 510 75 510C116.355 510 150 476.355 150 435C150 398.781 124.192 368.478 90 361.509V326C90 295.122 115.122 270 146 270C176.878 270 202 295.122 202 326V428.872C202 474.709 239.291 512 285.128 512C330.965 512 368.256 474.709 368.256 428.872V418.046L412.009 314.777C416.884 312.057 421.611 309.006 426.143 305.588C447.315 289.618 462.357 267.698 469.643 242.198L509.455 102.856C515.109 83.065 511.243 62.29 498.848 45.857V45.857ZM75 450C66.716 450 60 443.284 60 435C60 426.716 66.716 420 75 420C83.284 420 90 426.716 90 435C90 443.284 83.284 450 75 450ZM353.256 376.549L332.805 328.278C339.497 329.411 346.323 329.999 353.242 329.999C360.171 329.999 367.008 329.408 373.709 328.272L353.256 376.549Z"/>
</svg>
