<svg width="513" height="513" fill="#6959CC" viewBox="0 0 513 513" xmlns="http://www.w3.org/2000/svg">
<g clip-path="url(#clip0)">
<path d="M255.999 128.005C291.345 128.005 319.999 99.3512 319.999 64.005C319.999 28.6588 291.345 0.00500488 255.999 0.00500488C220.653 0.00500488 191.999 28.6588 191.999 64.005C191.999 99.3512 220.653 128.005 255.999 128.005Z"/>
<path d="M351.871 301.957L337.343 188.805C335.711 172.389 322.015 160.005 305.535 160.005H287.999C283.743 160.005 279.679 161.701 276.671 164.677L255.999 185.349L235.327 164.677C232.319 161.701 228.255 160.005 223.999 160.005H206.495C189.983 160.005 176.287 172.389 174.687 188.389L160.127 301.989C159.551 306.533 160.959 311.141 163.999 314.565C167.039 318.021 171.391 320.005 175.999 320.005H193.279L206.655 483.205C208.255 499.589 221.983 512.005 238.495 512.005H273.535C290.047 512.005 303.743 499.589 305.407 482.917L318.751 320.005H335.999C340.607 320.005 344.959 318.021 347.999 314.565C351.071 311.141 352.479 306.533 351.871 301.957Z"/>
<path d="M415.999 128.005C451.345 128.005 479.999 99.3512 479.999 64.005C479.999 28.6588 451.345 0.00500488 415.999 0.00500488C380.653 0.00500488 351.999 28.6588 351.999 64.005C351.999 99.3512 380.653 128.005 415.999 128.005Z"/>
<path d="M95.999 0.00500488C60.703 0.00500488 31.999 28.709 31.999 64.005C31.999 99.301 60.703 128.005 95.999 128.005C131.263 128.005 159.999 99.301 159.999 64.005C159.999 28.709 131.263 0.00500488 95.999 0.00500488Z" />
<path d="M511.871 301.957L497.343 188.837C495.711 172.389 482.047 160.005 465.535 160.005H447.999C443.743 160.005 439.679 161.701 436.671 164.677L415.999 185.349L395.327 164.677C392.319 161.701 388.255 160.005 384.031 160.005H366.495C364.511 160.005 362.719 160.709 360.831 161.061C364.959 168.357 368.191 176.261 369.151 185.125L383.647 297.893C385.439 311.621 381.151 325.445 371.935 335.845C367.583 340.837 362.015 344.357 356.063 347.109L366.687 451.205C368.319 467.621 382.015 480.005 398.527 480.005H433.567C450.079 480.005 463.775 467.589 465.439 450.917L478.751 320.005H495.999C500.607 320.005 504.959 318.021 507.999 314.565C511.071 311.141 512.479 306.533 511.871 301.957Z"/>
<path d="M139.967 335.685C130.879 325.413 126.655 311.621 128.383 297.957L142.943 184.325C143.775 175.813 146.911 168.133 150.911 161.029C149.119 160.709 147.423 160.005 145.535 160.005H127.999C123.743 160.005 119.679 161.701 116.671 164.677L95.999 185.349L75.327 164.677C72.319 161.701 68.255 160.005 64.031 160.005H46.494C29.982 160.005 16.286 172.389 14.686 188.389L0.125999 301.989C-0.450001 306.533 0.957999 311.141 3.998 314.565C7.038 318.021 11.422 320.005 15.998 320.005H33.278L46.654 451.205C48.254 467.589 61.982 480.005 78.494 480.005H113.534C130.046 480.005 143.742 467.589 145.406 450.917L156.03 347.077C150.047 344.293 144.447 340.741 139.967 335.685Z"/>
</g>
<defs>
<clipPath id="clip0">
<rect width="512.009" height="512.009" fill="white"/>
</clipPath>
</defs>
</svg>
