<svg id="regular" enable-background="new 0 0 24 24" height="512" viewBox="0 0 24 24" width="512" xmlns="http://www.w3.org/2000/svg"><g><path d="m6.75 20c-.163 0-.328-.053-.465-.162-.325-.257-.379-.729-.122-1.054l.818-1.032c.69-.829.823-1.968.349-2.917-.145-.289-.088-.638.141-.866l1.81-1.81c.582-.582.634-1.496.157-2.138l-5.178 4.779c-.304.28-.779.262-1.06-.042-.281-.305-.262-.779.042-1.06l5.367-4.954c.495-.457 1.255-.44 1.731.036.593.593.919 1.381.919 2.22s-.327 1.627-.919 2.22l-1.455 1.455c.469 1.365.2 2.894-.741 4.022l-.807 1.018c-.148.188-.366.285-.587.285z"/></g><g><path d="m9.25 24h-8.5c-.414 0-.75-.336-.75-.75v-7.938c0-2.062.924-3.984 2.536-5.273l2.346-1.875c.324-.258.796-.207 1.054.118.258.324.206.795-.118 1.054l-2.346 1.875c-1.253 1.002-1.972 2.497-1.972 4.101v7.188h7v-1.248c0-.414.336-.75.75-.75.965 0 1.75-.785 1.75-1.75v-.502c0-.414.336-.75.75-.75s.75.336.75.75v.502c0 1.534-1.068 2.823-2.5 3.163v1.335c0 .414-.336.75-.75.75z"/></g><g><path d="m20.25 19h-12.5c-.414 0-.75-.336-.75-.75s.336-.75.75-.75h12.5c.136 0 .25-.114.25-.25v-15.5c0-.136-.114-.25-.25-.25h-13.5c-.136 0-.25.114-.25.25v10.25c0 .414-.336.75-.75.75s-.75-.336-.75-.75v-10.25c0-.965.785-1.75 1.75-1.75h13.5c.965 0 1.75.785 1.75 1.75v15.5c0 .965-.785 1.75-1.75 1.75z"/></g></svg>