<svg width="512" height="512" viewBox="0 0 512 512" fill="black" xmlns="http://www.w3.org/2000/svg">
<g clip-path="url(#clip0)">
<path d="M144 426.667C140.523 426.667 137.003 425.536 134.08 423.211C127.147 417.728 125.995 407.659 131.477 400.725L148.928 378.709C163.648 361.024 166.485 336.725 156.373 316.48C153.28 310.315 154.496 302.869 159.381 298.005L197.995 259.392C210.411 246.976 211.52 227.477 201.344 213.781L90.88 315.733C84.3947 321.707 74.2613 321.323 68.2667 314.837C62.272 308.331 62.6773 298.219 69.1627 292.224L183.659 186.539C194.219 176.789 210.432 177.152 220.587 187.307C233.237 199.957 240.192 216.768 240.192 234.667C240.192 252.565 233.216 269.376 220.587 282.027L189.547 313.067C199.552 342.187 193.813 374.805 173.739 398.869L156.523 420.587C153.365 424.597 148.715 426.667 144 426.667V426.667Z"/>
<path d="M197.333 512H16C7.168 512 0 504.832 0 496V326.656C0 282.667 19.712 241.664 54.1013 214.165L104.149 174.165C111.061 168.661 121.131 169.749 126.635 176.683C132.139 183.595 131.029 193.643 124.117 199.168L74.0693 239.168C47.3387 260.544 32 292.437 32 326.656V480H181.333V453.376C181.333 444.544 188.501 437.376 197.333 437.376C217.92 437.376 234.667 420.629 234.667 400.043V389.333C234.667 380.501 241.835 373.333 250.667 373.333C259.499 373.333 266.667 380.501 266.667 389.333V400.043C266.667 432.768 243.883 460.267 213.333 467.52V496C213.333 504.832 206.165 512 197.333 512Z"/>
<path d="M432 405.333H165.333C156.501 405.333 149.333 398.165 149.333 389.333C149.333 380.501 156.501 373.333 165.333 373.333H432C434.901 373.333 437.333 370.901 437.333 368V37.3333C437.333 34.432 434.901 32 432 32H144C141.099 32 138.667 34.432 138.667 37.3333V256C138.667 264.832 131.499 272 122.667 272C113.835 272 106.667 264.832 106.667 256V37.3333C106.667 16.7467 123.413 0 144 0H432C452.587 0 469.333 16.7467 469.333 37.3333V368C469.333 388.587 452.587 405.333 432 405.333Z"/>
</g>
<defs>
<clipPath id="clip0">
<rect width="512" height="512" fill="white"/>
</clipPath>
</defs>
</svg>
