<svg width="512" height="512" viewBox="0 0 512 512" fill="orange" xmlns="http://www.w3.org/2000/svg">
<path d="M426.667 102.99V58.066C439.358 50.667 448 37.059 448 21.333V10.667C448 4.771 443.229 0 437.333 0H74.667C68.771 0 64 4.771 64 10.667V21.334C64 37.059 72.642 50.667 85.333 58.067V102.99C85.333 145.261 103.354 185.719 134.771 213.99L181.448 256L134.771 298.01C103.354 326.281 85.333 366.739 85.333 409.01V453.933C72.642 461.333 64 474.941 64 490.667V501.334C64 507.229 68.771 512 74.667 512H437.334C443.23 512 448.001 507.229 448.001 501.333V490.666C448.001 474.941 439.359 461.333 426.668 453.933V409.01C426.668 366.739 408.647 326.281 377.23 298.01L330.552 256L377.229 213.99C408.646 185.719 426.667 145.26 426.667 102.99ZM348.688 182.281L284.396 240.146C279.896 244.188 277.333 249.948 277.333 256C277.333 262.052 279.896 267.813 284.396 271.854L348.688 329.719C371.125 349.917 384 378.823 384 409.01V448H357.328L264.531 324.271C260.51 318.896 251.489 318.896 247.468 324.271L154.672 448H128V409.01C128 378.822 140.875 349.916 163.313 329.718L227.605 271.853C232.105 267.811 234.668 262.051 234.668 255.999C234.668 249.947 232.105 244.186 227.605 240.145L163.313 182.28C140.875 162.083 128 133.177 128 102.99V64H384V102.99C384 133.177 371.125 162.083 348.688 182.281Z"/>
<path d="M329.521 149.333H182.469C178.25 149.333 174.427 151.823 172.719 155.677C171.011 159.542 171.729 164.042 174.573 167.167L248.844 235.688C250.875 237.532 253.438 238.448 256 238.448C258.562 238.448 261.125 237.531 263.156 235.688L337.416 167.167C340.26 164.042 340.979 159.542 339.27 155.677C337.563 151.823 333.74 149.333 329.521 149.333Z"/>
</svg>
