<svg width="512" height="512" viewBox="0 0 512 512" fill="orange" xmlns="http://www.w3.org/2000/svg">
<g clip-path="url(#clip0)">
<path d="M130 414H10C4.478 414 0 418.478 0 424V502C0 507.522 4.478 512 10 512H130C135.522 512 140 507.522 140 502V424C140 418.478 135.522 414 130 414ZM120 492H20V434H120V492Z"/>
<path d="M316 380H196C190.478 380 186 384.478 186 390V502C186 507.522 190.478 512 196 512H316C321.522 512 326 507.522 326 502V390C326 384.478 321.522 380 316 380ZM306 492H206V400H306V492Z"/>
<path d="M502 348H414.651C415.199 347.002 415.702 345.971 416.155 344.91C419.753 336.486 419.855 327.165 416.443 318.665L384.143 238.194C381.313 231.143 376.138 225.156 369.574 221.334L338.015 202.958C338.028 202.748 338.047 202.54 338.047 202.326V133.943C377.527 128.009 413.264 109.931 441.871 81.325L442.549 80.646C455.13 68.064 455.13 47.591 442.549 35.011C436.454 28.915 428.351 25.558 419.731 25.558C411.112 25.558 403.008 28.915 396.913 35.01L396.235 35.688C376.595 55.328 351.454 67.465 324.286 70.671C327.736 64.64 329.719 57.668 329.719 50.236V41.295C329.719 18.524 311.194 0 288.424 0C265.654 0 247.129 18.524 247.129 41.295V50.236C247.129 58.021 249.297 65.309 253.057 71.531H251.63C201.705 71.531 154.768 90.973 119.463 126.276L118.785 126.955C106.204 139.537 106.204 160.01 118.785 172.591C131.367 185.173 151.84 185.173 164.422 172.591L165.1 171.913C181.373 155.638 201.31 144.515 223.288 139.35V202.327C223.288 204.556 224.027 206.609 225.261 208.272L195.854 267.977L122.636 302.718C114.36 306.646 108.109 313.56 105.033 322.189C101.957 330.818 102.427 340.127 106.353 348.402C112.001 360.308 124.169 368.002 137.353 368.002C142.459 368.002 147.4 366.886 152.038 364.685L195.383 344.118C200.372 341.751 202.498 335.787 200.13 330.797C197.763 325.808 191.801 323.68 186.809 326.05L143.464 346.617C141.526 347.537 139.471 348.003 137.354 348.003C131.854 348.003 126.779 344.795 124.423 339.83C122.786 336.381 122.591 332.501 123.872 328.904C125.154 325.308 127.76 322.426 131.21 320.789L207.573 284.555C209.61 283.589 211.261 281.962 212.257 279.94L245.558 212.33H314.359L359.512 238.621C362.248 240.215 364.405 242.71 365.584 245.648L397.884 326.119C399.306 329.662 399.264 333.547 397.764 337.057C396.264 340.569 393.488 343.286 389.943 344.708C388.235 345.394 386.444 345.742 384.628 345.743C378.754 345.743 373.544 342.22 371.356 336.767L342.165 264.042C341.206 261.652 339.363 259.726 337.019 258.661L286.887 235.896C282.546 233.925 277.423 235.291 274.638 239.157L249.943 273.438C246.715 277.918 247.731 284.168 252.213 287.397C256.695 290.625 262.944 289.609 266.172 285.127L286.078 257.493L325.099 275.213L352.796 344.215C356.396 353.185 363.406 359.975 372.003 363.357V502C372.003 507.522 376.481 512 382.003 512H502.003C507.525 512 512.003 507.522 512.003 502V358C512 352.478 507.522 348 502 348V348ZM267.129 50.236V41.295C267.129 29.553 276.682 20 288.424 20C300.166 20 309.719 29.553 309.719 41.295V50.236C309.719 61.978 300.166 71.531 288.424 71.531C276.682 71.531 267.129 61.979 267.129 50.236ZM243.287 192.326V127.332C243.287 124.441 242.036 121.693 239.858 119.794C237.679 117.895 234.789 117.032 231.921 117.426C201.1 121.672 173.103 135.623 150.956 157.771L150.278 158.449C145.495 163.234 137.71 163.234 132.926 158.449C128.142 153.666 128.142 145.882 132.926 141.097L133.604 140.419C165.13 108.894 207.045 91.531 251.628 91.531H309.702C347.732 91.531 383.485 76.721 410.375 49.831L411.053 49.153C413.37 46.836 416.451 45.558 419.729 45.558C423.007 45.558 426.087 46.834 428.405 49.152V49.153C433.189 53.936 433.189 61.72 428.405 66.505L427.727 67.183C400.257 94.653 365.435 111.25 327.027 115.181C321.925 115.703 318.046 120 318.046 125.129V192.326H243.287ZM492 492H392V368H492V492Z"/>
<path d="M238.83 322.859C240.689 321 241.75 318.42 241.75 315.79C241.75 313.16 240.689 310.58 238.83 308.72C236.96 306.86 234.39 305.79 231.76 305.79C229.13 305.79 226.55 306.859 224.68 308.72C222.82 310.58 221.76 313.16 221.76 315.79C221.76 318.42 222.82 321 224.68 322.859C226.55 324.719 229.12 325.79 231.76 325.79C234.39 325.79 236.96 324.72 238.83 322.859Z"/>
</g>
<defs>
<clipPath id="clip0">
<rect width="512" height="512" fill="white"/>
</clipPath>
</defs>
</svg>
