<svg width="352" height="352" viewBox="0 0 352 352" fill="#6959CC" xmlns="http://www.w3.org/2000/svg">
<g clip-path="url(#clip0)">
<path d="M286.66 0H256.38V102.48C256.38 109.68 249.1 113.24 243.46 104.2L223.46 72.2L203.46 104.2C197.78 113.2 190.54 109.68 190.54 102.48V0H89.02C64.479 0.066 44.62 19.979 44.62 44.52V307.32C44.686 331.814 64.526 351.654 89.02 351.72H286.7C292.106 351.711 297.287 349.553 301.1 345.72C304.933 341.907 307.091 336.726 307.1 331.32V20.44C307.078 9.16 297.94 0.022 286.66 0ZM290.46 298.92L97.58 299.16C93.376 299.45 90.031 302.796 89.741 306.999C89.42 311.649 92.93 315.679 97.58 316H290.46L290.42 331.52C290.422 332.445 290.063 333.335 289.42 334C288.755 334.643 287.865 335.002 286.94 335H89.02C73.832 335 61.52 322.688 61.52 307.5C61.52 292.312 73.832 280 89.02 280H286.94C288.875 280.022 290.438 281.585 290.46 283.52V298.92Z"/>
</g>
<defs>
<clipPath id="clip0">
<rect width="351.72" height="351.72" fill="white"/>
</clipPath>
</defs>
</svg>
