<svg width="304" height="86" viewBox="0 0 304 86" fill="none" xmlns="http://www.w3.org/2000/svg">
<path d="M184.948 84.8335C184.716 84.5222 184.526 83.7698 184.526 83.1616C184.526 81.889 186.521 74.5653 188.265 69.4396C188.92 67.514 189.456 65.8589 189.456 65.7616C189.456 65.6643 172.421 65.5845 151.6 65.5845C113.979 65.5845 113.744 65.58 113.744 64.6408C113.744 63.7031 113.979 63.6973 151.928 63.6973H190.112L193.622 54.1436C197.459 43.7 202.761 31.0622 204.021 29.3556C205.021 28.0007 206.009 28.3879 206.003 30.1328C205.999 30.8186 205.6 32.3125 205.114 33.4524C204.628 34.5924 204.296 35.6135 204.376 35.7215C204.457 35.8295 205.132 35.4806 205.876 34.9462C208.761 32.8745 211.289 34.3992 211.289 38.211C211.289 44.5179 205.84 55.4818 201.298 58.3155C199.229 59.606 197.798 59.7377 196.406 58.7655L195.434 58.0858L194.377 60.8915L193.319 63.6973H216.165H239.011L241.667 61.6922C244.128 59.8347 244.406 59.4632 245.444 56.6463L246.565 53.6055L245.39 54.8877C243.462 56.992 241.421 58.205 240.391 57.8588C238.136 57.1005 237.854 52.4102 239.739 47.0132C242.876 38.0317 248.263 31.157 252.172 31.1477C254.746 31.1433 255.662 33.1908 254.8 37.0284C254.465 38.5207 254.399 39.5957 254.61 40.1245C254.857 40.7429 254.343 42.2516 252.438 46.4957C249.74 52.5046 248.766 55.2051 249.295 55.2051C249.956 55.2051 254.843 48.3005 256.38 45.1945C257.996 41.9286 259.184 41.0209 259.178 43.0566C259.168 46.1367 254.023 54.3045 249.183 58.9223C247.654 60.3809 246.273 62.0519 246.113 62.6357L245.822 63.6973H271.87C297.683 63.6973 297.918 63.7061 297.918 64.6408C297.918 65.576 297.683 65.5845 271.535 65.5845H245.152L243.483 69.7126C239.442 79.7083 236.243 84.0071 232.872 83.9692C230.678 83.9445 229.598 82.2064 229.604 78.7076C229.611 74.99 231.507 70.9505 235.051 67.1044L236.452 65.5845H214.572H192.692L190.56 72.313C189.387 76.0138 188.177 79.991 187.872 81.1514C186.852 85.0238 185.944 86.1673 184.948 84.8335V84.8335ZM236.315 77.8748C237.463 76.2584 241.212 68.3397 241.798 66.2953C242.191 64.9223 240.62 65.5595 238.53 67.621C234.574 71.523 231.674 77.261 232.767 79.0253C233.558 80.3016 234.902 79.8658 236.315 77.8748ZM201.343 53.8194C203.99 51.2499 207.757 43.0185 207.764 39.7859C207.771 36.698 205.399 37.4891 202.517 41.5359C200.643 44.1672 196.677 53.4451 196.978 54.495C197.338 55.7534 199.732 55.3828 201.343 53.8194ZM245.163 51.5489C247.259 48.6608 248.63 45.8928 248.386 45.0419C248.278 44.6626 248.807 43.438 249.602 42.2276C253.18 36.7824 252.574 33.2099 248.737 37.1301C246.226 39.6963 242.467 47.1978 241.736 51.1037C241.101 54.4922 242.862 54.7209 245.163 51.5489ZM6.65564e-06 32.7923V0L26.6602 0.120782L53.3204 0.241766L54.8025 3.07253C58.0438 9.26278 59.053 13.1648 59.3784 20.7646C59.6456 27.0061 59.0588 30.64 56.788 36.8054C55.4432 40.4568 54.6128 41.9869 52.3071 45.0617C50.7505 47.1376 48.963 49.2187 48.3349 49.6863L47.193 50.5366L47.4002 46.3838C47.8224 37.9231 46.9091 33.4922 43.0705 25.3798C40.7695 20.5171 40.6858 19.6793 42.0565 15.2304C42.5546 13.6138 42.9621 11.622 42.9621 10.8042C42.9621 8.78779 41.8058 6.42821 39.7516 4.25276C36.8857 1.21784 34.6605 0.748617 33.093 2.84863C32.4763 3.67484 32.3977 4.43408 32.3977 9.56041V15.3406L29.4924 18.4065C27.8946 20.0927 26.4684 21.543 26.3231 21.6295C25.7047 21.9978 26.138 18.7275 27.1154 15.6502C28.7255 10.581 28.6185 9.82717 25.7563 6.07518C22.4232 1.70604 19.82 0.81597 17.8995 3.38889C17.2027 4.32246 17.1657 4.73742 17.3431 9.62809C17.4477 12.5096 17.459 15.1262 17.3684 15.4428C17.2778 15.7593 15.8228 17.4937 14.135 19.2969C10.1328 23.5728 8.04327 26.6108 6.75798 30.0227C4.97113 34.7661 4.57734 37.3135 4.58405 44.0858C4.59062 50.788 5.14785 55.3804 6.33139 58.4885C7.69102 62.0591 7.90693 60.951 8.12766 49.2694C8.4361 32.9458 9.19243 30.6548 17.3319 21.39L20.4018 17.8957L20.5013 12.6072C20.5944 7.65239 20.6471 7.30975 21.3366 7.17779C22.3169 6.99013 24.6504 10.4225 24.6504 12.0521C24.6504 12.7079 24.2542 14.5054 23.77 16.0467C22.3254 20.6452 22.4897 21.8011 25.7135 29.7164C28.1396 35.6732 28.5798 37.1093 28.8389 39.9122C29.2084 43.9079 28.7991 50.3166 27.6352 58.759C27.1557 62.2377 26.7633 65.1965 26.7633 65.3342C26.7633 65.4719 23.9867 65.5845 20.5931 65.5845C14.5238 65.5845 14.4178 65.5669 14.1039 64.523C13.6167 62.9026 13.0066 53.1403 12.7761 43.2754C12.6621 38.4007 12.456 34.3189 12.318 34.2047C11.7182 33.708 10.8623 35.9983 10.3587 39.4476C9.72212 43.8083 9.5649 52.2156 9.97364 60.041L10.2632 65.5845H5.13159H0L6.65564e-06 32.7923ZM30.9149 65.3279C30.8096 65.1869 30.9576 63.8258 31.2438 62.3035L31.7642 59.5356L35.5144 59.2442C41.8251 58.7539 44.8552 57.8587 48.5965 55.3795C51.4141 53.5123 52.4437 52.4864 55.1224 48.8763C58.5386 44.2724 60.2431 40.5874 61.8083 34.4218C64.5994 23.4278 63.4635 11.0603 58.7883 1.53922L58.0353 0.0059082H85.1854H112.335V32.7952V65.5845H71.7209C49.383 65.5845 31.0203 65.4691 30.9149 65.3279ZM174.842 60.6785C172.549 59.7069 171.24 58.6133 170.214 56.8108C168.389 53.6057 168.789 47.8587 171.019 45.2366C172.934 42.9847 176.105 42.1656 176.719 43.7643C177.188 44.9869 176.866 45.6903 175.371 46.7125C172.737 48.5125 171.886 51.4245 173.154 54.2991C175.416 59.4309 184.954 57.0516 186.792 50.8969C187.669 47.961 187.263 46.084 184.444 40.0378C180.73 32.0744 180.127 30.1334 180.14 26.1902C180.157 21.4281 181.591 17.5082 184.966 13.007C191.681 4.05243 201.001 0.866855 203.418 6.70051C205.157 10.9 201.689 18.5668 195.57 24.0498C191.266 27.9068 188.426 28.7694 187.863 26.3912C187.55 25.0703 188.403 23.902 190.442 22.859C194.951 20.5519 199.618 15.3587 200.425 11.7509C200.849 9.85798 200.829 9.74916 199.867 8.64102C198.558 7.1325 197.009 7.44352 192.977 10.0245C187.742 13.3761 183.892 19.6097 183.539 25.3058C183.33 28.6843 183.963 30.8864 187.058 37.5384C191.017 46.0509 191.558 48.6379 190.207 52.6104C188.12 58.7515 180.159 62.9315 174.842 60.6785ZM210.786 60.1253C210.109 59.2183 210.109 59.236 210.763 56.2874C212.263 49.52 215.261 41.5251 218.389 35.9518C219.444 34.0718 219.986 33.4833 220.56 33.5928C221.92 33.8523 221.668 35.5925 219.632 40.0034C217.048 45.599 216.219 47.8852 214.458 54.2616C212.693 60.6538 212.003 61.7556 210.786 60.1253H210.786ZM127.005 58.9821C126.063 57.4819 125.913 56.9786 125.547 54.0825L125.316 52.2521L124.411 54.0825C121.569 59.8305 118.668 61.4962 116.768 58.4713C115.581 56.58 115.377 55.3517 115.59 51.3596C115.73 48.7407 116.062 47.2672 117.202 44.2028C120.349 35.7474 125.148 31.4228 128.89 33.6696C129.3 33.9155 129.936 32.6017 131.654 27.9666C133.983 21.6831 138.119 12.0282 139.439 9.79553C139.956 8.92211 140.535 8.49814 141.213 8.49814C142.659 8.49814 142.881 9.91356 141.826 12.4001C141.36 13.4976 139.74 17.2616 138.226 20.7646C134.805 28.6777 130.706 39.8077 129.614 44.1449C129.146 46.0046 128.717 49.06 128.622 51.2127C128.464 54.7762 128.509 55.093 129.374 56.4705C130.385 58.0795 130.516 58.9659 129.872 59.8287C129.141 60.8091 127.928 60.4509 127.005 58.9821ZM121.035 54.0231C123.06 52.1231 128.711 38.0171 127.768 37.2163C125.738 35.4919 121.761 39.5709 119.689 45.5031C117.47 51.8573 118.228 56.6572 121.035 54.0231ZM136.03 59.144C134.722 58.7653 133.189 56.4682 132.908 54.4653C132.295 50.0875 134.084 44.2328 137.58 39.1734C140.362 35.1482 142.889 33.0419 144.943 33.0356C147.711 33.0268 148.22 35.3311 146.48 39.9957C145.033 43.8754 141.708 48.0106 138.624 49.7666C135.933 51.299 135.568 52.4956 137.25 54.2734C139.325 56.4675 142.859 54.4936 147.13 48.755C148.545 46.8535 149.833 45.2977 149.992 45.2977C150.576 45.2977 150.984 46.4983 150.714 47.4207C149.896 50.211 145.116 55.7899 141.803 57.8221C139.894 58.9931 137.446 59.5536 136.03 59.144ZM140.552 45.2547C142.952 42.9654 145.418 37.2772 144.011 37.2772C142.638 37.2772 139.471 41.2181 137.911 44.8673C137.402 46.0578 136.986 47.1752 136.986 47.3506C136.986 47.8081 139.303 46.4462 140.552 45.2547ZM222.653 58.7795C220.77 57.637 220.022 55.5212 220.197 51.8315C220.407 47.4027 221.864 43.4701 224.882 39.184C227.786 35.0594 230.228 33.0418 232.322 33.0356C238.35 33.018 232.389 46.8815 224.898 50.3012C223.15 51.0989 223.088 51.2265 223.585 52.9778C224.079 54.7207 225.819 55.4941 227.717 54.8142C229.908 54.029 231.627 52.449 234.496 48.5825C235.869 46.7317 237.191 45.3052 237.434 45.4125C238.929 46.072 237.189 49.9088 233.572 53.9271C229.595 58.3458 225.175 60.3099 222.653 58.7795ZM227.874 45.0281C229.503 43.4265 231.714 39.6118 231.714 38.4037C231.714 36.6389 229.736 37.5988 227.671 40.3665C226.547 41.872 224.33 46.4562 224.322 47.2911C224.317 47.8932 226.147 46.7268 227.874 45.0281ZM261.327 58.8596C259.332 57.8817 258.65 56.1579 258.674 52.1518C258.691 49.2361 258.875 48.2135 259.858 45.5378C261.253 41.7406 264.944 36.3242 267.447 34.4008C269.704 32.6664 271.91 32.532 272.719 34.0797C273.506 35.5856 273.405 36.7576 272.209 39.9625C270.744 43.8916 267.643 47.7458 264.31 49.7806C261.675 51.3898 261.673 51.3921 262.034 52.7817C262.757 55.5566 265.584 55.8465 268.651 53.46C269.501 52.7982 271.375 50.6786 272.815 48.7497C274.255 46.8207 275.619 45.3246 275.847 45.4249C277.412 46.1152 275.074 50.93 271.397 54.5854C267.378 58.5823 263.832 60.0872 261.327 58.8596ZM266.438 44.9913C268.169 43.2229 270.098 39.7424 270.098 38.3889C270.098 37.1068 269.74 37.0131 268.397 37.9437C266.579 39.2029 262.703 45.6462 262.703 47.4082C262.703 47.8895 265.154 46.3034 266.438 44.9913ZM278.809 58.8615C276.703 56.7192 277.675 50.8258 282.274 37.8528C287.597 22.8383 294.351 9.36754 298.192 6.10358C301.272 3.48679 303.52 4.81396 303.1 9.00182C302.68 13.206 298.526 22.5737 293.458 30.7487C292.226 32.7369 289.312 36.8091 286.984 39.7981C282.937 44.9923 282.711 45.3835 281.882 48.6502C280.756 53.0852 280.75 54.2616 281.85 54.2616C282.824 54.2616 285.027 51.2606 286.653 47.7198C287.708 45.4228 288.518 44.5681 289.146 45.088C289.742 45.5816 289.471 46.994 288.265 49.6764C284.919 57.1212 280.918 61.0074 278.809 58.8615H278.809ZM289.714 32.1943C296.123 22.494 301.639 9.44171 299.329 9.44171C297.647 9.44171 291.805 20.3517 287.739 31.088C285.185 37.8322 285.178 37.8611 286.394 36.6177C287.067 35.9302 288.561 33.9397 289.714 32.1943ZM33.923 53.4716L32.8072 53.2641L32.84 46.5681C32.8788 38.647 32.4441 36.3865 29.5876 29.6556C28.5861 27.2958 27.8975 25.2229 28.0573 25.0493C28.2172 24.8755 29.5365 23.5385 30.9891 22.0778C35.5638 17.4776 35.5254 17.5644 35.6423 11.5625C35.7265 7.23881 35.8368 6.36231 36.3124 6.24034C37.0367 6.05444 38.9558 8.20138 39.6324 9.95431C40.1185 11.2135 40.0733 11.5497 38.9155 15.297C38.2359 17.4964 37.6806 19.5733 37.6814 19.9124C37.6821 20.2515 38.7149 23.0765 39.9763 26.1903C43.6292 35.2077 43.8057 36.0042 43.7403 43.1747C43.6701 50.8746 43.4209 52.4413 42.1968 52.8799C40.9519 53.326 35.3093 53.7295 33.923 53.4716L33.923 53.4716ZM223.35 25.1701C222.677 24.8061 222.826 22.2374 223.62 20.5153C224.872 17.8014 226.904 16.6594 227.828 18.1505C228.501 19.2365 227.917 21.5599 226.454 23.6208C225.222 25.3559 224.427 25.7525 223.35 25.1701Z" fill="white"/>
</svg>
