<svg width="564" height="427" viewBox="0 0 564 427" fill="none" xmlns="http://www.w3.org/2000/svg">
<path d="M209.469 424.819C206.876 422.226 208.169 417.467 217.187 396.411C220.29 389.166 222.829 382.453 222.829 381.493V379.747H113.041C3.86036 379.747 3.25297 379.738 3.25297 378.124C3.25297 376.51 3.93008 376.499 114.464 376.294L225.676 376.088L236.654 354.524C248.43 331.395 261.614 307.949 264.743 304.573C267.208 301.914 269.757 301.893 270.955 304.521C271.744 306.254 271.49 307.307 269.184 311.849C267.703 314.766 266.677 317.338 266.904 317.564C267.13 317.791 268.925 317.246 270.893 316.353C276.31 313.896 280.966 314.153 283.885 317.072C285.926 319.112 286.259 320.062 286.241 323.78C286.196 333.083 279.053 347.535 269.432 357.787C260.144 367.685 250.626 371.771 243.647 368.855C241.928 368.137 240.391 367.55 240.231 367.55C239.431 367.55 236.601 374.369 236.986 375.372C237.367 376.365 247.081 376.499 304.745 376.309L372.06 376.088L377.229 373.286C381.859 370.776 382.66 369.953 384.913 365.384C386.296 362.579 387.208 360.064 386.94 359.795C386.671 359.527 384.754 360.602 382.68 362.186C377.848 365.874 373.22 367.341 370.429 366.069C367.671 364.813 365.154 360.451 365.15 356.923C365.138 343.938 381.317 319.474 395.362 311.244C402.525 307.046 409.919 306.875 412.698 310.842C414.271 313.086 414.294 318.373 412.75 322.747C411.861 325.266 411.777 326.606 412.42 328.017C413.172 329.667 412.483 331.234 407.015 340.306C399.723 352.406 396.546 358.893 397.719 359.291C399.893 360.03 411.31 348.101 418.921 337.139C422.273 332.311 424.068 331 425.442 332.373C429.519 336.45 412.852 357.525 396.656 368.769C384.473 377.228 377.12 376.494 474.122 376.494C558.158 376.494 558.7 376.504 558.7 378.121C558.7 379.737 558.158 379.747 473.309 379.747C389.292 379.747 387.892 379.772 386.308 381.357C385.423 382.242 383 386.359 380.925 390.505C372.993 406.354 363.704 418.203 356.551 421.597C346.314 426.454 338.405 421.166 339.568 410.24C340.441 402.042 345.366 394.773 355.857 386.202C359.178 383.489 361.894 380.926 361.894 380.508C361.894 379.369 237.019 379.495 234.887 380.635C232.939 381.678 229.338 389.269 221.228 409.427C217.989 417.477 214.967 424.521 214.512 425.08C213.375 426.477 211.005 426.355 209.469 424.819L209.469 424.819ZM358.224 410.57C361.842 407.235 367.171 399.476 372.745 389.427C377.348 381.127 376.864 380.699 368.507 385.682C357.813 392.059 346.527 407.022 348.743 411.887C350.212 415.11 353.846 414.605 358.224 410.57ZM253.303 359.887C261.497 356.464 274.096 339.062 276.095 328.406C276.63 325.554 275.199 322.826 273.166 322.826C268.706 322.826 260.338 330.135 254.67 338.981C249.358 347.272 243.972 358.111 244.648 359.15C245.968 361.178 249.493 361.479 253.303 359.887ZM383.353 354.451C388.582 349.848 394.719 341.116 394.177 339.048C393.88 337.911 394.948 336.037 397.755 332.77C403.955 325.554 406.544 319.304 403.775 318.241C401.376 317.32 398.448 318.856 393.146 323.815C381.784 334.443 372.238 352.378 375.714 356.565C377.358 358.547 379.314 358.005 383.353 354.451ZM180.358 372.907C168.616 369.507 161.606 360.445 163.049 350.531C164.163 342.875 169.978 336.371 177.622 334.231C182.332 332.912 185.243 333.628 185.905 336.266C186.552 338.844 185.322 340.326 180.515 342.762C175.846 345.128 173.901 347.962 173.832 352.502C173.763 357.059 176.041 360.852 180.134 362.998C182.713 364.351 184.734 364.684 189.893 364.609C205.042 364.388 217.168 355.116 216.018 344.634C215.517 340.072 214.015 337.012 206.438 325.124C203.266 320.147 199.575 313.733 198.235 310.869C190.912 295.223 197.396 277.527 215.776 262.995C227.33 253.86 243.592 247.291 251.989 248.368C260.295 249.433 265.903 255.795 264.771 262.871C263.98 267.815 261.617 272.642 257.294 278.144C249.039 288.651 230.529 300.871 222.871 300.871C219.839 300.871 217.793 298.818 218.109 296.094C218.323 294.247 219.684 293.302 228.215 289.081C243.238 281.645 252.318 273.663 254.666 265.826C255.525 262.957 255.45 262.349 253.991 260.388C247.14 251.179 216.67 267.994 208.316 285.595C202.537 297.769 203.871 303.349 217.879 325.608C225.253 337.326 227.341 342.933 226.615 349.066C225.486 358.596 216.816 367.056 203.35 371.769C197.485 373.822 185.556 374.412 180.358 372.907ZM43.0527 371.092C39.7251 369.026 37.2042 364.648 36.7758 360.19C36.3019 355.258 35.4913 354.583 33.6213 357.563C28.165 366.257 22.6452 370.802 17.5437 370.802C10.8822 370.802 7.04525 365.247 7.09892 355.681C7.15332 345.977 10.7826 336.358 18.173 326.331C26.5252 314.998 36.1151 310.615 46.1588 313.54C47.7913 314.016 48.2578 313.499 50.3502 308.896C53.7404 301.439 63.5504 283.216 69.7726 272.818C77.6826 259.599 81.5049 256.37 84.8581 260.074C86.8115 262.233 86.5879 263.25 82.6787 269.991C80.7398 273.335 76.4967 280.644 73.2497 286.235C47.5687 330.449 39.4568 355.908 48.379 364.289C50.7888 366.552 51.0057 369.208 48.934 371.083C47.0914 372.75 45.7262 372.753 43.0527 371.092V371.092ZM24.3751 356.776C28.2764 352.994 33.3442 344.894 39.0047 333.394C44.4693 322.292 44.4596 321.2 38.8959 321.2C34.5165 321.2 31.7777 322.805 26.99 328.176C20.3017 335.679 15.4518 346.637 15.4518 354.246C15.4518 359.725 20.0014 361.015 24.3752 356.776H24.3751ZM284.834 371.488C283.101 369.756 283.706 365.51 287.003 356.27C291.197 344.513 295.899 335.166 302.895 324.677C309.523 314.741 312.018 312.433 314.624 313.827C317.363 315.293 316.713 317.688 311.056 326.969C304.22 338.183 299.371 348.048 295.705 358.199C291.518 369.79 290.302 371.978 287.883 372.26C286.762 372.391 285.389 372.044 284.834 371.488ZM67.5992 369.183C63.8916 368.296 60.8902 365.974 59.1085 362.613C57.9086 360.35 57.7014 358.543 58.0081 353.017C58.3396 347.046 58.8129 345.348 61.8582 339.203C64.6833 333.503 66.7846 330.728 73.1353 324.311C81.5735 315.785 87.3461 312.278 92.9668 312.263C97.0001 312.254 98.7598 313.257 100.014 316.283C100.868 318.347 100.811 319.43 99.6585 322.952C96.2715 333.306 87.2866 342.673 75.16 348.493C68.679 351.603 67.4994 352.466 67.4994 354.095C67.4994 357.271 71.7821 360.231 76.3776 360.231C82.5488 360.231 89.0178 356.457 98.8198 347.135C103.473 342.71 107.453 339.09 107.663 339.09C107.874 339.09 108.6 339.644 109.277 340.321C111.292 342.335 109.438 345.801 102.718 352.586C90.6291 364.792 76.7199 371.366 67.5992 369.183ZM76.3192 341.186C80.7748 338.929 89.6443 329.858 90.8902 326.284C93.9864 317.403 82.2921 323.601 74.7895 334.817C69.0245 343.435 69.3344 344.725 76.3192 341.186ZM324.078 369.577C323.631 369.435 322.265 369.098 321.044 368.829C319.822 368.56 317.562 367.233 316.022 365.881C306.25 357.303 314.759 333.079 332.437 319.147C338.671 314.234 342.959 312.255 347.371 312.255C354.843 312.255 356.718 318.443 352.012 327.567C346.972 337.338 337.409 345.74 326.82 349.7C322.9 351.165 322.045 351.82 322.045 353.352C322.045 356.318 322.888 357.766 325.356 359.042C332.491 362.731 342.001 358.397 354.291 345.854C357.937 342.134 361.277 339.09 361.714 339.09C363.277 339.09 364.514 341.516 363.998 343.57C363.223 346.657 352.686 357.306 345.949 361.811C342.69 363.991 338.083 366.489 335.711 367.362C331.377 368.957 325.594 370.059 324.078 369.577ZM330.413 341.413C334.608 339.279 343.282 330.595 344.743 327.069C346.022 323.981 345.456 322.013 343.288 322.013C341.28 322.013 334.463 327.376 331.26 331.474C328.702 334.747 324.485 341.683 324.485 342.617C324.485 343.654 327.02 343.14 330.413 341.413ZM433.233 369.015C421.591 365.892 420.741 349.47 431.39 333.453C435.986 326.541 445.853 317.18 451.521 314.356C457.374 311.44 462.803 311.456 465.117 314.398C467.532 317.467 467.211 320.98 463.914 327.568C459.063 337.264 450.851 344.511 438.771 349.758C434.296 351.701 433.882 352.092 434.039 354.23C434.303 357.797 437.633 360.232 442.248 360.231C448.682 360.23 454.969 356.598 464.676 347.273C469.362 342.772 473.542 339.09 473.966 339.09C475.544 339.09 476.738 341.529 476.203 343.66C475.906 344.844 472.48 348.989 468.59 352.873C456.098 365.343 442.57 371.519 433.233 369.015V369.015ZM444.839 339.778C452.616 334.585 459.543 325 457.207 322.664C454.072 319.53 440.615 332.274 437.072 341.732C436.14 344.22 439.423 343.394 444.839 339.778ZM484.171 369.183C477.567 366.518 478.481 356.594 487.249 335.765C505.88 291.503 534.752 250.456 547.254 250.456C552.21 250.456 554.942 255.001 553.766 261.293C550.892 276.673 526.58 310.104 503.102 330.958C495.768 337.473 495.174 338.244 492.765 344.375C491.36 347.953 490.158 352.527 490.095 354.539C489.995 357.734 490.208 358.231 491.772 358.454C494.321 358.816 499.894 353.409 505.022 345.6C509.045 339.472 511.312 337.542 513.151 338.678C515.161 339.921 513.816 344.094 509.16 351.054C499.45 365.57 490.789 371.853 484.171 369.183ZM512.2 313.279C527.784 296.881 546.228 267.94 544.299 262.912C541.79 256.375 524.138 278.767 510.079 306.322C506.405 313.522 503.399 319.632 503.399 319.9C503.399 321.662 506.325 319.461 512.2 313.279ZM320.855 294.399C318.586 291.892 319.828 287.609 324.17 282.968C328.091 278.777 330.89 277.557 333.447 278.925C335.405 279.973 335.627 284.4 333.89 287.759C332.17 291.085 326.396 295.992 324.202 295.992C323.154 295.992 321.648 295.275 320.855 294.399ZM0 122.788V0L133.503 0.205706L267.006 0.411401L274.617 10.9824C284.121 24.1831 292.044 39.7237 294.724 50.4203C297.214 60.3614 298.463 72.1395 298.455 85.621C298.449 98.7416 297.63 104.248 293.925 116.143C284.633 145.972 268.81 168.193 246.026 183.411C241.117 186.69 237.014 189.286 236.908 189.181C236.802 189.075 237.102 184.431 237.575 178.861C238.726 165.3 237.856 143.217 235.8 133.793C233.456 123.048 229.639 115.857 210.572 86.2578C206.28 79.5951 206.158 79.2452 206.177 73.654C206.196 68.3931 206.606 67.0024 210.995 57.3321C218.003 41.8893 218.009 37.1069 211.033 27.2454C198.707 9.82246 177.998 0.813321 167.929 8.49297C162.267 12.8108 161.714 16.4853 162.99 41.3002L163.713 55.355L161.352 57.843C160.052 59.2114 153.201 64.7221 146.126 70.0891C139.051 75.4561 133.066 80.3595 132.826 80.9856C131.848 83.5326 130.933 80.8854 130.933 75.5116C130.933 70.244 131.307 68.997 135.737 59.4998C141.819 46.4615 142.672 43.3823 141.462 38.8329C140.188 34.0445 137.92 30.5393 132.191 24.5074C116.307 7.7846 100.517 2.85913 90.627 11.5419C89.1107 12.8731 87.4974 15.3043 87.0417 16.9446C85.9564 20.8516 86.0672 30.5016 87.342 43.1019C88.4355 53.9105 88.0716 57.6548 85.6664 60.3407C84.8439 61.2592 79.2115 65.7817 73.1499 70.3906C49.3244 88.5063 40.5805 97.8745 32.9694 113.44C24.2727 131.225 22.356 140.579 22.3889 165.075C22.4104 180.212 22.7182 185.067 24.1783 193.196C26.137 204.1 29.9176 216.611 32.7586 221.589C34.3638 224.402 34.9962 224.842 37.4353 224.842C40.1344 224.842 40.2685 224.702 40.5512 221.589C40.7138 219.8 40.3754 209.213 39.7995 198.061C37.9128 161.53 41.3165 138.504 51.6469 117.912C58.2723 104.705 64.0875 98.5453 88.3425 79.0401C96.8319 72.2132 101.079 68.2346 102.041 66.207C103.285 63.5868 103.372 61.4006 102.85 46.0269C102.32 30.4159 102.396 28.6549 103.645 27.4055C107.535 23.516 116.433 29.1992 122.404 39.3874C125.265 44.2694 124.882 47.6451 120.353 57.4473C115.357 68.2598 113.561 74.8824 114.078 80.5851C114.555 85.8402 116.901 90.6572 128.443 110.071C143.804 135.908 145.78 141.906 145.761 162.635C145.755 171.078 145.226 180.637 144.463 186.139C142.799 198.149 137.892 225.83 135.584 236.226L133.779 244.357L101.956 244.57L70.1331 244.783L69.5783 237.658C69.2731 233.74 68.0898 222.301 66.9486 212.238C65.2289 197.074 64.7851 188.482 64.3567 162.053C63.9027 134.039 63.678 130.003 62.5074 128.834C60.6827 127.011 58.0374 127.99 56.4399 131.079C54.9368 133.985 51.5828 146.827 50.4103 154.166C48.6687 165.067 47.9411 187.639 48.793 204.34C49.5869 219.902 50.706 234.446 51.6999 242.121L52.1475 245.577H26.0738H9.23358e-05L0 122.788ZM160.405 244.972C153.857 244.705 153.701 244.651 154.159 242.827C154.417 241.797 155.8 236.598 157.232 231.272L159.835 221.589L180.963 221.075C212.456 220.308 225.002 217.551 245.6 206.866C266.4 196.077 284.858 178.669 297.241 158.163C304.571 146.026 312.07 126.625 315.064 112.054C322.61 75.3299 314.771 33.4324 295.371 6.80305C293.045 3.60994 291.142 0.774064 291.142 0.501112C291.142 0.228169 352.44 0.00484194 427.361 0.00484194H563.579V122.791V245.577L365.351 245.411C256.325 245.32 164.1 245.122 160.405 244.972V244.972ZM167.935 200.116C163.141 199.548 163.381 201.093 165.016 181.338C167.474 151.642 162.811 134.154 144.29 103.607C140.969 98.1299 138.252 93.4359 138.252 93.1763C138.252 92.9167 139.139 92.7043 140.224 92.7043C143.878 92.7043 163.527 77.832 174.035 67.1135L178.507 62.5507V44.0137C178.507 29.5008 178.75 25.1833 179.624 24.1249C183.254 19.7282 193.907 26.8521 199.137 37.1742C201.468 41.7746 201.339 43.2357 197.933 50.8269C190.402 67.6096 189.486 70.1107 189.486 73.9058C189.486 78.5378 193.118 86.4573 201.29 99.6423C219.147 128.457 222.836 144.88 219.142 179.125C217.261 196.569 217.412 196.138 212.633 197.734C210.405 198.478 205.723 199.484 202.229 199.97C195.679 200.881 175.124 200.968 167.935 200.116V200.116Z" fill="#6959CC"/>
<path d="M210.054 424.721C207.911 422.578 209.306 417.897 218.974 394.797C229.896 368.701 259.276 312.253 265.423 305.554C267.411 303.387 268.897 303.224 269.925 305.059C270.904 306.809 270.325 308.904 267.438 314.067C266.133 316.401 265.285 318.667 265.554 319.103C265.844 319.571 267.778 319.087 270.294 317.916C275.483 315.5 280.545 315.328 283.197 317.478C284.907 318.864 285.112 319.686 285.076 324.999C285.044 329.852 284.557 332.067 282.463 336.874C273.177 358.204 255.392 372.992 244.498 368.441C239.922 366.529 239.232 366.78 237.453 371.012C236.559 373.137 234.023 378.588 231.815 383.125C229.608 387.663 225.028 398.275 221.637 406.707C213.835 426.111 212.899 427.566 210.054 424.721ZM253.426 361.093C257.933 359.21 261.563 356.033 266.332 349.796C271.402 343.166 276.517 332.976 277.152 328.238C277.529 325.43 277.315 324.854 275.437 323.624C273.423 322.304 273.075 322.301 269.743 323.573C262.696 326.264 255.553 334.977 246.817 351.537L242.828 359.1L244.748 360.685C247.033 362.573 249.595 362.694 253.426 361.093V361.093ZM345.191 422.086C343.33 421.276 342.262 419.972 341.214 417.229C339.88 413.735 339.87 413.123 341.07 408.261C341.778 405.391 343.276 401.589 344.398 399.811C349.21 392.19 361.506 382.409 374.167 376.134C382.836 371.837 383.564 371.165 386.449 364.803C390.025 356.917 389.472 356.355 383.1 361.391C375.822 367.144 370.556 367.644 367.639 362.859C365.586 359.492 365.611 355.357 367.723 349.032C372.79 333.855 385.693 317.605 397.271 311.818C409.251 305.831 416.23 311.202 412.011 323.161C411.11 325.714 411.034 327.01 411.699 328.471C412.473 330.17 411.943 331.418 407.305 338.815C401.409 348.218 396.124 358.335 396.124 360.218C396.124 360.9 396.699 361.458 397.401 361.458C399.448 361.458 414.2 346.182 418.799 339.299C421.116 335.833 423.377 332.998 423.825 332.998C425.497 332.998 425.459 335.389 423.732 338.814C418.788 348.62 406.681 361.617 395.259 369.38L389.212 373.49L382.299 386.768C373.803 403.089 370.467 408.309 364.545 414.556C359.825 419.535 353.469 423.261 349.769 423.218C348.651 423.205 346.591 422.696 345.191 422.086H345.191ZM357.596 413.071C359.078 411.941 361.913 408.739 363.896 405.956C368.583 399.377 377.479 383.354 376.934 382.472C376.1 381.122 373.683 381.851 368.881 384.9C358.891 391.241 350.539 400.571 348.163 408.042C346.132 414.427 351.833 417.466 357.596 413.071ZM382.506 356.842C386.867 353.821 395.311 342.455 395.311 339.607C395.311 338.132 396.57 335.899 399.014 333.035C405.02 326 407.147 320.763 404.907 318.523C399.949 313.566 382.274 331.173 375.86 347.461C371.953 357.382 375.171 361.925 382.506 356.842ZM182.836 372.858C172.137 370.93 163.564 362.408 163.541 353.677C163.53 349.673 166.032 343.845 169.001 340.956C174.337 335.766 182.41 333.108 184.648 335.805C186.363 337.871 185.198 339.789 180.686 342.323C174.783 345.639 172.982 348.211 172.982 353.326C172.982 357.895 174.604 360.716 178.919 363.653C189.075 370.566 212.813 362.528 216.265 351.007C218.305 344.198 217.236 340.951 208.295 326.813C199.473 312.861 196.933 307.398 196.346 301.108C195.386 290.833 199.413 281.098 208.668 271.316C220.874 258.415 237.005 250.054 249.685 250.057C259.18 250.06 263.968 254.039 263.855 261.835C263.695 272.919 250.466 287.93 232.886 296.974C224.125 301.482 218.837 301.56 218.837 297.182C218.837 295.185 221.027 293.604 227.689 290.79C235.76 287.381 243.523 282.098 249.187 276.161C255.858 269.168 257.739 263.933 254.99 260.009C252.113 255.902 244.465 256.399 233.882 261.382C221.704 267.116 212.203 275.995 207.376 286.15C201.842 297.796 203.481 305.03 216.056 324.459C225.225 338.628 227.561 346.123 225.01 353.197C221.141 363.923 207.798 372.154 192.644 373.163C189.382 373.38 184.969 373.243 182.836 372.859V372.858ZM42.7767 370.263C39.9394 368.032 37.5241 362.779 37.501 358.79C37.4804 355.233 35.33 353.659 33.8754 356.136C28.5855 365.144 22.5591 370.403 17.5246 370.403C10.8871 370.403 7.76379 364.734 8.39648 353.835C9.03567 342.824 13.9457 332.298 22.8045 322.949C30.1473 315.2 36.8409 312.753 45.6155 314.61L48.4619 315.213L55.5563 301.134C59.4581 293.39 65.5813 282.139 69.1633 276.131C78.0013 261.307 81.7993 257.597 84.6372 261.017C86.0726 262.746 84.9503 265.423 77.9027 277.083C58.1003 309.844 45.378 338.013 44.2369 351.622C43.7028 357.993 44.7495 361.987 47.6723 364.733C49.9853 366.905 50.2307 368.924 48.4038 370.751C46.6857 372.469 45.4444 372.361 42.7767 370.263ZM25.754 357.051C29.8975 352.727 36.9281 341.069 41.6327 330.721C44.8551 323.634 44.9848 323.074 43.7017 321.791C39.8924 317.982 30.6559 321.987 24.7436 330.01C13.8602 344.78 11.2883 360.645 19.7772 360.645C21.7108 360.645 23.1251 359.794 25.754 357.051ZM285.726 371.49C281.601 369.826 292.803 341.31 304.124 324.656C309.408 316.883 311.316 314.96 313.444 315.265C316.475 315.699 315.877 318.132 310.732 326.289C304.417 336.303 298.039 349.441 293.659 361.457C289.859 371.883 289.095 372.849 285.726 371.49ZM482.966 367.1C480.582 364.716 480.497 364.395 480.962 359.578C482.892 339.565 514.571 279.963 533.647 260.454C541.485 252.439 548.016 249.87 551.557 253.412C554.304 256.158 553.358 263.555 549.162 272.155C541.263 288.345 528.797 304.518 509.043 324.205L493.796 339.4L491.277 346.538C489.789 350.753 488.856 354.852 488.999 356.55C489.213 359.091 489.527 359.453 491.704 359.666C495.076 359.997 498.987 356.438 505.369 347.234C510.458 339.894 513.232 337.734 513.232 341.11C513.232 344.896 504.583 357.91 498.176 363.766C494.47 367.152 489.559 369.589 486.441 369.589C485.9 369.589 484.336 368.469 482.966 367.1ZM508.947 318.158C525.675 302.219 547.339 269.317 545.312 262.931C544.992 261.922 544.051 261.44 542.401 261.44C539.409 261.44 534.599 266.159 527.51 276.05C514.812 293.767 499.619 323.24 503.185 323.24C503.421 323.24 506.014 320.953 508.947 318.158ZM65.9467 368.202C64.0502 367.509 61.0297 364.529 59.7701 362.108C58.1406 358.977 58.358 351.931 60.2756 345.723C64.7842 331.127 82.8169 313.482 93.2241 313.482C107.306 313.482 95.6134 338.094 77.3321 346.932C73.9775 348.553 70.2264 350.282 68.9964 350.773C65.1705 352.3 66.2379 357.866 70.8099 360.23C77.8596 363.875 87.9335 359.669 99.1011 348.417C106.601 340.861 109.049 339.567 109.049 343.16C109.049 348.025 91.169 363.273 81.0049 367.075C76.6831 368.692 68.884 369.276 65.9467 368.202ZM80.7583 339.782C85.2534 336.483 90.2991 330.527 91.9258 326.6C93.1447 323.658 92.0987 321.613 89.3745 321.613C87.1551 321.613 81.3565 325.773 77.5527 330.094C73.0003 335.265 68.6739 343.554 70.0752 344.42C71.5039 345.303 75.7453 343.462 80.7583 339.782ZM318.296 367.227C314.514 364.857 313.173 361.665 313.173 355.03C313.173 344.193 318.27 334.415 329.517 323.67C339.242 314.381 348.128 311.028 352.209 315.108C354.598 317.497 354.235 321.409 351.032 327.812C346.774 336.323 339.892 342.758 329.706 347.758C325.157 349.99 321.233 352.343 320.987 352.985C320.303 354.766 321.748 357.795 324.201 359.725C325.809 360.989 327.549 361.458 330.638 361.458C337.16 361.458 343.546 357.829 353.013 348.743C360.861 341.212 363.595 339.646 363.595 342.681C363.595 347.026 348.776 360.669 338.633 365.662C331.532 369.158 322.487 369.854 318.296 367.227ZM331.647 342.059C335.21 340.24 343.235 332.105 345.183 328.339C347.76 323.356 346.459 320.839 341.898 321.984C336.84 323.253 322.756 340.631 324.051 344.005C324.547 345.296 326.07 344.906 331.647 342.059ZM430.528 367.186C427.211 365.163 425.617 362.703 424.961 358.591C423.161 347.316 432.733 329.48 445.893 319.59C451.938 315.046 455.462 313.482 459.657 313.482C469.697 313.482 467.426 325.881 455.098 338.375C450.456 343.08 447.904 344.873 441.415 347.987C437.028 350.092 433.235 352.345 432.987 352.992C432.26 354.886 434.225 358.596 436.743 360.083C438.086 360.876 440.777 361.458 443.101 361.458C449.387 361.458 456.03 357.596 465.134 348.651C472.139 341.767 475.827 339.522 475.819 342.146C475.804 347.396 458.266 362.851 447.516 367.088C441.848 369.322 434.105 369.367 430.528 367.186V367.186ZM444.608 341.515C448.327 339.344 455.687 331.671 457.604 327.965C460.739 321.904 456.801 319.853 450.298 324.161C444.051 328.298 435.073 340.863 436.223 343.859C436.812 345.394 439.016 344.777 444.608 341.515ZM321.161 293.567C318.744 288.263 328.783 277.294 333.14 280.479C336.256 282.757 332.342 291.61 326.997 294.374C323.668 296.095 322.222 295.895 321.161 293.567Z" fill="#090909"/>
</svg>
