<svg width="501" height="501" viewBox="0 0 501 501" fill="#6959CC" xmlns="http://www.w3.org/2000/svg">
<g clip-path="url(#clip0)">
<path d="M250 0C196.124 0 152.304 43.832 152.304 97.708V148.328C152.304 202.208 196.124 246.04 250 246.04C303.88 246.04 347.696 202.208 347.696 148.328V97.708C347.697 43.832 303.88 0 250 0Z"/>
<path d="M465.456 373.364C434.172 320.052 384.168 280.528 324.656 262.072C323.276 261.644 321.784 262.008 320.756 263.024C293.072 290.32 258.672 311.616 250.072 316.76C240.892 310.892 202.224 285.688 179.236 263.024C178.212 262.008 176.708 261.644 175.336 262.072C115.816 280.532 65.8158 320.056 34.5438 373.368C33.8278 374.588 33.8278 376.104 34.5438 377.324C78.9518 452.996 161.508 500.004 249.996 500.004C338.488 500.004 421.048 452.996 465.456 377.324C466.176 376.1 466.176 374.584 465.456 373.364ZM382.872 402.508C382.872 404.664 380.82 406.312 378.668 406.312H352.208C350.052 406.312 347.7 408.164 347.7 410.324V437.688C347.7 439.84 346.548 441.484 344.392 441.484H320.628C318.472 441.484 316.44 439.84 316.44 437.688V410.324C316.432 408.168 314.96 406.312 312.804 406.312H285.204C283.048 406.312 281.264 404.66 281.264 402.508V378.948C281.264 376.792 283.048 375.052 285.204 375.052H312.804C314.96 375.052 316.432 373.292 316.432 371.132V343.736C316.432 341.58 318.464 339.88 320.62 339.88H344.128C346.28 339.88 347.696 341.58 347.696 343.736V371.212C347.696 373.372 349.784 375.048 351.944 375.048H378.668C380.82 375.048 382.872 376.872 382.872 379.028V402.508V402.508Z"/>
</g>
<defs>
<clipPath id="clip0">
<rect width="500.004" height="500.004" fill="white"/>
</clipPath>
</defs>
</svg>
