<svg width="513" height="513" viewBox="0 0 513 513" fill="#6959CC" xmlns="http://www.w3.org/2000/svg">
<g clip-path="url(#clip0)">
<path d="M207.906 160.322C203.764 160.322 200.406 163.679 200.406 167.822V175.839C200.406 179.982 203.764 183.339 207.906 183.339C212.048 183.339 215.406 179.982 215.406 175.839V167.822C215.406 163.68 212.047 160.322 207.906 160.322Z"/>
<path d="M304.098 160.322C299.955 160.322 296.598 163.679 296.598 167.822V175.839C296.598 179.982 299.955 183.339 304.098 183.339C308.241 183.339 311.598 179.982 311.598 175.839V167.822C311.598 163.68 308.24 160.322 304.098 160.322Z"/>
<path d="M285.389 218.669C282.481 215.718 277.732 215.688 274.784 218.597C272.046 221.297 265.484 224.451 256.002 224.451C246.52 224.451 239.959 221.297 237.221 218.597C234.271 215.686 229.522 215.719 226.615 218.668C223.706 221.617 223.738 226.365 226.686 229.274C233.145 235.646 244.104 239.451 256.002 239.451C267.899 239.451 278.858 235.646 285.317 229.274C288.266 226.366 288.298 221.617 285.389 218.669Z"/>
<path d="M215.921 136.274H199.89C195.748 136.274 192.39 139.631 192.39 143.774C192.39 147.917 195.748 151.274 199.89 151.274H215.922C220.064 151.274 223.422 147.917 223.422 143.774C223.422 139.631 220.063 136.274 215.921 136.274Z"/>
<path d="M312.114 136.274H296.082C291.939 136.274 288.582 139.631 288.582 143.774C288.582 147.917 291.94 151.274 296.082 151.274H312.114C316.257 151.274 319.614 147.917 319.614 143.774C319.614 139.631 316.257 136.274 312.114 136.274Z"/>
<path d="M416.63 357.239L362.571 340.619C362.659 338.986 362.539 337.334 362.154 335.702C360.97 330.691 357.651 326.496 353.046 324.193L319.614 307.478V283.64C344.627 266.244 362.231 238.899 366.633 207.387H371.091C385.708 207.387 398.246 196.526 399.634 182.659C400.412 174.888 397.87 167.13 392.66 161.373C390.139 158.586 387.092 156.381 383.743 154.84V71.629C383.743 40.973 358.803 16.032 328.146 16.032C328.107 16.032 327.585 16.032 326.878 16.033C313.375 6.073 293.538 0 271.533 0C224.684 0 203.161 9.76 178.241 21.061C164.928 27.098 151.163 33.34 131.651 39.046C129.603 39.645 127.906 41.088 126.987 43.015C126.068 44.941 126.013 47.168 126.836 49.137C127.064 49.683 130.415 57.462 139.06 66.912C135.327 71.507 128.261 83.258 128.261 106.365V155.174C119.631 159.289 113.332 167.44 112.371 177.031C111.592 184.802 114.133 192.561 119.343 198.32C124.556 204.082 132.001 207.386 139.769 207.386H145.367C149.765 238.908 167.37 266.256 192.389 283.65V307.477L158.956 324.192C154.351 326.496 151.031 330.691 149.848 335.702C149.463 337.333 149.344 338.985 149.431 340.618L95.3718 357.238C71.8908 364.458 56.1138 385.813 56.1138 410.38V504.5C56.1138 508.643 59.4718 512 63.6138 512C67.7558 512 71.1138 508.643 71.1138 504.5V410.381C71.1138 392.443 82.6338 376.849 99.7808 371.577L156.012 354.289L165.937 367.523L154.661 378.8C147.487 385.973 145.715 396.889 150.252 405.964L171.722 448.903H151.277V440.371C151.277 436.228 147.919 432.871 143.777 432.871C139.635 432.871 136.277 436.228 136.277 440.371V448.903H103.696C99.5538 448.903 96.1958 452.26 96.1958 456.403V504.5C96.1958 508.643 99.5538 512 103.696 512H183.858C188 512 191.358 508.643 191.358 504.5V488.174L201.198 507.855C202.512 510.483 205.16 512.002 207.912 512.002C209.039 512.002 210.183 511.746 211.26 511.208C214.965 509.355 216.467 504.851 214.614 501.145L163.669 399.254C162.024 395.964 162.667 392.007 165.268 389.405L181.145 373.527C183.784 370.888 184.081 366.71 181.842 363.724L164.85 341.069C164.285 340.315 164.356 339.542 164.449 339.148C164.542 338.753 164.824 338.03 165.667 337.608L195.207 322.838L216.061 394.337C217.221 398.315 221.383 400.595 225.361 399.438C229.338 398.278 231.621 394.115 230.461 390.138L227.174 378.868C236.396 382.073 246.147 383.741 256.004 383.741C265.865 383.741 275.612 382.078 284.832 378.873L256.003 477.713L239.817 422.219C238.657 418.241 234.494 415.958 230.517 417.118C226.54 418.278 224.257 422.442 225.417 426.418L248.803 506.598C249.737 509.798 252.67 511.998 256.003 511.998C259.336 511.998 262.27 509.798 263.203 506.598L316.8 322.838L346.339 337.608C347.183 338.03 347.464 338.754 347.558 339.147C347.651 339.542 347.722 340.315 347.157 341.069L330.165 363.724C327.926 366.709 328.223 370.888 330.861 373.528L346.739 389.406C349.341 392.007 349.982 395.965 348.338 399.254L297.39 501.146C295.537 504.851 297.039 509.356 300.744 511.209C301.821 511.748 302.966 512.003 304.093 512.003C306.844 512.003 309.493 510.483 310.807 507.856L361.752 405.965C366.289 396.891 364.518 385.975 357.345 378.801L346.067 367.523L355.991 354.29L412.223 371.579C429.369 376.85 440.889 392.444 440.889 410.383V504.5C440.889 508.643 444.246 512 448.389 512C452.532 512 455.889 508.643 455.889 504.5V410.381C455.888 385.814 440.112 364.458 416.63 357.239ZM176.356 497H111.194V463.903H136.275V464.419C136.275 468.562 139.633 471.919 143.775 471.919C147.917 471.919 151.275 468.562 151.275 464.419V463.903H176.356V497V497ZM184.435 34.722C208.734 23.703 227.926 15 271.533 15C299.203 15 323.929 26.58 329.048 41.937C330.359 45.867 334.603 47.988 338.535 46.68C342.464 45.37 344.588 41.122 343.278 37.193C342.847 35.899 342.332 34.63 341.749 33.384C357.463 38.99 368.744 54.014 368.744 71.629V152.307H360.212C355.507 152.307 351.68 148.48 351.68 143.775V135.758C351.68 100.987 326.506 75.414 325.434 74.342C323.457 72.364 320.542 71.655 317.872 72.493C276.238 85.641 217.535 96.722 174.317 74.855C158.938 67.073 149.857 57.184 145.081 50.581C161.002 45.349 173.343 39.752 184.435 34.722ZM304.615 311.042L290.291 360.154C279.795 365.778 268.003 368.743 256.003 368.743C244.01 368.743 232.207 365.782 221.716 360.162L207.389 311.042V292.435C222.094 299.572 238.588 303.582 256.002 303.582C273.414 303.582 289.908 299.57 304.615 292.428V311.042V311.042ZM256.002 288.581C202.676 288.581 159.293 245.197 159.293 191.871C159.293 187.728 155.935 184.371 151.793 184.371C147.651 184.371 144.293 187.728 144.293 191.871V192.387H139.769C136.232 192.387 132.841 190.881 130.466 188.256C128.06 185.597 126.934 182.142 127.296 178.527C127.927 172.235 133.909 167.306 140.915 167.306H151.793C164.769 167.306 175.325 156.749 175.325 143.774V115.466C175.325 111.323 171.967 107.966 167.825 107.966C163.683 107.966 160.325 111.323 160.325 115.466V143.774C160.325 148.479 156.497 152.306 151.793 152.306H143.261V106.365C143.261 88.914 147.951 80.236 150.117 77.159C154.699 80.773 160.073 84.353 166.363 87.631C183.36 96.49 203.59 101.396 226.49 102.212C253.331 103.177 284.009 98.469 317.73 88.239C323.682 95.447 336.681 113.714 336.681 135.757V143.774C336.681 156.75 347.238 167.306 360.213 167.306H372.237C375.774 167.306 379.165 168.812 381.54 171.437C383.946 174.096 385.072 177.55 384.71 181.165C384.08 187.458 378.099 192.387 371.093 192.387H367.709V191.949C367.709 187.808 364.353 184.451 360.212 184.449C360.211 184.449 360.21 184.449 360.209 184.449C356.069 184.449 352.712 187.803 352.709 191.943C352.668 245.229 309.286 288.581 256.002 288.581Z"/>
<path d="M408.309 452.911H395.769V440.371C395.769 436.228 392.412 432.871 388.269 432.871C384.126 432.871 380.769 436.228 380.769 440.371V452.911H368.228C364.085 452.911 360.728 456.268 360.728 460.411C360.728 464.554 364.085 467.911 368.228 467.911H380.769V480.451C380.769 484.594 384.126 487.951 388.269 487.951C392.412 487.951 395.769 484.594 395.769 480.451V467.911H408.309C412.452 467.911 415.809 464.554 415.809 460.411C415.809 456.268 412.45 452.911 408.309 452.911Z"/>
</g>
<defs>
<clipPath id="clip0">
<rect width="512.003" height="512.003" fill="white"/>
</clipPath>
</defs>
</svg>
