<?xml version="1.0" encoding="iso-8859-1"?>
<!-- Generator: Adobe Illustrator 18.0.0, SVG Export Plug-In . SVG Version: 6.00 Build 0)  -->
<!DOCTYPE svg PUBLIC "-//W3C//DTD SVG 1.1//EN" "http://www.w3.org/Graphics/SVG/1.1/DTD/svg11.dtd">
<svg version="1.1" id="Capa_1" xmlns="http://www.w3.org/2000/svg" xmlns:xlink="http://www.w3.org/1999/xlink" x="0px" y="0px"
	 viewBox="0 0 230.813 230.813" style="enable-background:new 0 0 230.813 230.813;" xml:space="preserve">
<g>
	<rect x="0" y="0" style="fill:#FAC9D6;" width="230.813" height="230.813"/>
	<g>
		<path style="fill:#F7DC94;" d="M166.082,197.332h-35.701l-14.49,21.41l-15.459-21.41H64.721c0,0-7.17,0.959-7.17,11.959v21.521
			h19.961h75.789h19.961v-21.521C173.262,198.291,166.082,197.332,166.082,197.332z"/>
		<polygon style="opacity:0.1;fill:#231F20;" points="130.381,197.332 115.891,218.742 100.432,197.332 90.725,197.332 
			114.246,230.813 118.461,230.813 139.178,197.332 		"/>
		<path style="fill:#F27998;" d="M113.361,135.842c0,0.561,0.23,1.08,0.6,1.439c0.371,0.371,0.891,0.6,1.451,0.6
			c1.129,0,2.039-0.908,2.039-2.039v-5.1c0-0.561-0.23-1.08-0.6-1.451c-0.359-0.369-0.881-0.6-1.439-0.6
			c-0.641,0-1.201,0.291-1.58,0.75c-0.291,0.35-0.471,0.811-0.471,1.301V135.842z"/>
		<path style="fill:#F27998;" d="M101.641,142.262c0-2.42-3.26-4.381-7.289-4.381s-7.291,1.961-7.291,4.381
			c0,2.42,3.262,4.381,7.291,4.381S101.641,144.682,101.641,142.262z"/>
		<path style="fill:#F27998;" d="M136.461,137.881c-4.029,0-7.289,1.961-7.289,4.381c0,2.42,3.26,4.381,7.289,4.381
			c4.031,0,7.291-1.961,7.291-4.381C143.752,139.842,140.492,137.881,136.461,137.881z"/>
		<path d="M80.822,112.063V87.182c0,0,4.66,8.27,34.58,8.27h0.1c29.93,0,34.58-8.27,34.58-8.27v24.881v0.25h3.889h5.131V85.961
			c0-24.08-19.52-43.59-43.59-43.59h-0.109c-24.07,0-43.592,19.51-43.592,43.59v26.352h5.031h3.98V112.063z"/>
		<path d="M126.182,115.572c-1.27,1.68-2.041,3.76-2.041,6.029c0,0.26,0.08,0.51,0.221,0.711c0.23,0.34,0.609,0.559,1.051,0.559
			c0.699,0,1.27-0.568,1.27-1.27c0-4.1,3.34-7.43,7.43-7.43c1.871,0,3.561,0.699,4.871,1.83c0.049,0.09,0.1,0.18,0.17,0.26
			c0.1,0.1,0.209,0.16,0.33,0.221c1.269,1.33,2.059,3.129,2.059,5.119c0,0.701,0.57,1.27,1.27,1.27c0.711,0,1.271-0.568,1.271-1.27
			c0-2.369-0.83-4.539-2.211-6.26l2.381-2.381c0.24-0.238,0.369-0.568,0.369-0.898c0-0.32-0.129-0.65-0.369-0.9
			c-0.5-0.49-1.31-0.49-1.81,0l-2.42,2.43c-1.33-0.99-2.91-1.65-4.641-1.869v-3.48c0-0.701-0.559-1.281-1.27-1.281
			c-0.699,0-1.27,0.58-1.27,1.281v3.48c-1.82,0.229-3.49,0.949-4.871,2.039l-2.59-2.6c-0.5-0.49-1.309-0.49-1.799,0
			c-0.5,0.5-0.5,1.311,0,1.799L126.182,115.572z"/>
		<path style="fill:#B8654E;" d="M130.381,197.332v-26.16c13.861-5.85,23.59-19.561,23.59-35.551v-2.33h5.041
			c1.439,0,2.74-0.58,3.68-1.529c0.949-0.939,1.529-2.24,1.529-3.68c0-2.881-2.33-5.211-5.209-5.211h-5.041v-10.559h-3.889v-0.25
			V87.182c0,0-4.65,8.27-34.58,8.27h-0.1c-29.92,0-34.58-8.27-34.58-8.27v24.881v0.25h-3.98v10.559h-5.051
			c-1.439,0-2.74,0.58-3.68,1.531c-0.939,0.939-1.529,2.24-1.529,3.68c0,2.879,2.34,5.209,5.209,5.209h5.051v2.33
			c0,10.65,4.311,20.291,11.289,27.271c3.5,3.5,7.67,6.33,12.301,8.279v0.01v26.15l15.459,21.41L130.381,197.332z M115.291,167.291
			c-6.35,0-11.5-5.148-11.5-11.5h22.99C126.781,162.143,121.641,167.291,115.291,167.291z M136.461,146.643
			c-4.029,0-7.289-1.961-7.289-4.381c0-2.42,3.26-4.381,7.289-4.381c4.031,0,7.291,1.961,7.291,4.381
			C143.752,144.682,140.492,146.643,136.461,146.643z M123.582,111.162c0.49-0.49,1.299-0.49,1.799,0l2.59,2.6
			c1.381-1.09,3.051-1.811,4.871-2.039v-3.48c0-0.701,0.57-1.281,1.27-1.281c0.711,0,1.27,0.58,1.27,1.281v3.48
			c1.73,0.219,3.311,0.879,4.641,1.869l2.42-2.43c0.5-0.49,1.31-0.49,1.81,0c0.24,0.25,0.369,0.58,0.369,0.9
			c0,0.33-0.129,0.66-0.369,0.898l-2.381,2.381c1.381,1.721,2.211,3.891,2.211,6.26c0,0.701-0.561,1.27-1.271,1.27
			c-0.699,0-1.27-0.568-1.27-1.27c0-1.99-0.789-3.789-2.059-5.119c-0.121-0.061-0.231-0.121-0.33-0.221
			c-0.07-0.08-0.121-0.17-0.17-0.26c-1.311-1.131-3-1.83-4.871-1.83c-4.09,0-7.43,3.33-7.43,7.43c0,0.701-0.57,1.27-1.27,1.27
			c-0.441,0-0.82-0.219-1.051-0.559c-0.141-0.201-0.221-0.451-0.221-0.711c0-2.27,0.771-4.35,2.041-6.029l-2.6-2.611
			C123.082,112.473,123.082,111.662,123.582,111.162z M115.412,128.691c0.559,0,1.08,0.23,1.439,0.6
			c0.369,0.371,0.6,0.891,0.6,1.451v5.1c0,1.131-0.91,2.039-2.039,2.039c-0.561,0-1.08-0.229-1.451-0.6
			c-0.369-0.359-0.6-0.879-0.6-1.439v-5.1c0-0.49,0.18-0.951,0.471-1.301C114.211,128.982,114.771,128.691,115.412,128.691z
			 M86.191,112.063c0-0.32,0.119-0.65,0.369-0.9c0.5-0.49,1.301-0.49,1.801,0l2.59,2.6c1.381-1.09,3.051-1.811,4.871-2.039v-3.48
			c0-0.701,0.568-1.281,1.279-1.281c0.699,0,1.27,0.58,1.27,1.281v3.48c1.721,0.219,3.311,0.879,4.641,1.869l2.42-2.43
			c0.5-0.49,1.301-0.49,1.801,0c0.5,0.5,0.5,1.311,0,1.799l-2.381,2.381c1.391,1.721,2.221,3.891,2.221,6.26
			c0,0.701-0.57,1.27-1.272,1.27c-0.709,0-1.279-0.568-1.279-1.27c0-1.99-0.789-3.789-2.061-5.119
			c-0.109-0.061-0.229-0.121-0.32-0.221c-0.08-0.08-0.119-0.17-0.17-0.26c-1.309-1.131-3.01-1.83-4.869-1.83
			c-4.1,0-7.43,3.33-7.43,7.43c0,0.701-0.57,1.27-1.27,1.27c-0.711,0-1.281-0.568-1.281-1.27c0-2.27,0.77-4.35,2.051-6.029
			l-2.611-2.611C86.311,112.723,86.191,112.393,86.191,112.063z M94.352,146.643c-4.029,0-7.291-1.961-7.291-4.381
			c0-2.42,3.262-4.381,7.291-4.381s7.289,1.961,7.289,4.381C101.641,144.682,98.381,146.643,94.352,146.643z"/>
		<path style="opacity:0.2;fill:#231F20;" d="M150.082,96.439v-9.258c0,0-4.65,8.27-34.58,8.27h-0.1c-29.92,0-34.58-8.27-34.58-8.27
			v11.045C102.969,105.26,128.705,103.51,150.082,96.439z"/>
		<path style="opacity:0.2;fill:#231F20;" d="M130.381,171.172c0.02-0.008,0.037-0.018,0.055-0.025h-30.059
			c0.018,0.008,0.035,0.018,0.055,0.025v0.01v10.791h29.949V171.172z"/>
		<path style="fill:#FFFFFF;" d="M115.291,167.291c6.35,0,11.49-5.148,11.49-11.5h-22.99
			C103.791,162.143,108.941,167.291,115.291,167.291z"/>
		<path d="M87.121,121.602c0,0.701,0.57,1.27,1.281,1.27c0.699,0,1.27-0.568,1.27-1.27c0-4.1,3.33-7.43,7.43-7.43
			c1.859,0,3.561,0.699,4.869,1.83c0.051,0.09,0.09,0.18,0.17,0.26c0.092,0.1,0.211,0.16,0.32,0.221
			c1.271,1.33,2.061,3.129,2.061,5.119c0,0.701,0.57,1.27,1.279,1.27c0.701,0,1.272-0.568,1.272-1.27c0-2.369-0.83-4.539-2.221-6.26
			l2.381-2.381c0.5-0.488,0.5-1.299,0-1.799c-0.5-0.49-1.301-0.49-1.801,0l-2.42,2.43c-1.33-0.99-2.92-1.65-4.641-1.869v-3.48
			c0-0.701-0.57-1.281-1.27-1.281c-0.711,0-1.279,0.58-1.279,1.281v3.48c-1.82,0.229-3.49,0.949-4.871,2.039l-2.59-2.6
			c-0.5-0.49-1.301-0.49-1.801,0c-0.25,0.25-0.369,0.58-0.369,0.9c0,0.33,0.119,0.66,0.369,0.898l2.611,2.611
			C87.891,117.252,87.121,119.332,87.121,121.602z"/>
	</g>
</g>
<g>
</g>
<g>
</g>
<g>
</g>
<g>
</g>
<g>
</g>
<g>
</g>
<g>
</g>
<g>
</g>
<g>
</g>
<g>
</g>
<g>
</g>
<g>
</g>
<g>
</g>
<g>
</g>
<g>
</g>
</svg>
