<?xml version="1.0" encoding="iso-8859-1"?>
<!-- Generator: Adobe Illustrator 18.0.0, SVG Export Plug-In . SVG Version: 6.00 Build 0)  -->
<!DOCTYPE svg PUBLIC "-//W3C//DTD SVG 1.1//EN" "http://www.w3.org/Graphics/SVG/1.1/DTD/svg11.dtd">
<svg version="1.1" id="Capa_1" xmlns="http://www.w3.org/2000/svg" xmlns:xlink="http://www.w3.org/1999/xlink" x="0px" y="0px"
	 viewBox="0 0 230.814 230.814" style="enable-background:new 0 0 230.814 230.814;" xml:space="preserve">
<g>
	<rect x="0" y="0" style="fill:#F7DC94;" width="230.813" height="230.814"/>
	<g>
		<g>
			<path style="fill:#FAC9D6;" d="M159.022,122.873h-5.051v-20.34c-18.699,0-35.379-5.75-48.129-12.141
				c-13.41,15.34-29,12.141-29,12.141v20.34h-5.041c-1.439,0-2.74,0.58-3.68,1.529c-0.949,0.939-1.529,2.24-1.529,3.68
				c0,2.871,2.33,5.201,5.209,5.201h5.041v2.33c0,10.649,4.318,20.299,11.289,27.28c0,0,0.01,0.01,0.02,0.02
				c0.367,0.328,6.238,5.578,12.1,8.176c0.06,0.027,0.121,0.059,0.182,0.084v10.813v7.789v7.559v5.461
				c0,4.129,1.68,7.869,4.389,10.58c2.711,2.709,6.451,4.391,10.58,4.391c8.281,0,14.98-6.711,14.98-14.971v-5.461v-7.559v-7.789
				v-10.813c0.063-0.025,0.121-0.057,0.184-0.084c11.596-4.971,20.279-15.453,22.717-28.166c0.449-2.369,0.689-4.809,0.689-7.309
				v-2.33h5.051c1.439,0,2.74-0.58,3.68-1.521c0.939-0.939,1.529-2.238,1.529-3.68C164.231,125.203,161.891,122.873,159.022,122.873
				z M113.362,130.733c0-1.129,0.92-2.039,2.049-2.039c0.57,0,1.07,0.229,1.441,0.6c0.369,0.369,0.6,0.869,0.6,1.439v5.1
				c0,1.131-0.91,2.051-2.041,2.051c-0.568,0-1.08-0.23-1.449-0.6c-0.369-0.372-0.6-0.881-0.6-1.452V130.733z M126.791,155.794
				c0,6.35-5.15,11.5-11.5,11.5c-1.391,0-2.721-0.25-3.949-0.699c-4.4-1.611-7.541-5.842-7.541-10.801H126.791z M86.561,111.162
				c0.5-0.49,1.311-0.49,1.801,0l2.6,2.59c1.369-1.08,3.039-1.799,4.869-2.039v-3.48c0-0.699,0.57-1.27,1.271-1.27
				c0.699,0,1.27,0.57,1.27,1.27v3.48c1.73,0.219,3.311,0.891,4.641,1.869l2.42-2.42c0.5-0.5,1.309-0.5,1.799,0
				c0.5,0.5,0.5,1.301,0,1.801l-2.369,2.379c1.379,1.711,2.209,3.891,2.209,6.25c0,0.711-0.57,1.281-1.27,1.281
				c-0.699,0-1.27-0.57-1.27-1.281c0-1.979-0.791-3.779-2.07-5.119c-0.109-0.061-0.231-0.119-0.32-0.211
				c-0.08-0.08-0.119-0.17-0.17-0.26c-1.311-1.139-3.01-1.83-4.869-1.83c-4.101,0-7.43,3.33-7.43,7.42
				c0,0.711-0.57,1.281-1.272,1.281c-0.709,0-1.27-0.57-1.27-1.281c0-2.26,0.77-4.34,2.041-6.019l-2.611-2.609
				C86.071,112.463,86.071,111.662,86.561,111.162z M94.352,146.634c-4.031,0-7.291-1.961-7.291-4.371
				c0-2.42,3.26-4.379,7.291-4.379c4.029,0,7.289,1.959,7.289,4.379C101.641,144.673,98.381,146.634,94.352,146.634z
				 M143.711,142.704c-0.369,2.209-3.471,3.93-7.25,3.93c-1.76,0-3.381-0.381-4.641-1c-1.619-0.801-2.648-2.01-2.648-3.371
				c0-2.42,3.26-4.379,7.289-4.379c4.029,0,7.289,1.959,7.289,4.379C143.751,142.413,143.741,142.564,143.711,142.704z
				 M144.251,112.963l-2.379,2.379c1.379,1.711,2.221,3.891,2.221,6.25c0,0.711-0.57,1.281-1.281,1.281
				c-0.699,0-1.27-0.57-1.27-1.281c0-1.979-0.791-3.779-2.061-5.119c-0.119-0.061-0.23-0.119-0.33-0.211
				c-0.07-0.08-0.109-0.17-0.17-0.26c-1.299-1.139-3-1.83-4.869-1.83c-4.09,0-7.42,3.33-7.42,7.42c0,0.711-0.57,1.281-1.281,1.281
				c-0.699,0-1.27-0.57-1.27-1.281c0-2.26,0.77-4.34,2.051-6.019l-2.611-2.609c-0.5-0.5-0.5-1.301,0-1.801
				c0.5-0.49,1.301-0.49,1.801,0l2.59,2.59c1.381-1.08,3.051-1.799,4.871-2.039v-3.48c0-0.699,0.568-1.27,1.27-1.27
				c0.709,0,1.279,0.57,1.279,1.27v3.48c1.721,0.219,3.301,0.891,4.641,1.869l2.42-2.42c0.49-0.5,1.299-0.5,1.799,0
				S144.751,112.463,144.251,112.963z"/>
			<path style="fill:#F0505E;" d="M105.842,90.393c12.75,6.391,29.43,12.141,48.129,12.141V89.002
				c0-10.66-4.311-20.299-11.289-27.279c-6.76-6.76-16.021-11.02-26.281-11.279c-0.33-0.012-0.67-0.012-1-0.012
				c-15.77,0-29.32,9.461-35.289,23.012c-2.1,4.76-3.27,10.02-3.27,15.559v13.531C76.842,102.533,92.432,105.732,105.842,90.393z"/>
		</g>
		<path style="fill:#F27998;" d="M136.461,137.884c-4.029,0-7.289,1.959-7.289,4.379c0,1.361,1.029,2.57,2.648,3.371
			c1.26,0.619,2.881,1,4.641,1c3.779,0,6.881-1.721,7.25-3.93c0.029-0.141,0.039-0.291,0.039-0.441
			C143.751,139.843,140.491,137.884,136.461,137.884z"/>
		<path d="M126.192,115.572c-1.281,1.68-2.051,3.76-2.051,6.019c0,0.711,0.57,1.281,1.27,1.281c0.711,0,1.281-0.57,1.281-1.281
			c0-4.09,3.33-7.42,7.42-7.42c1.869,0,3.57,0.691,4.869,1.83c0.061,0.09,0.1,0.18,0.17,0.26c0.1,0.092,0.211,0.15,0.33,0.211
			c1.27,1.34,2.061,3.141,2.061,5.119c0,0.711,0.57,1.281,1.27,1.281c0.711,0,1.281-0.57,1.281-1.281
			c0-2.359-0.842-4.539-2.221-6.25l2.379-2.379c0.5-0.5,0.5-1.301,0-1.801s-1.309-0.5-1.799,0l-2.42,2.42
			c-1.34-0.979-2.92-1.65-4.641-1.869v-3.48c0-0.699-0.57-1.27-1.279-1.27c-0.701,0-1.27,0.57-1.27,1.27v3.48
			c-1.82,0.24-3.49,0.959-4.871,2.039l-2.59-2.59c-0.5-0.49-1.301-0.49-1.801,0c-0.5,0.5-0.5,1.301,0,1.801L126.192,115.572z"/>
		<path style="opacity:0.1;fill:#231F20;" d="M130.381,171.173c0.063-0.025,0.121-0.057,0.184-0.084h-30.314
			c0.06,0.027,0.121,0.059,0.182,0.084v10.813h29.949V171.173z"/>
		<path style="opacity:0.1;fill:#231F20;" d="M96.116,107.467c0.232-0.299,0.58-0.504,0.986-0.504c0.076,0,0.143,0.031,0.215,0.043
			c4.813-1.965,8.949-5.176,11.625-10.143c7.109,6.602,15.252,10.104,23.9,11.565v-0.195c0-0.699,0.568-1.27,1.27-1.27
			c0.709,0,1.279,0.57,1.279,1.27v0.566c6.033,0.738,12.285,0.553,18.58-0.217v-6.049c-18.699,0-35.379-5.75-48.129-12.141
			c-13.41,15.34-29,12.141-29,12.141v6.908C83.241,109.971,90.131,109.611,96.116,107.467z"/>
		<path style="fill:#FFFFFF;" d="M126.791,155.794h-22.99c0,4.959,3.141,9.189,7.541,10.801c1.229,0.449,2.559,0.699,3.949,0.699
			C121.641,167.294,126.791,162.144,126.791,155.794z"/>
		<path style="fill:#F27998;" d="M115.411,137.884c1.131,0,2.041-0.92,2.041-2.051v-5.1c0-0.57-0.23-1.07-0.6-1.439
			c-0.371-0.371-0.871-0.6-1.441-0.6c-1.129,0-2.049,0.91-2.049,2.039v5.1c0,0.57,0.23,1.08,0.6,1.452
			C114.331,137.653,114.842,137.884,115.411,137.884z"/>
		<path style="fill:#FFFFFF;" d="M166.092,197.333h-35.711v5.461c0,8.26-6.699,14.971-14.98,14.971
			c-4.129,0-7.869-1.682-10.58-4.391c-2.709-2.711-4.389-6.451-4.389-10.58v-5.461H64.731c0,0-7.18,0.951-7.18,11.961v21.52h19.961
			h75.789h19.961v-21.52C173.262,198.284,166.092,197.333,166.092,197.333z"/>
		<path style="opacity:0.1;fill:#231F20;" d="M122.876,223.48c4-1,9.971-4.719,10.971-8.719c2.449-5.715,3.258-11.713,2.197-17.428
			h-5.662v5.461c0,8.26-6.699,14.971-14.98,14.971c-4.129,0-7.869-1.682-10.58-4.391c-2.709-2.711-4.389-6.451-4.389-10.58v-5.461
			h-7.287C89.516,215.038,104.836,229.175,122.876,223.48z"/>
		<path style="fill:#F27998;" d="M101.641,142.263c0-2.42-3.26-4.379-7.289-4.379c-4.031,0-7.291,1.959-7.291,4.379
			c0,2.41,3.26,4.371,7.291,4.371C98.381,146.634,101.641,144.673,101.641,142.263z"/>
		<path d="M87.131,121.592c0,0.711,0.561,1.281,1.27,1.281c0.701,0,1.272-0.57,1.272-1.281c0-4.09,3.328-7.42,7.43-7.42
			c1.859,0,3.559,0.691,4.869,1.83c0.051,0.09,0.09,0.18,0.17,0.26c0.09,0.092,0.211,0.15,0.32,0.211
			c1.279,1.34,2.07,3.141,2.07,5.119c0,0.711,0.57,1.281,1.27,1.281c0.699,0,1.27-0.57,1.27-1.281c0-2.359-0.83-4.539-2.209-6.25
			l2.369-2.379c0.5-0.5,0.5-1.301,0-1.801c-0.49-0.5-1.299-0.5-1.799,0l-2.42,2.42c-1.33-0.979-2.91-1.65-4.641-1.869v-3.48
			c0-0.699-0.57-1.27-1.27-1.27c-0.701,0-1.271,0.57-1.271,1.27v3.48c-1.83,0.24-3.5,0.959-4.869,2.039l-2.6-2.59
			c-0.49-0.49-1.301-0.49-1.801,0c-0.49,0.5-0.49,1.301,0,1.801l2.611,2.609C87.901,117.252,87.131,119.332,87.131,121.592z"/>
		<path style="fill:#F27998;" d="M88.151,162.913c-0.01-0.01-0.02-0.02-0.02-0.02c-6.971-6.98-11.289-16.631-11.289-27.28v-2.33
			h-5.041c-2.879,0-5.209-2.33-5.209-5.201c0-1.44,0.58-2.741,1.529-3.68c0.939-0.949,2.24-1.529,3.68-1.529h5.041v-20.34V89.002
			c0-5.539,1.17-10.799,3.27-15.559c5.969-13.551,19.52-23.012,35.289-23.012c0.33,0,0.67,0,1,0.012
			c10.26,0.26,19.522,4.519,26.281,11.279c6.979,6.98,11.289,16.619,11.289,27.279v13.531v20.34h5.051
			c2.869,0,5.209,2.33,5.209,5.209c0,1.441-0.59,2.74-1.529,3.68c-0.94,0.941-2.24,1.521-3.68,1.521h-5.051v2.33
			c0,2.501-0.24,4.94-0.689,7.309c-2.451,12.781-11.211,23.311-22.9,28.25v18.602h40.08v-61.692v-30.09
			c0-15.199-6.16-28.959-16.131-38.93c-9.719-9.721-23.059-15.82-37.818-16.1c-0.371-0.019-0.74-0.019-1.111-0.019
			c-30.4,0-55.049,24.648-55.049,55.049v30.09v61.692h40.08v-18.602C94.512,168.605,88.522,163.243,88.151,162.913z"/>
	</g>
</g>
<g>
</g>
<g>
</g>
<g>
</g>
<g>
</g>
<g>
</g>
<g>
</g>
<g>
</g>
<g>
</g>
<g>
</g>
<g>
</g>
<g>
</g>
<g>
</g>
<g>
</g>
<g>
</g>
<g>
</g>
</svg>
