<?xml version="1.0" encoding="iso-8859-1"?>
<!-- Generator: Adobe Illustrator 18.0.0, SVG Export Plug-In . SVG Version: 6.00 Build 0)  -->
<!DOCTYPE svg PUBLIC "-//W3C//DTD SVG 1.1//EN" "http://www.w3.org/Graphics/SVG/1.1/DTD/svg11.dtd">
<svg version="1.1" id="Capa_1" xmlns="http://www.w3.org/2000/svg" xmlns:xlink="http://www.w3.org/1999/xlink" x="0px" y="0px"
	 viewBox="0 0 230.813 230.813" style="enable-background:new 0 0 230.813 230.813;" xml:space="preserve">
<g>
	<rect x="0" y="0" style="fill:#F7DC94;" width="230.813" height="230.813"/>
	<g>
		<polygon style="fill:#0D9A91;" points="138.23,185.412 130.381,185.412 100.441,185.412 92.582,185.412 92.582,190.262 
			138.23,190.262 		"/>
		<path style="fill:#FFFFFF;" d="M115.291,166.852c6.35,0,11.49-5.15,11.49-11.49h-22.981
			C103.801,161.701,108.941,166.852,115.291,166.852z"/>
		<path d="M87.131,121.162c0,0.699,0.561,1.27,1.27,1.27c0.701,0,1.271-0.57,1.271-1.27c0-4.09,3.33-7.43,7.43-7.43
			c1.859,0,3.561,0.699,4.869,1.83c0.051,0.09,0.09,0.189,0.17,0.26c0.09,0.1,0.211,0.16,0.32,0.219
			c1.281,1.33,2.07,3.131,2.07,5.121c0,0.699,0.56,1.27,1.269,1.27c0.701,0,1.27-0.57,1.27-1.27c0-2.371-0.828-4.541-2.219-6.26
			l2.379-2.381c0.5-0.49,0.5-1.301,0-1.789c-0.488-0.5-1.299-0.5-1.799,0l-2.42,2.42c-1.33-0.99-2.91-1.65-4.641-1.871v-3.481
			c0-0.699-0.57-1.269-1.27-1.269c-0.711,0-1.27,0.57-1.27,1.269v3.481c-1.83,0.23-3.5,0.961-4.881,2.041l-2.59-2.59
			c-0.49-0.5-1.301-0.5-1.801,0c-0.49,0.488-0.49,1.299,0,1.799l2.611,2.6C87.891,116.813,87.131,118.891,87.131,121.162z"/>
		<path d="M126.182,115.131c-1.27,1.682-2.041,3.76-2.041,6.031c0,0.699,0.57,1.27,1.271,1.27c0.709,0,1.27-0.57,1.27-1.27
			c0-4.09,3.34-7.43,7.43-7.43c1.869,0,3.57,0.699,4.869,1.83c0.051,0.09,0.102,0.189,0.17,0.26c0.102,0.1,0.211,0.16,0.33,0.219
			c1.271,1.33,2.061,3.131,2.061,5.121c0,0.699,0.57,1.27,1.27,1.27c0.711,0,1.281-0.57,1.281-1.27c0-2.371-0.84-4.541-2.221-6.26
			l2.381-2.381c0.49-0.49,0.49-1.301,0-1.789c-0.5-0.5-1.31-0.5-1.801,0l-2.42,2.42c-1.34-0.99-2.92-1.65-4.641-1.871v-3.481
			c0-0.699-0.57-1.269-1.279-1.269c-0.699,0-1.27,0.57-1.27,1.269v3.481c-1.82,0.23-3.49,0.961-4.871,2.041l-2.59-2.59
			c-0.5-0.5-1.311-0.5-1.799,0c-0.5,0.488-0.5,1.299,0,1.799L126.182,115.131z"/>
		<path style="fill:#F27998;" d="M136.461,137.451c-4.029,0-7.289,1.951-7.289,4.371c0,2.42,3.26,4.379,7.289,4.379
			c4.031,0,7.291-1.959,7.291-4.379C143.752,139.402,140.492,137.451,136.461,137.451z"/>
		<path style="fill:#F27998;" d="M115.412,137.451c1.129,0,2.039-0.92,2.039-2.049v-5.102c0-0.559-0.23-1.08-0.6-1.449
			c-0.359-0.369-0.881-0.6-1.439-0.6c-1.131,0-2.051,0.92-2.051,2.049v5.102c0,0.559,0.23,1.08,0.6,1.449
			C114.332,137.221,114.852,137.451,115.412,137.451z"/>
		<path style="fill:#F27998;" d="M101.641,141.822c0-2.42-3.26-4.371-7.289-4.371c-4.031,0-7.291,1.951-7.291,4.371
			c0,2.42,3.26,4.379,7.291,4.379C98.381,146.201,101.641,144.242,101.641,141.822z"/>
		<path style="fill:#F2855A;" d="M105.842,90.402c6.369,3.189,13.729,6.219,21.83,8.459c8.1,2.24,16.939,3.68,26.299,3.68V89.002
			c0-12.41-5.85-23.439-14.949-30.5l2.369-0.42l-7.889-3.15l3.16-0.51l-9.891-2.291l1.41-1.699l-9.631,0.131l3.43-1.98l-8.648,1.9
			l2.08-3.371l-9.9,4.6l4.24-5.41L98.32,54.422v-0.01c-12.729,6.309-21.479,19.43-21.479,34.59v13.539
			C76.842,102.541,92.432,105.732,105.842,90.402z"/>
		<path style="fill:#4FC3C8;" d="M166.092,197.332H138.23v-7.07H92.582v7.07H64.721c0,0-7.17,0.959-7.17,11.959v21.521h19.961
			h75.789h19.961v-21.521C173.262,198.291,166.092,197.332,166.092,197.332z"/>
		<rect x="92.582" y="190.262" style="opacity:0.1;fill:#231F20;" width="45.648" height="5.678"/>
		<path style="fill:#FAC9D6;" d="M130.381,171.172c13.861-5.85,23.59-19.561,23.59-35.551v-2.77h5.051c1.43,0,2.73-0.58,3.68-1.529
			c0.939-0.941,1.52-2.24,1.52-3.682c0-2.879-2.33-5.209-5.199-5.209h-5.051v-19.891c-9.359,0-18.199-1.439-26.299-3.68
			c-8.102-2.24-15.461-5.27-21.83-8.459c-13.41,15.33-29,12.139-29,12.139v19.891h-5.051c-1.439,0-2.74,0.58-3.68,1.529
			c-0.939,0.941-1.52,2.24-1.52,3.68c0,2.881,2.33,5.211,5.199,5.211h5.051v2.77c0,10.65,4.309,20.291,11.289,27.27
			c3.5,3.5,7.67,6.33,12.311,8.281v14.24h29.939V171.172z M115.291,166.852c-6.35,0-11.49-5.15-11.49-11.49h22.981
			C126.781,161.701,121.641,166.852,115.291,166.852z M136.461,146.201c-4.029,0-7.289-1.959-7.289-4.379
			c0-2.42,3.26-4.371,7.289-4.371c4.031,0,7.291,1.951,7.291,4.371C143.752,144.242,140.492,146.201,136.461,146.201z
			 M123.582,110.732c0.488-0.5,1.299-0.5,1.799,0l2.59,2.59c1.381-1.08,3.051-1.811,4.871-2.041v-3.481
			c0-0.699,0.57-1.269,1.27-1.269c0.709,0,1.279,0.57,1.279,1.269v3.481c1.721,0.221,3.301,0.881,4.641,1.871l2.42-2.42
			c0.49-0.5,1.301-0.5,1.801,0c0.49,0.488,0.49,1.299,0,1.789l-2.381,2.381c1.381,1.719,2.221,3.889,2.221,6.26
			c0,0.699-0.57,1.27-1.281,1.27c-0.699,0-1.27-0.57-1.27-1.27c0-1.99-0.789-3.791-2.061-5.121c-0.119-0.059-0.229-0.119-0.33-0.219
			c-0.068-0.07-0.119-0.17-0.17-0.26c-1.299-1.131-3-1.83-4.869-1.83c-4.09,0-7.43,3.34-7.43,7.43c0,0.699-0.561,1.27-1.27,1.27
			c-0.701,0-1.271-0.57-1.271-1.27c0-2.271,0.771-4.35,2.041-6.031l-2.6-2.6C123.082,112.031,123.082,111.221,123.582,110.732z
			 M113.361,130.301c0-1.129,0.92-2.049,2.051-2.049c0.559,0,1.08,0.23,1.439,0.6c0.369,0.369,0.6,0.891,0.6,1.449v5.102
			c0,1.129-0.91,2.049-2.039,2.049c-0.561,0-1.08-0.23-1.451-0.6c-0.369-0.369-0.6-0.891-0.6-1.449V130.301z M86.561,110.732
			c0.5-0.5,1.311-0.5,1.801,0l2.59,2.59c1.381-1.08,3.051-1.811,4.881-2.041v-3.481c0-0.699,0.559-1.269,1.27-1.269
			c0.699,0,1.27,0.57,1.27,1.269v3.481c1.73,0.221,3.311,0.881,4.641,1.871l2.42-2.42c0.5-0.5,1.311-0.5,1.799,0
			c0.5,0.488,0.5,1.299,0,1.789l-2.379,2.381c1.391,1.719,2.219,3.889,2.219,6.26c0,0.699-0.568,1.27-1.27,1.27
			c-0.709,0-1.269-0.57-1.269-1.27c0-1.99-0.789-3.791-2.07-5.121c-0.109-0.059-0.23-0.119-0.32-0.219
			c-0.08-0.07-0.119-0.17-0.17-0.26c-1.309-1.131-3.01-1.83-4.869-1.83c-4.1,0-7.43,3.34-7.43,7.43c0,0.699-0.57,1.27-1.271,1.27
			c-0.709,0-1.27-0.57-1.27-1.27c0-2.271,0.76-4.35,2.041-6.031l-2.611-2.6C86.07,112.031,86.07,111.221,86.561,110.732z
			 M94.352,146.201c-4.031,0-7.291-1.959-7.291-4.379c0-2.42,3.26-4.371,7.291-4.371c4.029,0,7.289,1.951,7.289,4.371
			C101.641,144.242,98.381,146.201,94.352,146.201z"/>
		<path style="opacity:0.1;fill:#231F20;" d="M106.512,95.842c13.672,10.635,30.807,10.883,47.459,10.826v-4.127
			c-9.359,0-18.199-1.439-26.299-3.68c-8.102-2.24-15.461-5.27-21.83-8.459c-13.41,15.33-29,12.139-29,12.139v6.057
			C88.07,107.813,99.967,104.84,106.512,95.842z"/>
		<path style="opacity:0.1;fill:#231F20;" d="M130.381,171.172c0.104-0.043,0.205-0.092,0.307-0.137h-30.549
			c0.102,0.045,0.199,0.094,0.303,0.137v10.129h29.939V171.172z"/>
	</g>
</g>
<g>
</g>
<g>
</g>
<g>
</g>
<g>
</g>
<g>
</g>
<g>
</g>
<g>
</g>
<g>
</g>
<g>
</g>
<g>
</g>
<g>
</g>
<g>
</g>
<g>
</g>
<g>
</g>
<g>
</g>
</svg>
