<?xml version="1.0" encoding="iso-8859-1"?>
<!-- Generator: Adobe Illustrator 18.0.0, SVG Export Plug-In . SVG Version: 6.00 Build 0)  -->
<!DOCTYPE svg PUBLIC "-//W3C//DTD SVG 1.1//EN" "http://www.w3.org/Graphics/SVG/1.1/DTD/svg11.dtd">
<svg version="1.1" id="Capa_1" xmlns="http://www.w3.org/2000/svg" xmlns:xlink="http://www.w3.org/1999/xlink" x="0px" y="0px"
	 viewBox="0 0 230.813 230.813" style="enable-background:new 0 0 230.813 230.813;" xml:space="preserve">
<g>
	<rect x="0" y="0" style="fill:#FAC9D6;" width="230.813" height="230.813"/>
	<g>
		<path style="fill:#F7DC94;" d="M112.266,217.764c-4.141,0-7.881-1.682-10.59-4.391c-2.711-2.711-4.381-6.451-4.381-10.58v-5.461
			H61.584c0,0-7.17,0.951-7.17,11.961v21.52h19.951h75.799h19.951v-21.52c0-11.01-7.17-11.961-7.17-11.961h-35.711v5.461
			C127.234,211.053,120.535,217.764,112.266,217.764z"/>
		<path style="opacity:0.1;fill:#231F20;" d="M127.525,222.533c8.574-5.145,9.795-15.436,9.338-25.201h-9.629v5.461
			c0,8.26-6.699,14.971-14.969,14.971c-4.141,0-7.881-1.682-10.59-4.391c-2.711-2.711-4.381-6.451-4.381-10.58v-5.461h-8.652
			C82.67,219.674,108.316,233.098,127.525,222.533z"/>
		<path style="fill:#FFFFFF;" d="M112.154,167.293c6.34,0,11.49-5.15,11.49-11.5h-22.99
			C100.654,162.143,105.805,167.293,112.154,167.293z"/>
		<path d="M123.045,115.572c-1.27,1.68-2.039,3.76-2.039,6.02c0,0.711,0.559,1.281,1.27,1.281c0.699,0,1.27-0.57,1.27-1.281
			c0-4.09,3.33-7.42,7.43-7.42c1.859,0,3.561,0.691,4.871,1.83c0.049,0.09,0.09,0.18,0.17,0.26c0.09,0.09,0.209,0.15,0.318,0.211
			c1.281,1.34,2.07,3.141,2.07,5.119c0,0.711,0.57,1.281,1.271,1.281c0.699,0,1.27-0.57,1.27-1.281c0-2.359-0.83-4.539-2.211-6.25
			l2.371-2.379c0.5-0.5,0.5-1.301,0-1.801c-0.49-0.5-1.301-0.5-1.801,0l-2.42,2.42c-1.33-0.98-2.91-1.65-4.641-1.869v-3.48
			c0-0.699-0.568-1.27-1.27-1.27c-0.699,0-1.27,0.57-1.27,1.27v3.48c-1.83,0.24-3.5,0.959-4.871,2.039l-2.6-2.59
			c-0.49-0.49-1.299-0.49-1.799,0c-0.49,0.5-0.49,1.301,0,1.801L123.045,115.572z"/>
		<path d="M83.984,121.592c0,0.711,0.57,1.281,1.271,1.281c0.709,0,1.279-0.57,1.279-1.281c0-4.09,3.33-7.42,7.42-7.42
			c1.869,0,3.57,0.691,4.869,1.83c0.06,0.09,0.101,0.18,0.17,0.26c0.102,0.09,0.211,0.15,0.33,0.211
			c1.271,1.34,2.06,3.141,2.06,5.119c0,0.711,0.57,1.281,1.279,1.281c0.701,0,1.271-0.57,1.271-1.281c0-2.359-0.84-4.539-2.221-6.25
			l2.381-2.379c0.5-0.5,0.5-1.301,0-1.801s-1.301-0.5-1.801,0l-2.42,2.42c-1.33-0.98-2.92-1.65-4.641-1.869v-3.48
			c0-0.699-0.57-1.27-1.279-1.27c-0.699,0-1.27,0.57-1.27,1.27v3.48c-1.82,0.24-3.49,0.959-4.871,2.039l-2.59-2.59
			c-0.5-0.49-1.299-0.49-1.799,0c-0.5,0.5-0.5,1.301,0,1.801l2.6,2.609C84.756,117.252,83.984,119.332,83.984,121.592z"/>
		<path style="fill:#F27998;" d="M98.506,142.262c0-2.42-3.271-4.379-7.291-4.379c-4.029,0-7.301,1.959-7.301,4.379
			c0,2.41,3.271,4.371,7.301,4.371C95.234,146.633,98.506,144.672,98.506,142.262z"/>
		<path style="fill:#F27998;" d="M112.266,137.883c1.129,0,2.049-0.92,2.049-2.051v-5.1c0-0.561-0.23-1.08-0.6-1.44
			c-0.369-0.371-0.891-0.6-1.449-0.6c-1.131,0-2.041,0.908-2.041,2.039v5.1c0,0.561,0.23,1.08,0.6,1.451
			C111.186,137.652,111.705,137.883,112.266,137.883z"/>
		<path style="fill:#F27998;" d="M133.324,137.883c-4.029,0-7.299,1.959-7.299,4.379c0,2.41,3.27,4.371,7.299,4.371
			c4.031,0,7.291-1.961,7.291-4.371C140.615,139.842,137.355,137.883,133.324,137.883z"/>
		<path style="fill:#B8654E;" d="M127.234,171.172c3.781-1.59,7.25-3.77,10.301-6.42c8.15-7.068,13.299-17.5,13.299-29.139v-2.33
			h1.451h3.59c1.439,0,2.74-0.58,3.689-1.521c0.941-0.949,1.52-2.25,1.52-3.68c0-2.68-2.02-4.889-4.629-5.17
			c-0.189-0.029-0.381-0.039-0.58-0.039h-5.041v-10.051c-0.439-1.4-0.67-2.879-0.67-4.43c0-1.529,0.23-3.01,0.67-4.4v-1.09
			c-2.68,2.5-6.27,4.041-10.219,4.041c-5.041,0-9.49-2.49-12.211-6.291c-1.5,0.49-3.1,0.779-4.76,0.779
			c-5.26,0-9.889-2.709-12.57-6.809c-2.69,4.1-7.309,6.809-12.568,6.809c-2.691,0-5.201-0.719-7.381-1.949
			c-0.561,0.279-1.109,0.529-1.65,0.76c-2.699,4.041-7.289,6.701-12.51,6.701c-0.75,0-1.49-0.08-2.209-0.182
			c0.059,0.531,0.09,1.08,0.09,1.631c0,2.029-0.41,3.98-1.15,5.74v8.18v0.561h-5.041c-1.439,0-2.74,0.58-3.689,1.52
			c-0.939,0.949-1.52,2.25-1.52,3.689c0,2.871,2.33,5.201,5.209,5.201h5.041v2.33c0,2.689,0.279,5.318,0.799,7.859
			c1.551,7.5,5.281,14.199,10.5,19.42c3.301,3.301,7.201,6.01,11.521,7.939c0.26,0.121,0.52,0.23,0.779,0.34v18.602v7.039v0.52
			v5.461c0,4.129,1.67,7.869,4.381,10.58c2.709,2.709,6.449,4.391,10.59,4.391c8.27,0,14.969-6.711,14.969-14.971v-5.461v-4.41
			v-3.148V171.172z M133.324,146.633c-4.029,0-7.299-1.961-7.299-4.371c0-2.42,3.27-4.379,7.299-4.379
			c4.031,0,7.291,1.959,7.291,4.379C140.615,144.672,137.355,146.633,133.324,146.633z M120.436,111.162
			c0.5-0.49,1.309-0.49,1.799,0l2.6,2.59c1.371-1.08,3.041-1.799,4.871-2.039v-3.48c0-0.699,0.57-1.27,1.27-1.27
			c0.701,0,1.27,0.57,1.27,1.27v3.48c1.73,0.219,3.311,0.889,4.641,1.869l2.42-2.42c0.5-0.5,1.311-0.5,1.801,0
			c0.5,0.5,0.5,1.301,0,1.801l-2.371,2.379c1.381,1.711,2.211,3.891,2.211,6.25c0,0.711-0.57,1.281-1.27,1.281
			c-0.701,0-1.271-0.57-1.271-1.281c0-1.979-0.789-3.779-2.07-5.119c-0.109-0.061-0.229-0.121-0.318-0.211
			c-0.08-0.08-0.121-0.17-0.17-0.26c-1.311-1.139-3.012-1.83-4.871-1.83c-4.1,0-7.43,3.33-7.43,7.42c0,0.711-0.57,1.281-1.27,1.281
			c-0.711,0-1.27-0.57-1.27-1.281c0-2.26,0.77-4.34,2.039-6.02l-2.609-2.609C119.945,112.463,119.945,111.662,120.436,111.162z
			 M110.225,130.732c0-1.131,0.91-2.039,2.041-2.039c0.559,0,1.08,0.229,1.449,0.6c0.369,0.359,0.6,0.879,0.6,1.44v5.1
			c0,1.131-0.92,2.051-2.049,2.051c-0.561,0-1.08-0.23-1.441-0.6c-0.369-0.371-0.6-0.891-0.6-1.451V130.732z M123.645,155.793
			c0,6.35-5.15,11.5-11.49,11.5c-6.35,0-11.5-5.15-11.5-11.5H123.645z M83.426,111.162c0.5-0.49,1.299-0.49,1.799,0l2.59,2.59
			c1.381-1.08,3.051-1.799,4.871-2.039v-3.48c0-0.699,0.57-1.27,1.27-1.27c0.709,0,1.279,0.57,1.279,1.27v3.48
			c1.721,0.219,3.311,0.889,4.641,1.869l2.42-2.42c0.5-0.5,1.301-0.5,1.801,0s0.5,1.301,0,1.801l-2.381,2.379
			c1.381,1.711,2.221,3.891,2.221,6.25c0,0.711-0.57,1.281-1.271,1.281c-0.709,0-1.279-0.57-1.279-1.281
			c0-1.979-0.789-3.779-2.06-5.119c-0.119-0.061-0.229-0.121-0.33-0.211c-0.068-0.08-0.109-0.17-0.17-0.26
			c-1.299-1.139-3-1.83-4.869-1.83c-4.09,0-7.42,3.33-7.42,7.42c0,0.711-0.57,1.281-1.279,1.281c-0.701,0-1.271-0.57-1.271-1.281
			c0-2.26,0.771-4.34,2.041-6.02l-2.6-2.609C82.926,112.463,82.926,111.662,83.426,111.162z M91.215,146.633
			c-4.029,0-7.301-1.961-7.301-4.371c0-2.42,3.271-4.379,7.301-4.379c4.02,0,7.291,1.959,7.291,4.379
			C98.506,144.672,95.234,146.633,91.215,146.633z"/>
		<rect x="97.295" y="171.223" style="opacity:0.2;fill:#231F20;" width="29.939" height="10.816"/>
		<path style="opacity:0.1;fill:#231F20;" d="M136.885,113.582l2.42-2.42c0.053-0.053,0.119-0.076,0.178-0.117
			c-2.805,0.369-5.465-0.082-7.238-1.727v2.395C133.975,111.932,135.555,112.602,136.885,113.582z"/>
		<path style="opacity:0.2;fill:#231F20;" d="M77.525,110.533c5,0,13,0,13-7c6,6,16,3,21-2c-1,2,1,3,2,4
			c4.529,3.623,11.52-0.959,16.512,1.861c0.232-0.26,0.563-0.432,0.938-0.432c0.701,0,1.27,0.57,1.27,1.27v1.086
			c1.773,1.645,4.434,2.096,7.238,1.727c0.328-0.232,0.726-0.299,1.096-0.186c2.055-0.418,4.133-1.238,5.947-2.326
			c0,3.027,1.15,7.767,4.309,9.027v-4.738c-0.439-1.4-0.67-2.879-0.67-4.43c0-1.529,0.23-3.01,0.67-4.4v-1.09
			c-2.68,2.5-6.27,4.041-10.219,4.041c-5.041,0-9.49-2.49-12.211-6.291c-1.5,0.49-3.1,0.779-4.76,0.779
			c-5.26,0-9.889-2.709-12.57-6.809c-2.69,4.1-7.309,6.809-12.568,6.809c-2.691,0-5.201-0.719-7.381-1.949
			c-0.561,0.279-1.109,0.529-1.65,0.76c-2.699,4.041-7.289,6.701-12.51,6.701c-0.75,0-1.49-0.08-2.209-0.182
			c0.059,0.531,0.09,1.08,0.09,1.631c0,2.029-0.41,3.98-1.15,5.74v3.939C76.246,116.914,77.525,113.727,77.525,110.533z"/>
		<path style="fill:#3B2314;" d="M172.904,167.422c3.361-2.76,5.51-6.939,5.51-11.629c0-3.641-1.299-6.98-3.459-9.58
			c4.42-2.621,7.391-7.42,7.391-12.93c0-5.66-3.141-10.602-7.771-13.16c3.441-2.75,5.65-6.98,5.65-11.73
			c0-5.109-2.561-9.631-6.469-12.34c1.488-2.33,2.359-5.09,2.359-8.061c0-6.469-4.09-11.969-9.82-14.09
			c0.65-1.68,1.02-3.5,1.02-5.42c0-8.301-6.73-15.029-15.029-15.029c0-4.15-1.68-7.91-4.4-10.631c-2.721-2.721-6.48-4.4-10.629-4.4
			c-2.941,0-5.682,0.861-7.99,2.32c-2.291-5.391-7.631-9.17-13.852-9.17c-6.189,0-11.5,3.74-13.799,9.08
			c-2.291-1.4-4.971-2.231-7.859-2.231c-7.15,0-13.121,5-14.641,11.701c-1.68-0.65-3.5-1.031-5.42-1.031
			c-8.301,0-15.031,6.73-15.031,15.031c0,2.85,0.811,5.5,2.191,7.77c-6.42,1.721-11.141,7.551-11.141,14.51
			c0,3.291,1.07,6.33,2.869,8.811c-4.648,2.561-7.799,7.5-7.799,13.18c0,6.051,3.58,11.25,8.73,13.631
			c-3.121,2.76-5.102,6.769-5.102,11.26c0,5.199,2.641,9.779,6.65,12.479c-4.01,2.701-6.65,7.281-6.65,12.471
			c0,3.23,1.031,6.211,2.762,8.66c-3.861,2.721-6.391,7.199-6.391,12.291c0,8.299,6.73,15.029,15.029,15.029
			c3.83,0,7.32-1.449,9.981-3.811c2.65,2.361,6.141,3.811,9.98,3.811c4.17,0,7.939-1.699,10.67-4.439
			c0.07-0.07,0.15-0.15,0.219-0.231c0.031,0.08,0.061,0.16,0.102,0.231c1.35,3,3.66,5.469,6.529,7.039v-7.039v-18.602
			c-0.26-0.109-0.52-0.219-0.779-0.34c-4.32-1.93-8.221-4.639-11.521-7.939c-5.219-5.221-8.949-11.92-10.5-19.42
			c-0.52-2.541-0.799-5.17-0.799-7.859v-2.33h-5.041c-2.879,0-5.209-2.33-5.209-5.201c0-1.439,0.58-2.74,1.52-3.689
			c0.949-0.939,2.25-1.52,3.689-1.52h5.041v-0.561v-8.18c0.74-1.76,1.15-3.711,1.15-5.74c0-0.551-0.031-1.1-0.09-1.631
			c0.719,0.101,1.459,0.182,2.209,0.182c5.221,0,9.81-2.66,12.51-6.701c0.541-0.23,1.09-0.48,1.65-0.76
			c2.18,1.23,4.689,1.949,7.381,1.949c5.26,0,9.879-2.709,12.568-6.809c2.682,4.1,7.31,6.809,12.57,6.809
			c1.66,0,3.26-0.289,4.76-0.779c2.721,3.801,7.17,6.291,12.211,6.291c3.949,0,7.539-1.541,10.219-4.041v1.09
			c-0.439,1.391-0.67,2.871-0.67,4.4c0,1.551,0.23,3.029,0.67,4.43v10.051h5.041c0.199,0,0.391,0.01,0.58,0.039
			c2.609,0.281,4.629,2.49,4.629,5.17c0,1.43-0.578,2.73-1.52,3.68c-0.949,0.941-2.25,1.521-3.689,1.521h-3.59h-1.451v2.33
			c0,11.639-5.148,22.07-13.299,29.139c-3.051,2.65-6.52,4.83-10.301,6.42v18.602v3.148c1.861,0.83,3.92,1.291,6.09,1.291
			c2.74,0,5.311-0.73,7.521-2.01c2.209,1.279,4.779,2.01,7.51,2.01c3.83,0,7.32-1.449,9.979-3.811
			c2.672,4.17,7.33,6.939,12.65,6.939c8.311,0,15.041-6.729,15.041-15.029C186.025,174.662,180.295,168.363,172.904,167.422z"/>
	</g>
</g>
<g>
</g>
<g>
</g>
<g>
</g>
<g>
</g>
<g>
</g>
<g>
</g>
<g>
</g>
<g>
</g>
<g>
</g>
<g>
</g>
<g>
</g>
<g>
</g>
<g>
</g>
<g>
</g>
<g>
</g>
</svg>
