<?xml version="1.0" encoding="iso-8859-1"?>
<!-- Generator: Adobe Illustrator 18.0.0, SVG Export Plug-In . SVG Version: 6.00 Build 0)  -->
<!DOCTYPE svg PUBLIC "-//W3C//DTD SVG 1.1//EN" "http://www.w3.org/Graphics/SVG/1.1/DTD/svg11.dtd">
<svg version="1.1" id="Capa_1" xmlns="http://www.w3.org/2000/svg" xmlns:xlink="http://www.w3.org/1999/xlink" x="0px" y="0px"
	 viewBox="0 0 230.813 230.813" style="enable-background:new 0 0 230.813 230.813;" xml:space="preserve">
<g>
	<rect x="0" y="0" style="fill:#F2855A;" width="230.813" height="230.813"/>
	<g>
		<polygon style="fill:#95DBDE;" points="113.793,224.344 109.314,224.344 109.314,230.813 118.283,230.813 118.283,224.344 		"/>
		<polygon style="fill:#4FC3C8;" points="105.145,220.184 109.314,224.344 113.793,224.344 118.283,224.344 122.434,220.203 
			113.754,212.264 		"/>
		<path style="fill:#FFFFFF;" d="M105.145,220.184l-6.32,5.82v-28.672H63.113c0,0-7.17,0.951-7.17,11.961v21.52h19.951h33.42v-6.469
			L105.145,220.184z"/>
		<path style="fill:#FFFFFF;" d="M164.484,197.332h-35.711v28.672l-6.34-5.801l-4.15,4.141v6.469h33.41h19.961v-21.52
			C171.654,198.283,164.484,197.332,164.484,197.332z"/>
		<polygon style="fill:#CCCCCC;" points="122.434,220.203 128.773,226.004 128.773,197.332 113.754,212.264 		"/>
		<polygon style="fill:#CCCCCC;" points="105.145,220.184 113.754,212.264 98.824,197.332 98.824,226.004 		"/>
		<polygon style="opacity:0.1;fill:#231F20;" points="128.773,197.332 113.754,212.264 117.852,216.012 128.773,205.09 		"/>
		<polygon style="opacity:0.1;fill:#231F20;" points="113.754,212.264 98.824,197.332 98.824,205.188 109.662,216.027 		"/>
		<path style="fill:#B8654E;" d="M95.975,91.553h56.389c30.23,0,21.26-41.789,21.26-41.789c-8.76,11.939-59.939,9.41-59.939,9.41
			c-21.24,0-38.449,11.109-38.449,38.449v4.609v9.74C75.234,92.242,95.975,91.553,95.975,91.553z"/>
		<path style="fill:#FAC9D6;" d="M128.773,197.332v-26.158v-0.012c13.859-5.84,23.59-19.559,23.59-35.549v-2.33h5.051
			c1.439,0,2.74-0.58,3.68-1.52c0.939-0.941,1.52-2.24,1.52-3.682c0-2.879-2.33-5.209-5.199-5.209h-5.051v-10.811v-9.83v-10.68
			H95.975c0,0-20.74,0.689-20.74,20.42v0.09v10.811h-5.051c-1.43,0-2.73,0.58-3.68,1.529c-0.94,0.941-1.52,2.24-1.52,3.68
			c0,2.871,2.33,5.201,5.199,5.201h5.051v2.33c0,10.65,4.318,20.299,11.289,27.279c3.5,3.5,7.67,6.32,12.301,8.281v26.158
			l14.93,14.932L128.773,197.332z M113.684,167.293c-6.35,0-11.49-5.15-11.49-11.5h22.98
			C125.174,162.143,120.033,167.293,113.684,167.293z M134.854,146.633c-4.029,0-7.289-1.959-7.289-4.369
			c0-2.42,3.26-4.381,7.289-4.381s7.291,1.961,7.291,4.381C142.145,144.674,138.883,146.633,134.854,146.633z M121.975,111.162
			c0.488-0.488,1.299-0.488,1.799,0l2.59,2.592c1.381-1.08,3.051-1.801,4.871-2.041v-3.48c0-0.699,0.568-1.27,1.27-1.27
			c0.709,0,1.279,0.57,1.279,1.27v3.48c1.721,0.221,3.301,0.891,4.641,1.869l2.42-2.42c0.49-0.5,1.301-0.5,1.801,0
			c0.25,0.25,0.369,0.58,0.369,0.9c0,0.32-0.119,0.65-0.369,0.9l-2.381,2.381c1.381,1.709,2.221,3.889,2.221,6.25
			c0,0.709-0.57,1.279-1.281,1.279c-0.699,0-1.27-0.57-1.27-1.279c0-1.98-0.789-3.781-2.061-5.121
			c-0.119-0.061-0.229-0.119-0.33-0.209c-0.068-0.08-0.119-0.17-0.17-0.26c-1.299-1.141-3-1.83-4.869-1.83
			c-4.09,0-7.43,3.33-7.43,7.42c0,0.709-0.561,1.279-1.272,1.279c-0.439,0-0.818-0.221-1.049-0.561
			c-0.141-0.209-0.221-0.449-0.221-0.719c0-2.262,0.769-4.34,2.041-6.021l-2.6-2.609
			C121.475,112.463,121.475,111.662,121.975,111.162z M113.803,128.693c0.57,0,1.07,0.23,1.441,0.6c0.369,0.369,0.6,0.869,0.6,1.44
			v5.111c0,1.129-0.91,2.039-2.041,2.039c-0.568,0-1.078-0.23-1.449-0.6c-0.369-0.359-0.6-0.881-0.6-1.439v-5.111
			c0-0.5,0.18-0.94,0.471-1.299C112.604,128.982,113.164,128.693,113.803,128.693z M84.584,112.063c0-0.32,0.129-0.65,0.369-0.9
			c0.5-0.488,1.311-0.488,1.801,0l2.59,2.592c1.381-1.08,3.051-1.801,4.881-2.041v-3.48c0-0.699,0.559-1.27,1.27-1.27
			c0.699,0,1.27,0.57,1.27,1.27v3.48c1.73,0.221,3.311,0.891,4.641,1.869l2.42-2.42c0.5-0.5,1.309-0.5,1.799,0
			c0.5,0.5,0.5,1.301,0,1.801l-2.379,2.381c1.389,1.709,2.219,3.889,2.219,6.25c0,0.709-0.568,1.279-1.27,1.279
			c-0.709,0-1.27-0.57-1.27-1.279c0-1.98-0.791-3.781-2.07-5.121c-0.109-0.061-0.23-0.119-0.32-0.209
			c-0.08-0.08-0.119-0.17-0.17-0.26c-1.311-1.141-3.01-1.83-4.869-1.83c-4.1,0-7.43,3.33-7.43,7.42c0,0.709-0.57,1.279-1.271,1.279
			c-0.709,0-1.27-0.57-1.27-1.279c0-2.262,0.76-4.34,2.041-6.021l-2.611-2.609C84.713,112.713,84.584,112.383,84.584,112.063z
			 M92.744,146.633c-4.031,0-7.291-1.959-7.291-4.369c0-2.42,3.26-4.381,7.291-4.381c4.029,0,7.289,1.961,7.289,4.381
			C100.033,144.674,96.773,146.633,92.744,146.633z"/>
		<path style="opacity:0.1;fill:#231F20;" d="M152.363,101.371v-9.818H95.975c0,0-20.74,0.689-20.74,20.42v0.09v3.133
			C91.695,92.939,124.813,99.838,152.363,101.371z"/>
		<rect x="98.824" y="171.176" style="opacity:0.1;fill:#231F20;" width="29.949" height="10.899"/>
		<path d="M124.574,115.572c-1.272,1.682-2.041,3.76-2.041,6.021c0,0.27,0.08,0.51,0.221,0.719c0.23,0.34,0.609,0.561,1.049,0.561
			c0.711,0,1.272-0.57,1.272-1.279c0-4.09,3.34-7.42,7.43-7.42c1.869,0,3.57,0.689,4.869,1.83c0.051,0.09,0.102,0.18,0.17,0.26
			c0.102,0.09,0.211,0.148,0.33,0.209c1.271,1.34,2.061,3.141,2.061,5.121c0,0.709,0.57,1.279,1.27,1.279
			c0.711,0,1.281-0.57,1.281-1.279c0-2.361-0.84-4.541-2.221-6.25l2.381-2.381c0.25-0.25,0.369-0.58,0.369-0.9
			c0-0.32-0.119-0.65-0.369-0.9c-0.5-0.5-1.311-0.5-1.801,0l-2.42,2.42c-1.34-0.979-2.92-1.648-4.641-1.869v-3.48
			c0-0.699-0.57-1.27-1.279-1.27c-0.701,0-1.27,0.57-1.27,1.27v3.48c-1.82,0.24-3.49,0.961-4.871,2.041l-2.59-2.592
			c-0.5-0.488-1.31-0.488-1.799,0c-0.5,0.5-0.5,1.301,0,1.801L124.574,115.572z"/>
		<path style="fill:#F27998;" d="M134.854,137.883c-4.029,0-7.289,1.961-7.289,4.381c0,2.41,3.26,4.369,7.289,4.369
			s7.291-1.959,7.291-4.369C142.145,139.844,138.883,137.883,134.854,137.883z"/>
		<path style="fill:#FFFFFF;" d="M113.684,167.293c6.35,0,11.49-5.15,11.49-11.5h-22.98
			C102.193,162.143,107.334,167.293,113.684,167.293z"/>
		<path style="fill:#F27998;" d="M111.754,135.844c0,0.559,0.23,1.08,0.6,1.439c0.371,0.369,0.881,0.6,1.449,0.6
			c1.131,0,2.041-0.91,2.041-2.039v-5.111c0-0.57-0.23-1.07-0.6-1.44c-0.371-0.369-0.871-0.6-1.441-0.6
			c-0.639,0-1.199,0.289-1.578,0.74c-0.291,0.359-0.471,0.799-0.471,1.299V135.844z"/>
		<path d="M85.523,121.594c0,0.709,0.561,1.279,1.27,1.279c0.701,0,1.271-0.57,1.271-1.279c0-4.09,3.33-7.42,7.43-7.42
			c1.859,0,3.559,0.689,4.869,1.83c0.051,0.09,0.09,0.18,0.17,0.26c0.09,0.09,0.211,0.148,0.32,0.209
			c1.279,1.34,2.07,3.141,2.07,5.121c0,0.709,0.561,1.279,1.27,1.279c0.701,0,1.27-0.57,1.27-1.279c0-2.361-0.83-4.541-2.219-6.25
			l2.379-2.381c0.5-0.5,0.5-1.301,0-1.801c-0.49-0.5-1.299-0.5-1.799,0l-2.42,2.42c-1.33-0.979-2.91-1.648-4.641-1.869v-3.48
			c0-0.699-0.57-1.27-1.27-1.27c-0.711,0-1.27,0.57-1.27,1.27v3.48c-1.83,0.24-3.5,0.961-4.881,2.041l-2.59-2.592
			c-0.49-0.488-1.301-0.488-1.801,0c-0.24,0.25-0.369,0.58-0.369,0.9c0,0.32,0.129,0.65,0.369,0.9l2.611,2.609
			C86.283,117.254,85.523,119.332,85.523,121.594z"/>
		<path style="fill:#F27998;" d="M100.033,142.264c0-2.42-3.26-4.381-7.289-4.381c-4.031,0-7.291,1.961-7.291,4.381
			c0,2.41,3.26,4.369,7.291,4.369C96.773,146.633,100.033,144.674,100.033,142.264z"/>
	</g>
</g>
<g>
</g>
<g>
</g>
<g>
</g>
<g>
</g>
<g>
</g>
<g>
</g>
<g>
</g>
<g>
</g>
<g>
</g>
<g>
</g>
<g>
</g>
<g>
</g>
<g>
</g>
<g>
</g>
<g>
</g>
</svg>
