<?xml version="1.0" encoding="iso-8859-1"?>
<!-- Generator: Adobe Illustrator 18.0.0, SVG Export Plug-In . SVG Version: 6.00 Build 0)  -->
<!DOCTYPE svg PUBLIC "-//W3C//DTD SVG 1.1//EN" "http://www.w3.org/Graphics/SVG/1.1/DTD/svg11.dtd">
<svg version="1.1" id="Capa_1" xmlns="http://www.w3.org/2000/svg" xmlns:xlink="http://www.w3.org/1999/xlink" x="0px" y="0px"
	 viewBox="0 0 230.814 230.814" style="enable-background:new 0 0 230.814 230.814;" xml:space="preserve">
<g>
	<rect x="0" y="0" style="fill:#4FC3C8;" width="230.813" height="230.814"/>
	<g>
		<path style="fill:#F7DC94;" d="M115.411,84.131c11.17,24.871,38.561,18.9,38.561,18.9V88.992c0-10.65-4.32-20.291-11.301-27.272
			c-2.5-2.5-5.34-4.658-8.449-6.398c1.58-0.852,2.898-2.111,3.84-3.641c0.92-1.529,1.459-3.32,1.459-5.24
			c0-5.56-4.5-10.07-10.07-10.07h-28.09c-2.779,0-5.299,1.131-7.119,2.951c-1.82,1.818-2.951,4.34-2.951,7.119
			c0,3.84,2.15,7.17,5.301,8.881c-11.789,6.59-19.75,19.199-19.75,33.67v14.039C76.84,103.031,104.231,109.002,115.411,84.131z"/>
		<path style="fill:#FFFFFF;" d="M115.289,167.282c6.352,0,11.49-5.15,11.49-11.5h-22.979
			C103.801,162.132,108.94,167.282,115.289,167.282z"/>
		<path d="M126.18,115.563c-1.27,1.68-2.039,3.76-2.039,6.029c0,0.699,0.568,1.27,1.27,1.27c0.709,0,1.279-0.57,1.279-1.27
			c0-4.1,3.33-7.43,7.42-7.43c1.871,0,3.57,0.699,4.871,1.83c0.049,0.09,0.1,0.18,0.17,0.26c0.1,0.1,0.209,0.16,0.33,0.219
			c1.27,1.33,2.059,3.131,2.059,5.121c0,0.699,0.57,1.27,1.271,1.27c0.709,0,1.279-0.57,1.279-1.27c0-2.371-0.84-4.541-2.221-6.26
			l2.381-2.381c0.49-0.49,0.49-1.299,0-1.799c-0.5-0.49-1.311-0.49-1.801,0l-2.42,2.43c-1.34-0.99-2.92-1.65-4.639-1.871v-3.479
			c0-0.701-0.57-1.281-1.281-1.281c-0.699,0-1.27,0.58-1.27,1.281v3.479c-1.82,0.23-3.49,0.951-4.869,2.041l-2.59-2.6
			c-0.5-0.49-1.311-0.49-1.801,0c-0.5,0.5-0.5,1.309,0,1.799L126.18,115.563z"/>
		<path d="M87.131,121.592c0,0.699,0.559,1.27,1.27,1.27c0.699,0,1.27-0.57,1.27-1.27c0-4.1,3.33-7.43,7.43-7.43
			c1.859,0,3.561,0.699,4.871,1.83c0.049,0.09,0.09,0.18,0.17,0.26c0.09,0.1,0.209,0.16,0.318,0.219
			c1.281,1.33,2.07,3.131,2.07,5.121c0,0.699,0.561,1.27,1.271,1.27c0.699,0,1.27-0.57,1.27-1.27c0-2.371-0.83-4.541-2.211-6.26
			l2.371-2.381c0.5-0.49,0.5-1.299,0-1.799c-0.49-0.49-1.301-0.49-1.801,0l-2.42,2.43c-1.33-0.99-2.91-1.65-4.641-1.871v-3.479
			c0-0.701-0.568-1.281-1.27-1.281c-0.709,0-1.27,0.58-1.27,1.281v3.479c-1.83,0.23-3.5,0.951-4.881,2.041l-2.59-2.6
			c-0.49-0.49-1.299-0.49-1.799,0c-0.49,0.5-0.49,1.309,0,1.799l2.609,2.611C87.891,117.242,87.131,119.322,87.131,121.592z"/>
		<path style="fill:#F27998;" d="M136.459,137.872c-4.029,0-7.289,1.961-7.289,4.381c0,2.42,3.26,4.379,7.289,4.379
			c4.031,0,7.291-1.959,7.291-4.379C143.751,139.833,140.491,137.872,136.459,137.872z"/>
		<path style="fill:#F27998;" d="M101.641,142.253c0-2.42-3.26-4.381-7.291-4.381c-4.029,0-7.289,1.961-7.289,4.381
			c0,2.42,3.26,4.379,7.289,4.379C98.381,146.632,101.641,144.673,101.641,142.253z"/>
		<path style="fill:#F27998;" d="M115.411,137.872c1.129,0,2.039-0.911,2.039-2.04v-5.1c0-0.561-0.229-1.08-0.6-1.451
			c-0.369-0.369-0.869-0.6-1.439-0.6c-1.131,0-2.051,0.92-2.051,2.051v5.1c0,0.559,0.23,1.08,0.6,1.44
			C114.33,137.642,114.84,137.872,115.411,137.872z"/>
		<path style="fill:#EA5A45;" d="M166.09,197.333h-5.279L75.84,217.212l-18.289,4.281v9.32H77.51h75.791h19.959v-21.531
			C173.26,198.282,166.09,197.333,166.09,197.333z"/>
		<path style="opacity:0.1;fill:#231F20;" d="M166.09,197.333h-5.279L75.84,217.212l-18.289,4.281v8.297l114.5-27.219
			C170.006,197.857,166.09,197.333,166.09,197.333z"/>
		<path style="fill:#FAC9D6;" d="M160.811,197.333h-30.43v-26.16c13.859-5.85,23.59-19.57,23.59-35.561v-2.33h5.049
			c1.439,0,2.74-0.58,3.68-1.529c0.941-0.939,1.531-2.24,1.531-3.68c0-2.881-2.34-5.212-5.211-5.212h-5.049v-19.83
			c0,0-27.391,5.971-38.561-18.9c-11.18,24.871-38.57,18.9-38.57,18.9v19.83H71.79c-1.43,0-2.729,0.58-3.68,1.529
			c-0.939,0.941-1.52,2.24-1.52,3.682c0,2.879,2.33,5.209,5.199,5.209h5.051v2.33c0,10.651,4.32,20.292,11.291,27.27
			c3.5,3.5,7.68,6.34,12.309,8.291v26.16H64.721c0,0-7.17,0.949-7.17,11.949v12.211l18.289-4.281L160.811,197.333z M136.459,146.632
			c-4.029,0-7.289-1.959-7.289-4.379c0-2.42,3.26-4.381,7.289-4.381c4.031,0,7.291,1.961,7.291,4.381
			C143.751,144.673,140.491,146.632,136.459,146.632z M123.58,111.152c0.49-0.49,1.301-0.49,1.801,0l2.59,2.6
			c1.379-1.09,3.049-1.811,4.869-2.041v-3.479c0-0.701,0.57-1.281,1.27-1.281c0.711,0,1.281,0.58,1.281,1.281v3.479
			c1.719,0.221,3.299,0.881,4.639,1.871l2.42-2.43c0.49-0.49,1.301-0.49,1.801,0c0.49,0.5,0.49,1.309,0,1.799l-2.381,2.381
			c1.381,1.719,2.221,3.889,2.221,6.26c0,0.699-0.57,1.27-1.279,1.27c-0.701,0-1.271-0.57-1.271-1.27
			c0-1.99-0.789-3.791-2.059-5.121c-0.121-0.059-0.23-0.119-0.33-0.219c-0.07-0.08-0.121-0.17-0.17-0.26
			c-1.301-1.131-3-1.83-4.871-1.83c-4.09,0-7.42,3.33-7.42,7.43c0,0.699-0.57,1.27-1.279,1.27c-0.701,0-1.27-0.57-1.27-1.27
			c0-2.269,0.77-4.35,2.039-6.029l-2.6-2.611C123.08,112.461,123.08,111.652,123.58,111.152z M113.36,130.733
			c0-1.131,0.92-2.051,2.051-2.051c0.57,0,1.07,0.23,1.439,0.6c0.371,0.371,0.6,0.891,0.6,1.451v5.1c0,1.129-0.91,2.04-2.039,2.04
			c-0.57,0-1.08-0.23-1.451-0.6c-0.369-0.36-0.6-0.881-0.6-1.44V130.733z M126.78,155.782c0,6.35-5.139,11.5-11.49,11.5
			c-6.35,0-11.488-5.15-11.488-11.5H126.78z M86.561,111.152c0.5-0.49,1.309-0.49,1.799,0l2.59,2.6
			c1.381-1.09,3.051-1.811,4.881-2.041v-3.479c0-0.701,0.561-1.281,1.27-1.281c0.701,0,1.27,0.58,1.27,1.281v3.479
			c1.73,0.221,3.311,0.881,4.641,1.871l2.42-2.43c0.5-0.49,1.311-0.49,1.801,0c0.5,0.5,0.5,1.309,0,1.799l-2.371,2.381
			c1.381,1.719,2.211,3.889,2.211,6.26c0,0.699-0.57,1.27-1.27,1.27c-0.711,0-1.271-0.57-1.271-1.27c0-1.99-0.789-3.791-2.07-5.121
			c-0.109-0.059-0.228-0.119-0.318-0.219c-0.08-0.08-0.121-0.17-0.17-0.26c-1.311-1.131-3.012-1.83-4.871-1.83
			c-4.1,0-7.43,3.33-7.43,7.43c0,0.699-0.57,1.27-1.27,1.27c-0.711,0-1.27-0.57-1.27-1.27c0-2.269,0.76-4.35,2.039-6.029
			l-2.609-2.611C86.071,112.461,86.071,111.652,86.561,111.152z M94.35,146.632c-4.029,0-7.289-1.959-7.289-4.379
			c0-2.42,3.26-4.381,7.289-4.381c4.031,0,7.291,1.961,7.291,4.381C101.641,144.673,98.381,146.632,94.35,146.632z"/>
		<path style="opacity:0.1;fill:#231F20;" d="M96.034,107.58c0.221-0.367,0.603-0.629,1.066-0.629c0.199,0,0.383,0.057,0.551,0.141
			c7.953-2.555,14.92-7.266,19.289-15.519c6.188,13.144,22.535,15.525,37.031,15.004v-3.545c0,0-27.391,5.971-38.561-18.9
			c-11.18,24.871-38.57,18.9-38.57,18.9v6.744C83.282,109.836,89.909,109.301,96.034,107.58z"/>
		<path style="opacity:0.1;fill:#231F20;" d="M130.381,171.173c0.055-0.023,0.107-0.049,0.16-0.072h-30.26
			c0.053,0.023,0.105,0.049,0.158,0.072v10.752h29.941V171.173z"/>
	</g>
</g>
<g>
</g>
<g>
</g>
<g>
</g>
<g>
</g>
<g>
</g>
<g>
</g>
<g>
</g>
<g>
</g>
<g>
</g>
<g>
</g>
<g>
</g>
<g>
</g>
<g>
</g>
<g>
</g>
<g>
</g>
</svg>
