<?xml version="1.0" encoding="iso-8859-1"?>
<!-- Generator: Adobe Illustrator 18.0.0, SVG Export Plug-In . SVG Version: 6.00 Build 0)  -->
<!DOCTYPE svg PUBLIC "-//W3C//DTD SVG 1.1//EN" "http://www.w3.org/Graphics/SVG/1.1/DTD/svg11.dtd">
<svg version="1.1" id="Capa_1" xmlns="http://www.w3.org/2000/svg" xmlns:xlink="http://www.w3.org/1999/xlink" x="0px" y="0px"
	 viewBox="0 0 230.813 230.813" style="enable-background:new 0 0 230.813 230.813;" xml:space="preserve">
<g>
	<rect x="0" y="0" style="fill:#F2855A;" width="230.813" height="230.813"/>
	<g>
		<path style="fill:#0D9A91;" d="M166.092,197.332h-30.73v5.641v2.59c0,0.92-0.061,1.82-0.191,2.711
			c-0.238,1.85-0.738,3.609-1.469,5.26c-0.75,1.74-1.75,3.35-2.951,4.779c-1.219,1.48-2.658,2.781-4.26,3.85
			c-1.6,1.07-3.379,1.92-5.269,2.49c-1.84,0.57-3.789,0.871-5.811,0.871h-0.01l-5.83-0.871l-5.25-2.49
			c-1.09-0.729-2.109-1.568-3.029-2.49c-0.43-0.43-0.84-0.879-1.23-1.35c-1.199-1.439-2.209-3.059-2.959-4.809
			c-0.711-1.631-1.211-3.381-1.461-5.201c-0.129-0.9-0.189-1.82-0.189-2.75v-2.59v-5.641H64.73c0,0-7.18,0.951-7.18,11.961v21.52
			h19.961h37.898h37.9h19.951v-21.52C173.262,198.283,166.092,197.332,166.092,197.332z"/>
		<path style="fill:#FAC9D6;" d="M106.121,202.973c0,0-2.32-2.029-5.68-5.609v5.43c0,0.061,0,0.119,0,0.18
			c0.02,1.34,0.209,2.631,0.549,3.859c0.361,1.271,0.871,2.461,1.541,3.57c0.629,1.09,1.41,2.08,2.289,2.971
			c0.031,0.029,0.061,0.061,0.09,0.09c0.92,0.9,1.961,1.689,3.09,2.33c1.111,0.641,2.311,1.141,3.58,1.471l3.83,0.5
			c1.32,0,2.602-0.17,3.82-0.49c1.27-0.34,2.481-0.84,3.59-1.48c1.131-0.631,2.16-1.42,3.08-2.33c0.92-0.9,1.73-1.93,2.391-3.051
			c0.67-1.119,1.189-2.34,1.551-3.619c0.34-1.221,0.52-2.5,0.539-3.82c0-0.061,0-0.119,0-0.18v-5.461v-14.93
			c-2.471,0.441-5.17,0.68-8.131,0.68C122.25,183.082,106.121,181.283,106.121,202.973z"/>
		<path style="fill:#4FC3C8;" d="M95.451,205.563c0,0.93,0.061,1.85,0.189,2.75c0.25,1.82,0.75,3.57,1.461,5.201
			c0.75,1.75,1.76,3.369,2.959,4.809c0.391,0.471,0.801,0.92,1.23,1.35c0.92,0.922,1.939,1.762,3.029,2.49l5.25,2.49l5.83,0.871
			h0.01c2.021,0,3.971-0.301,5.811-0.871c1.891-0.57,3.67-1.42,5.269-2.49c1.602-1.068,3.041-2.369,4.26-3.85
			c1.201-1.43,2.201-3.039,2.951-4.779c0.73-1.65,1.23-3.41,1.469-5.26c0.131-0.891,0.191-1.791,0.191-2.711v-2.59v-5.641h-4.98
			v5.461c0,0.061,0,0.119,0,0.18c-0.02,1.32-0.199,2.6-0.539,3.82c-0.361,1.279-0.881,2.5-1.551,3.619
			c-0.66,1.121-1.471,2.15-2.391,3.051c-0.92,0.91-1.949,1.699-3.08,2.33c-1.109,0.641-2.32,1.141-3.59,1.48
			c-1.219,0.32-2.5,0.49-3.82,0.49l-3.83-0.5c-1.27-0.33-2.469-0.83-3.58-1.471c-1.129-0.641-2.17-1.43-3.09-2.33
			c-0.029-0.029-0.059-0.061-0.09-0.09c-0.879-0.891-1.66-1.881-2.289-2.971c-0.67-1.109-1.18-2.299-1.541-3.57
			c-0.34-1.229-0.529-2.52-0.549-3.859c0-0.061,0-0.119,0-0.18v-5.43c-0.01-0.01-0.021-0.02-0.031-0.031h-4.959v5.641V205.563z"/>
		<path style="fill:#F7DC94;" d="M160.621,102.232c0.83,0,1.49-0.67,1.49-1.5v-5.619c0-0.83-0.66-1.5-1.49-1.5h-3.01h-84.4h-3.6
			c-0.82,0-1.49,0.67-1.49,1.5v5.619c0,0.83,0.67,1.5,1.49,1.5h7.231h77.139H160.621z"/>
		<path style="fill:#B8654E;" d="M157.611,92.662v-5.049c0-1.031-0.041-2.06-0.111-3.08l-0.1,0.01H73.42l-0.1-0.01
			c-0.07,1.02-0.109,2.049-0.109,3.08v5.049v0.951h84.4V92.662z"/>
		<path style="opacity:0.1;fill:#231F20;" d="M126.861,226.863c12.102-4.322,12.994-17.609,12.367-29.531h-3.867v5.641v2.59
			c0,0.92-0.061,1.82-0.191,2.711c-0.238,1.85-0.738,3.609-1.469,5.26c-0.75,1.74-1.75,3.35-2.951,4.779
			c-1.219,1.48-2.658,2.781-4.26,3.85c-1.6,1.07-3.379,1.92-5.269,2.49c-1.84,0.57-3.789,0.871-5.811,0.871h-0.01l-5.83-0.871
			l-5.25-2.49c-1.09-0.729-2.109-1.568-3.029-2.49c-0.43-0.43-0.84-0.879-1.23-1.35c-1.199-1.439-2.209-3.059-2.959-4.809
			c-0.711-1.631-1.211-3.381-1.461-5.201c-0.129-0.9-0.189-1.82-0.189-2.75v-2.59v-5.641h-7.232
			C86.525,218.918,106.254,233.42,126.861,226.863z"/>
		<path style="opacity:0.1;fill:#231F20;" d="M103.861,217.863c11,7,25,4,29-9c0.604-3.627,0.473-7.615,0.057-11.531h-2.537v5.461
			c0,0.061,0,0.119,0,0.18c-0.02,1.32-0.199,2.6-0.539,3.82c-0.361,1.279-0.881,2.5-1.551,3.619c-0.66,1.121-1.471,2.15-2.391,3.051
			c-0.92,0.91-1.949,1.699-3.08,2.33c-1.109,0.641-2.32,1.141-3.59,1.48c-1.219,0.32-2.5,0.49-3.82,0.49l-3.83-0.5
			c-1.27-0.33-2.469-0.83-3.58-1.471c-1.129-0.641-2.17-1.43-3.09-2.33c-0.029-0.029-0.059-0.061-0.09-0.09
			c-0.879-0.891-1.66-1.881-2.289-2.971c-0.67-1.109-1.18-2.299-1.541-3.57c-0.34-1.229-0.529-2.52-0.549-3.859
			c0-0.061,0-0.119,0-0.18v-5.43c-0.01-0.01-0.021-0.02-0.031-0.031h-2.686C97.461,205.23,97.404,213.826,103.861,217.863z"/>
		<path style="opacity:0.1;fill:#231F20;" d="M162.111,95.113c0-0.83-0.66-1.5-1.49-1.5h-3.01h-84.4h-3.6
			c-0.82,0-1.49,0.67-1.49,1.5v4h93.99V95.113z"/>
		<path style="opacity:0.1;fill:#231F20;" d="M157.611,87.613c0-1.031-0.041-2.06-0.111-3.08l-0.1,0.01H73.42l-0.1-0.01
			c-0.07,1.02-0.109,2.049-0.109,3.08v3.109h84.4V87.613z"/>
		<path style="fill:#F7DC94;" d="M157.4,84.543l0.1-0.01c-0.75-10.43-5.289-19.801-12.25-26.76
			c-7.639-7.641-18.189-12.361-29.84-12.361c-22.27,0-40.51,17.25-42.09,39.121l0.1,0.01H157.4z"/>
		<path d="M126.191,115.572c-1.281,1.68-2.051,3.76-2.051,6.019c0,0.711,0.57,1.281,1.279,1.281c0.701,0,1.271-0.57,1.271-1.281
			c0-4.09,3.33-7.42,7.42-7.42c1.869,0,3.57,0.691,4.879,1.83c0.051,0.09,0.09,0.18,0.17,0.26c0.09,0.092,0.211,0.15,0.32,0.211
			c1.27,1.34,2.061,3.141,2.061,5.119c0,0.711,0.57,1.281,1.279,1.281c0.701,0,1.271-0.57,1.271-1.281
			c0-2.359-0.83-4.539-2.221-6.25l2.379-2.379c0.5-0.5,0.5-1.301,0-1.801s-1.299-0.5-1.799,0l-2.42,2.42
			c-1.33-0.979-2.92-1.65-4.641-1.869v-3.48c0-0.699-0.57-1.27-1.279-1.27c-0.701,0-1.27,0.57-1.27,1.27v3.48
			c-1.82,0.24-3.49,0.959-4.871,2.039l-2.59-2.59c-0.5-0.49-1.301-0.49-1.801,0c-0.5,0.5-0.5,1.301,0,1.801L126.191,115.572z"/>
		<path d="M101.971,116.002c0.051,0.09,0.1,0.18,0.17,0.26c0.1,0.092,0.211,0.15,0.33,0.211c1.27,1.34,2.06,3.141,2.06,5.119
			c0,0.711,0.57,1.281,1.27,1.281c0.711,0,1.27-0.57,1.27-1.281c0-2.359-0.83-4.539-2.209-6.25l2.379-2.379
			c0.49-0.5,0.49-1.301,0-1.801c-0.5-0.5-1.309-0.5-1.799,0l-2.43,2.42c-1.33-0.979-2.91-1.65-4.641-1.869v-3.48
			c0-0.699-0.57-1.27-1.27-1.27c-0.701,0-1.271,0.57-1.271,1.27v3.48c-1.818,0.24-3.488,0.959-4.869,2.039l-2.59-2.59
			c-0.5-0.49-1.311-0.49-1.801,0c-0.5,0.5-0.5,1.301,0,1.801l2.6,2.609c-1.27,1.68-2.039,3.76-2.039,6.019
			c0,0.711,0.57,1.281,1.27,1.281c0.701,0,1.27-0.57,1.27-1.281c0-4.09,3.342-7.42,7.432-7.42
			C98.961,114.172,100.66,114.863,101.971,116.002z"/>
		<path style="fill:#F27998;" d="M115.41,137.883c1.131,0,2.051-0.92,2.051-2.051v-5.1c0-0.57-0.231-1.07-0.6-1.439
			c-0.371-0.371-0.881-0.6-1.451-0.6c-1.129,0-2.049,0.91-2.049,2.039v5.1c0,0.57,0.23,1.08,0.6,1.451
			C114.33,137.652,114.842,137.883,115.41,137.883z"/>
		<path style="fill:#FFFFFF;" d="M115.291,167.293c6.35,0,11.5-5.15,11.5-11.5h-22.99
			C103.801,162.143,108.951,167.293,115.291,167.293z"/>
		<path style="fill:#B8654E;" d="M100.441,197.363c3.359,3.58,5.68,5.609,5.68,5.609c0-21.689,16.129-19.891,16.129-19.891
			c2.961,0,5.66-0.238,8.131-0.68c32.449-5.779,23.6-46.789,23.6-46.789c-32.629-8.271-38.57,8.08-38.57,8.08
			c-13.318-16.932-36.939-6.25-38.49-5.531c-0.049,0.031-0.078,0.041-0.078,0.041c-4.721,25.061,13.779,48.68,23.568,59.129h0.031
			V197.363z M126.791,155.793c0,6.35-5.15,11.5-11.5,11.5c-6.34,0-11.49-5.15-11.49-11.5H126.791z"/>
		<path style="opacity:0.2;fill:#231F20;" d="M117.861,151.863c3-15,22-14,34-12c0.945,0.156,1.893,0.344,2.836,0.559
			c-0.318-2.961-0.717-4.809-0.717-4.809c-32.629-8.271-38.57,8.08-38.57,8.08c-13.318-16.932-36.939-6.25-38.49-5.531
			c-0.049,0.031-0.078,0.041-0.078,0.041c-0.482,2.557-0.711,5.1-0.742,7.615C89.873,140.215,106.014,144.246,117.861,151.863z"/>
		<path style="fill:#FAC9D6;" d="M115.41,143.693c0,0,5.941-16.352,38.57-8.08v-2.33h5.041c1.439,0,2.74-0.58,3.68-1.521
			c0.949-0.939,1.529-2.238,1.529-3.68c0-2.879-2.33-5.209-5.209-5.209h-5.041v-20.641H76.842v20.641h-5.041
			c-1.44,0-2.74,0.58-3.68,1.529c-0.951,0.939-1.529,2.24-1.529,3.68c0,2.871,2.328,5.201,5.209,5.201h5.041v2.33
			c0,0.859,0.029,1.709,0.078,2.549C78.471,137.443,102.092,126.762,115.41,143.693z M123.58,111.162c0.5-0.49,1.301-0.49,1.801,0
			l2.59,2.59c1.381-1.08,3.051-1.799,4.871-2.039v-3.48c0-0.699,0.568-1.27,1.27-1.27c0.709,0,1.279,0.57,1.279,1.27v3.48
			c1.721,0.219,3.311,0.891,4.641,1.869l2.42-2.42c0.5-0.5,1.299-0.5,1.799,0s0.5,1.301,0,1.801l-2.379,2.379
			c1.391,1.711,2.221,3.891,2.221,6.25c0,0.711-0.57,1.281-1.271,1.281c-0.709,0-1.279-0.57-1.279-1.281
			c0-1.979-0.791-3.779-2.061-5.119c-0.109-0.061-0.23-0.119-0.32-0.211c-0.08-0.08-0.119-0.17-0.17-0.26
			c-1.309-1.139-3.01-1.83-4.879-1.83c-4.09,0-7.42,3.33-7.42,7.42c0,0.711-0.57,1.281-1.271,1.281c-0.709,0-1.279-0.57-1.279-1.281
			c0-2.26,0.77-4.34,2.051-6.019l-2.611-2.609C123.08,112.463,123.08,111.662,123.58,111.162z M113.361,130.732
			c0-1.129,0.92-2.039,2.049-2.039c0.57,0,1.08,0.229,1.451,0.6c0.369,0.369,0.6,0.869,0.6,1.439v5.1
			c0,1.131-0.92,2.051-2.051,2.051c-0.568,0-1.08-0.23-1.449-0.6c-0.369-0.371-0.6-0.881-0.6-1.451V130.732z M89.67,121.592
			c0,0.711-0.568,1.281-1.27,1.281c-0.699,0-1.27-0.57-1.27-1.281c0-2.26,0.77-4.34,2.039-6.019l-2.6-2.609
			c-0.5-0.5-0.5-1.301,0-1.801c0.49-0.49,1.301-0.49,1.801,0l2.59,2.59c1.381-1.08,3.051-1.799,4.869-2.039v-3.48
			c0-0.699,0.57-1.27,1.271-1.27c0.699,0,1.27,0.57,1.27,1.27v3.48c1.73,0.219,3.311,0.891,4.641,1.869l2.43-2.42
			c0.49-0.5,1.299-0.5,1.799,0c0.49,0.5,0.49,1.301,0,1.801l-2.379,2.379c1.379,1.711,2.209,3.891,2.209,6.25
			c0,0.711-0.559,1.281-1.27,1.281c-0.699,0-1.27-0.57-1.27-1.281c0-1.979-0.791-3.779-2.06-5.119
			c-0.119-0.061-0.23-0.119-0.33-0.211c-0.07-0.08-0.119-0.17-0.17-0.26c-1.311-1.139-3.01-1.83-4.869-1.83
			C93.012,114.172,89.67,117.502,89.67,121.592z"/>
		<path style="opacity:0.1;fill:#231F20;" d="M108.861,211.863c3.693-11.082,8.246-25.561,21.52-25.354v-4.107
			c-2.471,0.441-5.17,0.68-8.131,0.68c0,0-16.129-1.799-16.129,19.891c0,0-2.32-2.029-5.68-5.609v5.43c0,0.061,0,0.119,0,0.18
			c0.004,0.328,0.02,0.652,0.045,0.973C103.682,205.945,106.395,208.902,108.861,211.863z"/>
		<path style="opacity:0.1;fill:#231F20;" d="M95.83,108.232c0-0.699,0.57-1.27,1.271-1.27c0.699,0,1.27,0.57,1.27,1.27v1.381
			h34.471v-1.381c0-0.699,0.568-1.27,1.27-1.27c0.709,0,1.279,0.57,1.279,1.27v1.381h18.59v-7.381H76.842v7.381H95.83V108.232z"/>
	</g>
</g>
<g>
</g>
<g>
</g>
<g>
</g>
<g>
</g>
<g>
</g>
<g>
</g>
<g>
</g>
<g>
</g>
<g>
</g>
<g>
</g>
<g>
</g>
<g>
</g>
<g>
</g>
<g>
</g>
<g>
</g>
</svg>
