<?xml version="1.0" encoding="iso-8859-1"?>
<!-- Generator: Adobe Illustrator 18.0.0, SVG Export Plug-In . SVG Version: 6.00 Build 0)  -->
<!DOCTYPE svg PUBLIC "-//W3C//DTD SVG 1.1//EN" "http://www.w3.org/Graphics/SVG/1.1/DTD/svg11.dtd">
<svg version="1.1" id="Capa_1" xmlns="http://www.w3.org/2000/svg" xmlns:xlink="http://www.w3.org/1999/xlink" x="0px" y="0px"
	 viewBox="0 0 230.813 230.813" style="enable-background:new 0 0 230.813 230.813;" xml:space="preserve">
<g>
	<rect x="0" y="0" style="fill:#4FC3C8;" width="230.813" height="230.813"/>
	<g>
		<path style="fill:#FAC9D6;" d="M147.512,67.643c-1.41-2.129-3.041-4.109-4.84-5.91c-6.16-6.16-14.4-10.25-23.57-11.119
			C123.922,51.273,138.24,54.332,147.512,67.643z"/>
		<path d="M126.182,115.572c-1.271,1.682-2.041,3.76-2.041,6.031c0,0.26,0.08,0.51,0.221,0.709c0.23,0.34,0.609,0.561,1.049,0.561
			c0.701,0,1.271-0.57,1.271-1.27c0-4.09,3.34-7.43,7.43-7.43c1.869,0,3.57,0.699,4.869,1.83c0.051,0.09,0.1,0.189,0.17,0.26
			c0.1,0.1,0.211,0.16,0.33,0.219c1.27,1.33,2.061,3.131,2.061,5.121c0,0.699,0.57,1.27,1.27,1.27c0.711,0,1.281-0.57,1.281-1.27
			c0-2.371-0.842-4.541-2.221-6.26l2.379-2.381c0.49-0.49,0.49-1.301,0-1.789c-0.5-0.5-1.309-0.5-1.809,0l-2.42,2.42
			c-1.33-0.99-2.91-1.65-4.641-1.871v-3.48c0-0.699-0.561-1.27-1.27-1.27c-0.701,0-1.27,0.57-1.27,1.27v3.48
			c-1.82,0.23-3.49,0.961-4.871,2.041l-2.59-2.59c-0.5-0.5-1.311-0.5-1.801,0c-0.5,0.488-0.5,1.299,0,1.799L126.182,115.572z"/>
		<path style="fill:#F0505E;" d="M98.131,96.713c26.92,0,28.65-21.01,28.65-21.01c34.019,0,26.68,43.311,26.18,46.051
			c0.381-1.682,0.711-3.33,1.01-4.932c4.451-24.039,0.371-39.389-6.459-49.18c-9.271-13.311-23.59-16.369-28.41-17.029
			c-0.01-0.01-0.031-0.01-0.051-0.01c-1.019-0.141-1.6-0.17-1.6-0.17c-43.121-1.49-49.74,38.67-47.641,72.83
			c0.211,3.369,0.5,6.689,0.85,9.898c2.23,20.521,6.852,36.781,6.852,36.781s-1.182-13.711-0.34-29.27
			c0.539-10.061,1.939-20.91,5.039-29.301C85.4,102.754,90.391,96.713,98.131,96.713z"/>
		<path style="fill:#FBCD45;" d="M95.281,214.553c11.641,16.451,20.619,2.201,20.619,2.201l-15.469-19.422
			C100.432,197.332,86.82,202.582,95.281,214.553z"/>
		<path style="fill:#FBCD45;" d="M125.111,222.482c3.24,0,7.139-1.91,11.4-7.93c8.459-11.971-5.15-17.221-5.15-17.221h-0.98
			l-14.48,19.422C115.9,216.754,119.512,222.482,125.111,222.482z"/>
		<path style="opacity:0.1;fill:#231F20;" d="M100.432,197.332c0,0-2.789,1.082-5.057,3.371l16.115,20.334
			c2.775-1.697,4.41-4.283,4.41-4.283L100.432,197.332z"/>
		<path style="opacity:0.1;fill:#231F20;" d="M131.361,197.332h-0.98l-14.48,19.422c0,0,1.861,2.936,4.975,4.604l14.934-21.234
			C133.68,198.23,131.361,197.332,131.361,197.332z"/>
		<path style="fill:#F7DC94;" d="M166.092,197.332h-34.73c0,0,13.609,5.25,5.15,17.221c-4.262,6.02-8.16,7.93-11.4,7.93
			c-5.6,0-9.211-5.729-9.211-5.729s-8.979,14.25-20.619-2.201c-8.461-11.971,5.15-17.221,5.15-17.221H64.73
			c0,0-7.18,0.951-7.18,11.961v21.52h19.961h47.6h28.189h19.961v-21.52C173.262,198.283,166.092,197.332,166.092,197.332z"/>
		<path style="fill:#FFFFFF;" d="M115.291,167.293c6.35,0,11.49-5.15,11.49-11.49h-22.981
			C103.801,162.143,108.941,167.293,115.291,167.293z"/>
		<path style="fill:#F27998;" d="M136.461,137.893c-4.029,0-7.289,1.951-7.289,4.371c0,2.42,3.26,4.379,7.289,4.379
			s7.289-1.959,7.289-4.379C143.75,139.844,140.49,137.893,136.461,137.893z"/>
		<path style="fill:#F27998;" d="M101.641,142.264c0-2.42-3.26-4.371-7.289-4.371c-4.031,0-7.291,1.951-7.291,4.371
			c0,2.42,3.26,4.379,7.291,4.379C98.381,146.643,101.641,144.684,101.641,142.264z"/>
		<path style="fill:#F27998;" d="M113.361,135.844c0,0.559,0.23,1.08,0.6,1.449c0.369,0.369,0.881,0.6,1.449,0.6
			c1.131,0,2.041-0.92,2.041-2.049v-5.102c0-0.559-0.23-1.08-0.6-1.449c-0.371-0.369-0.871-0.6-1.441-0.6
			c-0.639,0-1.199,0.289-1.58,0.75c-0.289,0.35-0.469,0.811-0.469,1.299V135.844z"/>
		<path d="M87.121,121.604c0,0.699,0.57,1.27,1.279,1.27c0.701,0,1.271-0.57,1.271-1.27c0-4.09,3.328-7.43,7.43-7.43
			c1.859,0,3.559,0.699,4.869,1.83c0.051,0.09,0.09,0.189,0.17,0.26c0.09,0.1,0.211,0.16,0.32,0.219
			c1.27,1.33,2.061,3.131,2.061,5.121c0,0.699,0.57,1.27,1.279,1.27c0.699,0,1.27-0.57,1.27-1.27c0-2.371-0.83-4.541-2.219-6.26
			l2.379-2.381c0.5-0.49,0.5-1.301,0-1.789c-0.5-0.5-1.299-0.5-1.799,0l-2.42,2.42c-1.33-0.99-2.91-1.65-4.641-1.871v-3.48
			c0-0.699-0.57-1.27-1.27-1.27c-0.711,0-1.281,0.57-1.281,1.27v3.48c-1.82,0.23-3.49,0.961-4.869,2.041l-2.59-2.59
			c-0.5-0.5-1.301-0.5-1.801,0c-0.189,0.18-0.299,0.408-0.359,0.658c-0.07,0.391,0.049,0.83,0.359,1.141l2.611,2.6
			C87.891,117.254,87.121,119.332,87.121,121.604z"/>
		<path style="fill:#FAC9D6;" d="M68.111,124.402c-0.951,0.941-1.531,2.24-1.531,3.68c0,2.49,1.75,4.57,4.08,5.08
			c-0.35-3.209-0.639-6.529-0.85-9.898C69.172,123.533,68.592,123.924,68.111,124.402z"/>
		<path style="fill:#FAC9D6;" d="M130.381,197.332v-26.158v-0.012c13.859-5.85,23.59-19.559,23.59-35.549v-2.32h5.051
			c1.439,0,2.74-0.58,3.68-1.529c0.939-0.941,1.52-2.24,1.52-3.682c0-2.879-2.33-5.209-5.199-5.209h-5.051v-6.051
			c-0.299,1.602-0.629,3.25-1.01,4.932c0.5-2.74,7.84-46.051-26.18-46.051c0,0-1.731,21.01-28.65,21.01
			c-7.74,0-12.73,6.041-15.92,14.66c-3.1,8.391-4.5,19.24-5.039,29.301c1.129,8.629,5.109,16.359,10.959,22.209
			c3.5,3.5,7.67,6.33,12.301,8.291v26.158l15.469,19.422L130.381,197.332z M115.291,167.293c-6.35,0-11.49-5.15-11.49-11.49h22.981
			C126.781,162.143,121.641,167.293,115.291,167.293z M136.461,146.643c-4.029,0-7.289-1.959-7.289-4.379
			c0-2.42,3.26-4.371,7.289-4.371s7.289,1.951,7.289,4.371C143.75,144.684,140.49,146.643,136.461,146.643z M123.58,111.174
			c0.49-0.5,1.301-0.5,1.801,0l2.59,2.59c1.381-1.08,3.051-1.811,4.871-2.041v-3.48c0-0.699,0.568-1.27,1.27-1.27
			c0.709,0,1.27,0.57,1.27,1.27v3.48c1.73,0.221,3.311,0.881,4.641,1.871l2.42-2.42c0.5-0.5,1.309-0.5,1.809,0
			c0.49,0.488,0.49,1.299,0,1.789l-2.379,2.381c1.379,1.719,2.221,3.889,2.221,6.26c0,0.699-0.57,1.27-1.281,1.27
			c-0.699,0-1.27-0.57-1.27-1.27c0-1.99-0.791-3.791-2.061-5.121c-0.119-0.059-0.23-0.119-0.33-0.219
			c-0.07-0.07-0.119-0.17-0.17-0.26c-1.299-1.131-3-1.83-4.869-1.83c-4.09,0-7.43,3.34-7.43,7.43c0,0.699-0.57,1.27-1.271,1.27
			c-0.439,0-0.818-0.221-1.049-0.561c-0.141-0.199-0.221-0.449-0.221-0.709c0-2.271,0.77-4.35,2.041-6.031l-2.602-2.6
			C123.08,112.473,123.08,111.662,123.58,111.174z M115.41,128.693c0.57,0,1.07,0.23,1.441,0.6c0.369,0.369,0.6,0.891,0.6,1.449
			v5.102c0,1.129-0.91,2.049-2.041,2.049c-0.568,0-1.08-0.23-1.449-0.6c-0.369-0.369-0.6-0.891-0.6-1.449v-5.102
			c0-0.488,0.18-0.949,0.469-1.299C114.211,128.982,114.771,128.693,115.41,128.693z M86.201,111.832
			c0.061-0.25,0.17-0.479,0.359-0.658c0.5-0.5,1.301-0.5,1.801,0l2.59,2.59c1.379-1.08,3.049-1.811,4.869-2.041v-3.48
			c0-0.699,0.57-1.27,1.281-1.27c0.699,0,1.27,0.57,1.27,1.27v3.48c1.73,0.221,3.311,0.881,4.641,1.871l2.42-2.42
			c0.5-0.5,1.299-0.5,1.799,0c0.5,0.488,0.5,1.299,0,1.789l-2.379,2.381c1.389,1.719,2.219,3.889,2.219,6.26
			c0,0.699-0.57,1.27-1.27,1.27c-0.709,0-1.279-0.57-1.279-1.27c0-1.99-0.791-3.791-2.061-5.121c-0.109-0.059-0.23-0.119-0.32-0.219
			c-0.08-0.07-0.119-0.17-0.17-0.26c-1.311-1.131-3.01-1.83-4.869-1.83c-4.102,0-7.43,3.34-7.43,7.43c0,0.699-0.57,1.27-1.271,1.27
			c-0.709,0-1.279-0.57-1.279-1.27c0-2.271,0.77-4.35,2.051-6.031l-2.611-2.6C86.25,112.662,86.131,112.223,86.201,111.832z
			 M94.352,146.643c-4.031,0-7.291-1.959-7.291-4.379c0-2.42,3.26-4.371,7.291-4.371c4.029,0,7.289,1.951,7.289,4.371
			C101.641,144.684,98.381,146.643,94.352,146.643z"/>
		<rect x="100.432" y="171.627" style="opacity:0.1;fill:#231F20;" width="29.949" height="10.408"/>
		<path style="opacity:0.1;" d="M137.121,77.369c-0.002-0.004-0.002-0.008-0.002-0.012c-0.059-0.021-0.123-0.035-0.182-0.057
			c-1.35-0.475-2.803-0.851-4.365-1.119c-0.205-0.035-0.416-0.064-0.625-0.096c-0.6-0.09-1.215-0.164-1.846-0.221
			c-0.236-0.021-0.471-0.047-0.711-0.063c-0.846-0.061-1.709-0.1-2.609-0.1c0,0-0.004,0.027-0.006,0.053
			c-0.002,0.014-0.004,0.037-0.006,0.057c-0.004,0.027-0.008,0.066-0.012,0.104c-0.006,0.039-0.01,0.078-0.018,0.127
			c-0.004,0.037-0.012,0.084-0.018,0.123c-0.016,0.113-0.037,0.242-0.063,0.391c-0.008,0.045-0.014,0.088-0.023,0.135
			c-0.018,0.098-0.037,0.201-0.059,0.311c-0.008,0.043-0.018,0.088-0.027,0.133c-0.078,0.389-0.185,0.846-0.324,1.359
			c-0.012,0.039-0.021,0.078-0.033,0.117c-0.047,0.17-0.098,0.346-0.152,0.527c-0.012,0.037-0.023,0.076-0.035,0.113
			c-0.381,1.229-0.939,2.688-1.762,4.23c0.002,0,0.002,0,0.004,0c-3.186,5.982-10.305,13.23-26.117,13.23
			c-4.266,0-7.693,1.842-10.447,4.934c16.848-1.197,36.766,9.484,46.258-10.363c0.543-1.268,1.049-2.533,1.496-3.799
			c8.275,4.99,14.232,13.75,18.516,23.264C154.131,99.365,151.732,82.645,137.121,77.369z"/>
	</g>
</g>
<g>
</g>
<g>
</g>
<g>
</g>
<g>
</g>
<g>
</g>
<g>
</g>
<g>
</g>
<g>
</g>
<g>
</g>
<g>
</g>
<g>
</g>
<g>
</g>
<g>
</g>
<g>
</g>
<g>
</g>
</svg>
