<?xml version="1.0" encoding="iso-8859-1"?>
<!-- Generator: Adobe Illustrator 18.0.0, SVG Export Plug-In . SVG Version: 6.00 Build 0)  -->
<!DOCTYPE svg PUBLIC "-//W3C//DTD SVG 1.1//EN" "http://www.w3.org/Graphics/SVG/1.1/DTD/svg11.dtd">
<svg version="1.1" id="Capa_1" xmlns="http://www.w3.org/2000/svg" xmlns:xlink="http://www.w3.org/1999/xlink" x="0px" y="0px"
	 viewBox="0 0 230.814 230.814" style="enable-background:new 0 0 230.814 230.814;" xml:space="preserve">
<g>
	<rect x="0.001" y="0" style="fill:#FAC9D6;" width="230.813" height="230.814"/>
	<g>
		<path style="fill:#4FC3C8;" d="M166.092,197.333h-14.49v0.01c-5.35,14.811-19.541,25.391-36.189,25.391
			c-16.66,0-30.842-10.58-36.201-25.381v-0.02h-14.49c0,0-7.17,0.959-7.17,11.959v21.521h19.961h37.9h37.889h19.961v-21.521
			C173.262,198.292,166.092,197.333,166.092,197.333z"/>
		<g>
			<path style="opacity:0.1;" d="M115.414,229.667c21.66,0,40.209-13.381,47.807-32.334h-11.619v0.01
				c-5.35,14.811-19.541,25.391-36.189,25.391c-16.66,0-30.842-10.58-36.201-25.381v-0.02H67.588
				C75.196,216.28,93.735,229.667,115.414,229.667z"/>
			<path style="fill:#4FC3C8;" d="M57.551,209.292v21.521h19.961h37.9h37.889h19.961v-21.521c0-11-7.17-11.959-7.17-11.959h-2.871
				c-7.598,18.953-26.146,32.334-47.807,32.334c-21.68,0-40.219-13.387-47.826-32.334h-2.867
				C64.721,197.333,57.551,198.292,57.551,209.292z"/>
		</g>
		<path style="fill:#F2855A;" d="M88.131,162.894c-6.98-6.98-11.289-16.621-11.289-27.272v-2.33h-4.881
			c-0.279,0-0.549-0.02-0.811-0.068c-3.789,28.739-13.6,32.19-13.6,32.19s15.441,13.77,42.83,13.77h0.061v-8L88.131,162.894z"/>
		<path style="fill:#F2855A;" d="M154.141,133.292h-0.17v2.33c0,15.991-9.729,29.711-23.59,35.551v0.01v8h0.051
			c27.389,0,42.83-13.77,42.83-13.77s-9.811-3.4-13.6-32.151c-0.16,0.02-0.32,0.029-0.48,0.029H154.141z"/>
		<path style="fill:#F2855A;" d="M76.842,122.871v-19.83V89.002c0-21.301,17.26-38.57,38.57-38.57
			c10.648,0,20.289,4.32,27.27,11.301c6.969,6.979,11.289,16.619,11.289,27.27v14.039v19.83h0.17h5.041c0.16,0,0.32,0.01,0.48,0.031
			v-0.01c-0.32-5.102,0-22.83,0-28.99c0-0.941-0.102-1.891-0.141-2.84c-0.201-3.75-0.471-7.51-1.09-11.23
			c-0.531-3.18-1.33-6.311-2.5-9.32c-1-2.539-2.24-4.98-3.701-7.289c-1.279-2.041-2.719-3.99-4.34-5.781
			c-1.51-1.67-3.18-3.189-5-4.519c-1.709-1.25-3.549-2.33-5.449-3.27c-1.66-0.82-3.381-1.551-5.131-2.191
			c-1.51-0.559-3.049-1.039-4.609-1.408c-2.561-0.592-5.199-0.83-7.811-1.021c-1.52-0.109-3.049-0.1-4.57-0.07
			c-2.328,0.051-4.658,0.07-6.979,0.281c-3.691,0.35-7.361,1.43-10.871,2.57c-1.91,0.619-3.74,1.398-5.449,2.439
			c-1.74,1.051-3.381,2.279-4.98,3.52c-1.859,1.43-3.65,2.961-5.19,4.721c-1.65,1.9-2.98,4.029-4.15,6.25
			c-1.33,2.51-2.51,5.119-3.471,7.799c-1.119,3.131-1.859,6.371-2.289,9.66c-0.5,3.852-0.791,7.82-0.791,11.701
			c0,6.16,0.32,23.93,0,29.039c0.262-0.049,0.531-0.07,0.811-0.07H76.842z"/>
		<path style="fill:#F37532;" d="M142.682,61.732c-6.98-6.98-16.621-11.301-27.27-11.301c-21.311,0-38.57,17.27-38.57,38.57v14.039
			c0,0,27.389,5.971,38.57-18.898c11.17,24.869,38.559,18.898,38.559,18.898V89.002C153.971,78.352,149.651,68.711,142.682,61.732z"
			/>
		<path style="fill:#FFFFFF;" d="M115.452,167.292c6.35,0,11.5-5.148,11.5-11.5h-22.99
			C103.961,162.144,109.112,167.292,115.452,167.292z"/>
		<path style="fill:#F27998;" d="M101.811,142.263c0-2.42-3.269-4.381-7.299-4.381c-4.031,0-7.291,1.961-7.291,4.381
			c0,2.42,3.26,4.381,7.291,4.381C98.542,146.644,101.811,144.683,101.811,142.263z"/>
		<path style="fill:#F27998;" d="M115.571,137.882c1.131,0,2.051-0.909,2.051-2.04v-5.1c0-0.561-0.23-1.08-0.6-1.451
			c-0.371-0.369-0.891-0.6-1.451-0.6c-1.129,0-2.049,0.92-2.049,2.051v5.1c0,0.561,0.231,1.08,0.6,1.44
			C114.493,137.653,115.012,137.882,115.571,137.882z"/>
		<path style="fill:#F27998;" d="M136.622,137.882c-4.02,0-7.289,1.961-7.289,4.381c0,2.42,3.27,4.381,7.289,4.381
			c4.029,0,7.301-1.961,7.301-4.381C143.922,139.843,140.651,137.882,136.622,137.882z"/>
		<path d="M126.352,115.572c-1.281,1.68-2.051,3.76-2.051,6.029c0,0.701,0.57,1.27,1.281,1.27c0.699,0,1.27-0.568,1.27-1.27
			c0-4.1,3.33-7.43,7.43-7.43c1.859,0,3.56,0.699,4.869,1.83c0.051,0.09,0.092,0.18,0.17,0.26c0.092,0.1,0.211,0.16,0.32,0.221
			c1.271,1.33,2.07,3.129,2.07,5.119c0,0.701,0.561,1.27,1.27,1.27c0.701,0,1.271-0.568,1.271-1.27c0-2.369-0.83-4.539-2.221-6.26
			l2.381-2.381c0.5-0.488,0.5-1.299,0-1.799c-0.49-0.49-1.301-0.49-1.801,0l-2.42,2.43c-1.33-0.99-2.92-1.65-4.641-1.869v-3.48
			c0-0.701-0.57-1.281-1.269-1.281c-0.711,0-1.279,0.58-1.279,1.281v3.48c-1.82,0.229-3.49,0.949-4.871,2.039l-2.59-2.6
			c-0.49-0.49-1.299-0.49-1.799,0c-0.5,0.5-0.5,1.311,0,1.799L126.352,115.572z"/>
		<path d="M87.292,121.602c0,0.701,0.57,1.27,1.269,1.27c0.701,0,1.272-0.568,1.272-1.27c0-4.1,3.34-7.43,7.43-7.43
			c1.869,0,3.559,0.699,4.869,1.83c0.051,0.09,0.1,0.18,0.17,0.26c0.1,0.1,0.211,0.16,0.33,0.221c1.27,1.33,2.061,3.129,2.061,5.119
			c0,0.701,0.57,1.27,1.27,1.27c0.711,0,1.27-0.568,1.27-1.27c0-2.369-0.83-4.539-2.209-6.26l2.379-2.381
			c0.49-0.488,0.49-1.299,0-1.799c-0.5-0.49-1.309-0.49-1.799,0l-2.43,2.43c-1.33-0.99-2.91-1.65-4.641-1.869v-3.48
			c0-0.701-0.561-1.281-1.27-1.281c-0.701,0-1.27,0.58-1.27,1.281v3.48c-1.82,0.229-3.49,0.949-4.871,2.039l-2.59-2.6
			c-0.5-0.49-1.311-0.49-1.801,0c-0.5,0.5-0.5,1.311,0,1.799l2.602,2.611C88.061,117.252,87.292,119.332,87.292,121.602z"/>
		<path style="fill:#B8654E;" d="M100.442,171.183v8v18.15h-21.23v0.02c5.359,14.801,19.541,25.381,36.201,25.381
			c16.648,0,30.84-10.58,36.189-25.391v-0.01h-21.221v-18.15v-8v-0.01c13.861-5.84,23.59-19.561,23.59-35.551v-2.33h0.17h5.041
			c0.16,0,0.32-0.01,0.48-0.029c1.25-0.109,2.369-0.66,3.209-1.5c0.939-0.939,1.52-2.24,1.52-3.68c0-2.721-2.07-4.94-4.729-5.18
			c-0.16-0.021-0.32-0.031-0.48-0.031h-5.041h-0.17v-19.83c0,0-27.389,5.971-38.559-18.898
			c-11.182,24.869-38.57,18.898-38.57,18.898v19.83h-4.881c-0.279,0-0.549,0.021-0.811,0.07c-1.119,0.17-2.109,0.689-2.879,1.461
			c-0.939,0.939-1.52,2.24-1.52,3.68c0,2.6,1.898,4.76,4.398,5.141c0.262,0.049,0.531,0.068,0.811,0.068h4.881v2.33
			c0,10.651,4.309,20.292,11.289,27.272C88.131,162.894,93.001,168.089,100.442,171.183 M136.622,146.644
			c-4.02,0-7.289-1.961-7.289-4.381c0-2.42,3.27-4.381,7.289-4.381c4.029,0,7.301,1.961,7.301,4.381
			C143.922,144.683,140.651,146.644,136.622,146.644z M123.743,111.162c0.5-0.49,1.309-0.49,1.799,0l2.59,2.6
			c1.381-1.09,3.051-1.811,4.871-2.039v-3.48c0-0.701,0.568-1.281,1.279-1.281c0.699,0,1.269,0.58,1.269,1.281v3.48
			c1.721,0.219,3.311,0.879,4.641,1.869l2.42-2.43c0.5-0.49,1.311-0.49,1.801,0c0.5,0.5,0.5,1.311,0,1.799l-2.381,2.381
			c1.391,1.721,2.221,3.891,2.221,6.26c0,0.701-0.57,1.27-1.271,1.27c-0.709,0-1.27-0.568-1.27-1.27c0-1.99-0.799-3.789-2.07-5.119
			c-0.109-0.061-0.229-0.121-0.32-0.221c-0.078-0.08-0.119-0.17-0.17-0.26c-1.309-1.131-3.01-1.83-4.869-1.83
			c-4.1,0-7.43,3.33-7.43,7.43c0,0.701-0.57,1.27-1.27,1.27c-0.711,0-1.281-0.568-1.281-1.27c0-2.27,0.77-4.35,2.051-6.029
			l-2.609-2.611C123.243,112.473,123.243,111.662,123.743,111.162z M113.522,130.743c0-1.131,0.92-2.051,2.049-2.051
			c0.561,0,1.08,0.23,1.451,0.6c0.369,0.371,0.6,0.891,0.6,1.451v5.1c0,1.131-0.92,2.04-2.051,2.04c-0.559,0-1.078-0.229-1.449-0.6
			c-0.369-0.36-0.6-0.879-0.6-1.44V130.743z M126.952,155.792c0,6.352-5.15,11.5-11.5,11.5c-6.34,0-11.49-5.148-11.49-11.5H126.952z
			 M86.731,111.162c0.49-0.49,1.301-0.49,1.801,0l2.59,2.6c1.381-1.09,3.051-1.811,4.871-2.039v-3.48
			c0-0.701,0.568-1.281,1.27-1.281c0.709,0,1.27,0.58,1.27,1.281v3.48c1.73,0.219,3.31,0.879,4.641,1.869l2.43-2.43
			c0.49-0.49,1.299-0.49,1.799,0c0.49,0.5,0.49,1.311,0,1.799l-2.379,2.381c1.379,1.721,2.209,3.891,2.209,6.26
			c0,0.701-0.559,1.27-1.27,1.27c-0.699,0-1.27-0.568-1.27-1.27c0-1.99-0.791-3.789-2.061-5.119c-0.119-0.061-0.23-0.121-0.33-0.221
			c-0.07-0.08-0.119-0.17-0.17-0.26c-1.311-1.131-3-1.83-4.869-1.83c-4.09,0-7.43,3.33-7.43,7.43c0,0.701-0.57,1.27-1.272,1.27
			c-0.699,0-1.269-0.568-1.269-1.27c0-2.27,0.769-4.35,2.041-6.029l-2.602-2.611C86.231,112.473,86.231,111.662,86.731,111.162z
			 M94.512,146.644c-4.031,0-7.291-1.961-7.291-4.381c0-2.42,3.26-4.381,7.291-4.381c4.029,0,7.299,1.961,7.299,4.381
			C101.811,144.683,98.542,146.644,94.512,146.644z"/>
		<path style="opacity:0.2;fill:#231F20;" d="M130.381,179.183v-8v-0.01c0.039-0.016,0.074-0.033,0.111-0.049h-30.139l0.088,0.059v8
			v2.736h29.939V179.183z"/>
		<path style="opacity:0.2;fill:#231F20;" d="M95.993,108.271v-0.029c0-0.701,0.568-1.281,1.27-1.281
			c0.455,0,0.832,0.254,1.055,0.611c6.057-2.025,11.42-5.537,15.195-10.99c11.008,8.467,26.313,11.18,40.459,9.391v-2.932
			c0,0-27.389,5.971-38.559-18.898c-11.182,24.869-38.57,18.898-38.57,18.898v6.371C83.233,110.135,89.893,109.895,95.993,108.271z"
			/>
	</g>
</g>
<g>
</g>
<g>
</g>
<g>
</g>
<g>
</g>
<g>
</g>
<g>
</g>
<g>
</g>
<g>
</g>
<g>
</g>
<g>
</g>
<g>
</g>
<g>
</g>
<g>
</g>
<g>
</g>
<g>
</g>
</svg>
