<svg width="512" height="512" viewBox="0 0 512 512" fill="green" xmlns="http://www.w3.org/2000/svg">
<path d="M372.363 372.364H139.636V418.909H372.363V372.364Z"/>
<path d="M139.636 465.455V488.727V512H372.364V488.727V465.455H139.636Z"/>
<path d="M507.338 133.843L413.823 9.3C409.428 3.446 402.533 0 395.213 0H356.849V23.273V46.546V193.94C356.849 206.791 346.429 217.213 333.576 217.213H116.364C103.511 217.213 93.091 206.791 93.091 193.94V46.545V23.273V0H23.273C10.42 0 0 10.422 0 23.273V488.728C0 501.578 10.42 512 23.273 512H93.091V488.727V465.454V442.181V349.09C93.091 336.236 103.511 325.817 116.364 325.817H395.637C408.49 325.817 418.91 336.235 418.91 349.09V442.181V465.454V488.727V512H488.728C501.58 512 512 501.578 512 488.727V147.817C512 142.778 510.363 137.872 507.338 133.843Z"/>
<path d="M139.636 0V23.273V46.545V170.667H310.303V46.545V23.273V0H139.636Z"/>
</svg>
